<svg xmlns="http://www.w3.org/2000/svg" xmlns:xlink="http://www.w3.org/1999/xlink" width="1024" zoomAndPan="magnify" viewBox="0 0 768 767.999994" height="1024" preserveAspectRatio="xMidYMid meet" version="1.0"><defs><clipPath id="77d6b71c20"><path d="M 251 149.410156 L 509 149.410156 L 509 407 L 251 407 Z M 251 149.410156 " clip-rule="nonzero"/></clipPath><clipPath id="00eb797e4d"><path d="M 293.3125 149.117188 L 466.753906 149.117188 C 468.109375 149.117188 469.464844 149.183594 470.8125 149.316406 C 472.160156 149.449219 473.5 149.648438 474.828125 149.914062 C 476.160156 150.179688 477.472656 150.507812 478.769531 150.902344 C 480.066406 151.292969 481.34375 151.75 482.59375 152.269531 C 483.847656 152.785156 485.070312 153.367188 486.265625 154.003906 C 487.460938 154.644531 488.621094 155.339844 489.75 156.09375 C 490.878906 156.84375 491.964844 157.652344 493.011719 158.511719 C 494.058594 159.371094 495.0625 160.28125 496.023438 161.238281 C 496.980469 162.195312 497.890625 163.199219 498.75 164.246094 C 499.609375 165.292969 500.417969 166.382812 501.167969 167.507812 C 501.921875 168.636719 502.617188 169.796875 503.257812 170.992188 C 503.894531 172.1875 504.476562 173.410156 504.992188 174.660156 C 505.511719 175.914062 505.96875 177.1875 506.363281 178.484375 C 506.753906 179.78125 507.085938 181.09375 507.347656 182.425781 C 507.613281 183.753906 507.8125 185.09375 507.945312 186.441406 C 508.078125 187.789062 508.144531 189.140625 508.144531 190.496094 L 508.144531 364.953125 C 508.144531 366.308594 508.078125 367.660156 507.945312 369.007812 C 507.8125 370.355469 507.613281 371.695312 507.347656 373.023438 C 507.085938 374.351562 506.753906 375.667969 506.363281 376.964844 C 505.96875 378.261719 505.511719 379.535156 504.992188 380.785156 C 504.476562 382.039062 503.894531 383.261719 503.257812 384.457031 C 502.617188 385.652344 501.921875 386.8125 501.167969 387.941406 C 500.417969 389.066406 499.609375 390.152344 498.75 391.203125 C 497.890625 392.25 496.980469 393.253906 496.023438 394.210938 C 495.0625 395.167969 494.058594 396.078125 493.011719 396.9375 C 491.964844 397.796875 490.878906 398.601562 489.75 399.355469 C 488.621094 400.109375 487.460938 400.804688 486.265625 401.445312 C 485.070312 402.082031 483.847656 402.660156 482.59375 403.179688 C 481.34375 403.699219 480.066406 404.152344 478.769531 404.546875 C 477.472656 404.941406 476.160156 405.269531 474.828125 405.535156 C 473.5 405.796875 472.160156 405.996094 470.8125 406.128906 C 469.464844 406.261719 468.109375 406.328125 466.753906 406.328125 L 293.3125 406.328125 C 291.957031 406.328125 290.605469 406.261719 289.257812 406.128906 C 287.90625 405.996094 286.570312 405.800781 285.238281 405.535156 C 283.910156 405.269531 282.597656 404.941406 281.300781 404.546875 C 280.003906 404.15625 278.726562 403.699219 277.476562 403.179688 C 276.222656 402.660156 275 402.082031 273.804688 401.445312 C 272.609375 400.804688 271.445312 400.109375 270.320312 399.355469 C 269.191406 398.601562 268.105469 397.796875 267.058594 396.9375 C 266.007812 396.078125 265.007812 395.167969 264.046875 394.210938 C 263.089844 393.253906 262.179688 392.25 261.320312 391.203125 C 260.460938 390.152344 259.652344 389.066406 258.898438 387.941406 C 258.148438 386.8125 257.449219 385.652344 256.8125 384.457031 C 256.171875 383.261719 255.59375 382.039062 255.074219 380.785156 C 254.558594 379.535156 254.101562 378.257812 253.707031 376.964844 C 253.3125 375.667969 252.984375 374.351562 252.71875 373.023438 C 252.457031 371.695312 252.257812 370.355469 252.125 369.007812 C 251.992188 367.660156 251.925781 366.308594 251.925781 364.953125 L 251.925781 190.496094 C 251.925781 189.140625 251.992188 187.789062 252.125 186.441406 C 252.257812 185.09375 252.457031 183.753906 252.71875 182.425781 C 252.984375 181.09375 253.3125 179.78125 253.707031 178.484375 C 254.101562 177.1875 254.558594 175.914062 255.074219 174.660156 C 255.59375 173.410156 256.171875 172.1875 256.8125 170.992188 C 257.449219 169.796875 258.148438 168.636719 258.898438 167.507812 C 259.652344 166.382812 260.460938 165.292969 261.320312 164.246094 C 262.179688 163.199219 263.089844 162.195312 264.046875 161.238281 C 265.007812 160.28125 266.007812 159.371094 267.058594 158.511719 C 268.105469 157.652344 269.191406 156.84375 270.320312 156.09375 C 271.445312 155.339844 272.609375 154.644531 273.804688 154.003906 C 275 153.367188 276.222656 152.785156 277.476562 152.269531 C 278.726562 151.75 280.003906 151.292969 281.300781 150.902344 C 282.597656 150.507812 283.910156 150.179688 285.238281 149.914062 C 286.570312 149.648438 287.90625 149.449219 289.257812 149.316406 C 290.605469 149.183594 291.957031 149.117188 293.3125 149.117188 Z M 293.3125 149.117188 " clip-rule="nonzero"/></clipPath><linearGradient x1="255.659425" gradientTransform="matrix(2.001403, 0, 0, 2.000861, -258.913115, -701.907265)" y1="554.292202" x2="382.753315" gradientUnits="userSpaceOnUse" y2="424.977877" id="469e4cce7b"><stop stop-opacity="1" stop-color="rgb(2.69928%, 0.39978%, 20.799255%)" offset="0"/><stop stop-opacity="1" stop-color="rgb(2.853394%, 0.474548%, 20.845032%)" offset="0.0625"/><stop stop-opacity="1" stop-color="rgb(3.161621%, 0.624084%, 20.93811%)" offset="0.0703125"/><stop stop-opacity="1" stop-color="rgb(3.4729%, 0.775146%, 21.031189%)" offset="0.078125"/><stop stop-opacity="1" stop-color="rgb(3.78418%, 0.927734%, 21.124268%)" offset="0.0859375"/><stop stop-opacity="1" stop-color="rgb(4.093933%, 1.078796%, 21.217346%)" offset="0.09375"/><stop stop-opacity="1" stop-color="rgb(4.405212%, 1.229858%, 21.310425%)" offset="0.101562"/><stop stop-opacity="1" stop-color="rgb(4.716492%, 1.38092%, 21.405029%)" offset="0.109375"/><stop stop-opacity="1" stop-color="rgb(5.027771%, 1.533508%, 21.498108%)" offset="0.117187"/><stop stop-opacity="1" stop-color="rgb(5.337524%, 1.68457%, 21.591187%)" offset="0.125"/><stop stop-opacity="1" stop-color="rgb(5.648804%, 1.835632%, 21.684265%)" offset="0.132812"/><stop stop-opacity="1" stop-color="rgb(5.960083%, 1.986694%, 21.777344%)" offset="0.140625"/><stop stop-opacity="1" stop-color="rgb(6.269836%, 2.139282%, 21.870422%)" offset="0.148437"/><stop stop-opacity="1" stop-color="rgb(6.581116%, 2.290344%, 21.965027%)" offset="0.15625"/><stop stop-opacity="1" stop-color="rgb(6.892395%, 2.441406%, 22.058105%)" offset="0.164062"/><stop stop-opacity="1" stop-color="rgb(7.203674%, 2.593994%, 22.151184%)" offset="0.171875"/><stop stop-opacity="1" stop-color="rgb(7.513428%, 2.745056%, 22.244263%)" offset="0.179688"/><stop stop-opacity="1" stop-color="rgb(7.824707%, 2.896118%, 22.337341%)" offset="0.1875"/><stop stop-opacity="1" stop-color="rgb(8.135986%, 3.04718%, 22.43042%)" offset="0.195312"/><stop stop-opacity="1" stop-color="rgb(8.44574%, 3.199768%, 22.525024%)" offset="0.203125"/><stop stop-opacity="1" stop-color="rgb(8.757019%, 3.35083%, 22.618103%)" offset="0.210938"/><stop stop-opacity="1" stop-color="rgb(9.068298%, 3.501892%, 22.711182%)" offset="0.21875"/><stop stop-opacity="1" stop-color="rgb(9.379578%, 3.652954%, 22.80426%)" offset="0.226562"/><stop stop-opacity="1" stop-color="rgb(9.689331%, 3.805542%, 22.897339%)" offset="0.234375"/><stop stop-opacity="1" stop-color="rgb(10.00061%, 3.956604%, 22.990417%)" offset="0.242188"/><stop stop-opacity="1" stop-color="rgb(10.31189%, 4.107666%, 23.085022%)" offset="0.25"/><stop stop-opacity="1" stop-color="rgb(10.621643%, 4.258728%, 23.178101%)" offset="0.257812"/><stop stop-opacity="1" stop-color="rgb(10.932922%, 4.411316%, 23.271179%)" offset="0.265625"/><stop stop-opacity="1" stop-color="rgb(11.244202%, 4.562378%, 23.364258%)" offset="0.273437"/><stop stop-opacity="1" stop-color="rgb(11.555481%, 4.71344%, 23.457336%)" offset="0.28125"/><stop stop-opacity="1" stop-color="rgb(11.865234%, 4.864502%, 23.550415%)" offset="0.289062"/><stop stop-opacity="1" stop-color="rgb(12.176514%, 5.01709%, 23.64502%)" offset="0.296875"/><stop stop-opacity="1" stop-color="rgb(12.487793%, 5.168152%, 23.738098%)" offset="0.304687"/><stop stop-opacity="1" stop-color="rgb(12.797546%, 5.319214%, 23.831177%)" offset="0.3125"/><stop stop-opacity="1" stop-color="rgb(13.108826%, 5.470276%, 23.924255%)" offset="0.320312"/><stop stop-opacity="1" stop-color="rgb(13.420105%, 5.622864%, 24.017334%)" offset="0.328125"/><stop stop-opacity="1" stop-color="rgb(13.729858%, 5.773926%, 24.111938%)" offset="0.335938"/><stop stop-opacity="1" stop-color="rgb(14.041138%, 5.924988%, 24.205017%)" offset="0.34375"/><stop stop-opacity="1" stop-color="rgb(14.352417%, 6.07605%, 24.298096%)" offset="0.351562"/><stop stop-opacity="1" stop-color="rgb(14.663696%, 6.228638%, 24.391174%)" offset="0.359375"/><stop stop-opacity="1" stop-color="rgb(14.97345%, 6.3797%, 24.484253%)" offset="0.367187"/><stop stop-opacity="1" stop-color="rgb(15.284729%, 6.530762%, 24.577332%)" offset="0.375"/><stop stop-opacity="1" stop-color="rgb(15.596008%, 6.681824%, 24.671936%)" offset="0.382812"/><stop stop-opacity="1" stop-color="rgb(15.905762%, 6.834412%, 24.765015%)" offset="0.390625"/><stop stop-opacity="1" stop-color="rgb(16.217041%, 6.985474%, 24.858093%)" offset="0.398438"/><stop stop-opacity="1" stop-color="rgb(16.52832%, 7.136536%, 24.951172%)" offset="0.40625"/><stop stop-opacity="1" stop-color="rgb(16.8396%, 7.289124%, 25.04425%)" offset="0.414062"/><stop stop-opacity="1" stop-color="rgb(17.149353%, 7.440186%, 25.137329%)" offset="0.421875"/><stop stop-opacity="1" stop-color="rgb(17.460632%, 7.591248%, 25.231934%)" offset="0.429687"/><stop stop-opacity="1" stop-color="rgb(17.771912%, 7.74231%, 25.325012%)" offset="0.4375"/><stop stop-opacity="1" stop-color="rgb(18.081665%, 7.894897%, 25.418091%)" offset="0.445312"/><stop stop-opacity="1" stop-color="rgb(18.392944%, 8.045959%, 25.511169%)" offset="0.453125"/><stop stop-opacity="1" stop-color="rgb(18.704224%, 8.197021%, 25.604248%)" offset="0.460937"/><stop stop-opacity="1" stop-color="rgb(19.015503%, 8.348083%, 25.697327%)" offset="0.46875"/><stop stop-opacity="1" stop-color="rgb(19.325256%, 8.500671%, 25.791931%)" offset="0.476562"/><stop stop-opacity="1" stop-color="rgb(19.636536%, 8.651733%, 25.88501%)" offset="0.484375"/><stop stop-opacity="1" stop-color="rgb(19.947815%, 8.802795%, 25.978088%)" offset="0.492187"/><stop stop-opacity="1" stop-color="rgb(20.257568%, 8.953857%, 26.071167%)" offset="0.494921"/><stop stop-opacity="1" stop-color="rgb(20.413208%, 9.030151%, 26.118469%)" offset="0.5"/><stop stop-opacity="1" stop-color="rgb(20.568848%, 9.106445%, 26.164246%)" offset="0.505079"/><stop stop-opacity="1" stop-color="rgb(20.724487%, 9.182739%, 26.211548%)" offset="0.507812"/><stop stop-opacity="1" stop-color="rgb(20.880127%, 9.257507%, 26.257324%)" offset="0.515625"/><stop stop-opacity="1" stop-color="rgb(21.191406%, 9.408569%, 26.351929%)" offset="0.523437"/><stop stop-opacity="1" stop-color="rgb(21.50116%, 9.559631%, 26.445007%)" offset="0.53125"/><stop stop-opacity="1" stop-color="rgb(21.812439%, 9.712219%, 26.538086%)" offset="0.539062"/><stop stop-opacity="1" stop-color="rgb(22.123718%, 9.863281%, 26.631165%)" offset="0.546875"/><stop stop-opacity="1" stop-color="rgb(22.433472%, 10.014343%, 26.724243%)" offset="0.554687"/><stop stop-opacity="1" stop-color="rgb(22.744751%, 10.165405%, 26.817322%)" offset="0.5625"/><stop stop-opacity="1" stop-color="rgb(23.05603%, 10.317993%, 26.911926%)" offset="0.570312"/><stop stop-opacity="1" stop-color="rgb(23.36731%, 10.469055%, 27.005005%)" offset="0.578125"/><stop stop-opacity="1" stop-color="rgb(23.677063%, 10.620117%, 27.098083%)" offset="0.585937"/><stop stop-opacity="1" stop-color="rgb(23.988342%, 10.771179%, 27.191162%)" offset="0.59375"/><stop stop-opacity="1" stop-color="rgb(24.299622%, 10.923767%, 27.284241%)" offset="0.601562"/><stop stop-opacity="1" stop-color="rgb(24.609375%, 11.074829%, 27.378845%)" offset="0.609375"/><stop stop-opacity="1" stop-color="rgb(24.920654%, 11.225891%, 27.471924%)" offset="0.617187"/><stop stop-opacity="1" stop-color="rgb(25.231934%, 11.378479%, 27.565002%)" offset="0.625"/><stop stop-opacity="1" stop-color="rgb(25.543213%, 11.529541%, 27.658081%)" offset="0.632812"/><stop stop-opacity="1" stop-color="rgb(25.852966%, 11.680603%, 27.75116%)" offset="0.640625"/><stop stop-opacity="1" stop-color="rgb(26.164246%, 11.831665%, 27.844238%)" offset="0.648437"/><stop stop-opacity="1" stop-color="rgb(26.475525%, 11.984253%, 27.938843%)" offset="0.65625"/><stop stop-opacity="1" stop-color="rgb(26.785278%, 12.135315%, 28.031921%)" offset="0.664062"/><stop stop-opacity="1" stop-color="rgb(27.096558%, 12.286377%, 28.125%)" offset="0.671875"/><stop stop-opacity="1" stop-color="rgb(27.407837%, 12.437439%, 28.218079%)" offset="0.679687"/><stop stop-opacity="1" stop-color="rgb(27.71759%, 12.590027%, 28.311157%)" offset="0.6875"/><stop stop-opacity="1" stop-color="rgb(28.02887%, 12.741089%, 28.404236%)" offset="0.695312"/><stop stop-opacity="1" stop-color="rgb(28.340149%, 12.892151%, 28.49884%)" offset="0.703125"/><stop stop-opacity="1" stop-color="rgb(28.651428%, 13.043213%, 28.591919%)" offset="0.710937"/><stop stop-opacity="1" stop-color="rgb(28.961182%, 13.195801%, 28.684998%)" offset="0.71875"/><stop stop-opacity="1" stop-color="rgb(29.272461%, 13.346863%, 28.778076%)" offset="0.726562"/><stop stop-opacity="1" stop-color="rgb(29.58374%, 13.497925%, 28.871155%)" offset="0.734375"/><stop stop-opacity="1" stop-color="rgb(29.893494%, 13.648987%, 28.964233%)" offset="0.742187"/><stop stop-opacity="1" stop-color="rgb(30.204773%, 13.801575%, 29.058838%)" offset="0.75"/><stop stop-opacity="1" stop-color="rgb(30.516052%, 13.952637%, 29.151917%)" offset="0.757812"/><stop stop-opacity="1" stop-color="rgb(30.827332%, 14.103699%, 29.244995%)" offset="0.765625"/><stop stop-opacity="1" stop-color="rgb(31.137085%, 14.254761%, 29.338074%)" offset="0.773437"/><stop stop-opacity="1" stop-color="rgb(31.448364%, 14.407349%, 29.431152%)" offset="0.78125"/><stop stop-opacity="1" stop-color="rgb(31.759644%, 14.558411%, 29.524231%)" offset="0.789062"/><stop stop-opacity="1" stop-color="rgb(32.069397%, 14.709473%, 29.618835%)" offset="0.796875"/><stop stop-opacity="1" stop-color="rgb(32.380676%, 14.860535%, 29.711914%)" offset="0.804687"/><stop stop-opacity="1" stop-color="rgb(32.691956%, 15.013123%, 29.804993%)" offset="0.8125"/><stop stop-opacity="1" stop-color="rgb(33.003235%, 15.164185%, 29.898071%)" offset="0.820312"/><stop stop-opacity="1" stop-color="rgb(33.312988%, 15.315247%, 29.99115%)" offset="0.828125"/><stop stop-opacity="1" stop-color="rgb(33.624268%, 15.466309%, 30.084229%)" offset="0.835937"/><stop stop-opacity="1" stop-color="rgb(33.935547%, 15.618896%, 30.178833%)" offset="0.84375"/><stop stop-opacity="1" stop-color="rgb(34.2453%, 15.769958%, 30.271912%)" offset="0.851562"/><stop stop-opacity="1" stop-color="rgb(34.55658%, 15.921021%, 30.36499%)" offset="0.859375"/><stop stop-opacity="1" stop-color="rgb(34.867859%, 16.073608%, 30.458069%)" offset="0.867187"/><stop stop-opacity="1" stop-color="rgb(35.179138%, 16.22467%, 30.551147%)" offset="0.875"/><stop stop-opacity="1" stop-color="rgb(35.488892%, 16.375732%, 30.644226%)" offset="0.882812"/><stop stop-opacity="1" stop-color="rgb(35.800171%, 16.526794%, 30.738831%)" offset="0.890625"/><stop stop-opacity="1" stop-color="rgb(36.11145%, 16.679382%, 30.831909%)" offset="0.898437"/><stop stop-opacity="1" stop-color="rgb(36.421204%, 16.830444%, 30.924988%)" offset="0.90625"/><stop stop-opacity="1" stop-color="rgb(36.732483%, 16.981506%, 31.018066%)" offset="0.914062"/><stop stop-opacity="1" stop-color="rgb(37.043762%, 17.132568%, 31.111145%)" offset="0.921875"/><stop stop-opacity="1" stop-color="rgb(37.355042%, 17.285156%, 31.20575%)" offset="0.929688"/><stop stop-opacity="1" stop-color="rgb(37.664795%, 17.436218%, 31.298828%)" offset="0.9375"/><stop stop-opacity="1" stop-color="rgb(37.908936%, 17.555237%, 31.37207%)" offset="1"/></linearGradient></defs><g clip-path="url(#77d6b71c20)"><g clip-path="url(#00eb797e4d)"><path fill="url(#469e4cce7b)" d="M 251.925781 149.410156 L 251.925781 406.328125 L 508.144531 406.328125 L 508.144531 149.410156 Z M 251.925781 149.410156 " fill-rule="nonzero"/></g></g><path fill="#ffffff" d="M 381.957031 259.828125 C 388.5 259.828125 393.460938 258.425781 396.839844 255.558594 C 400.222656 252.691406 401.910156 248.515625 401.910156 242.96875 C 401.910156 237.488281 400.222656 233.328125 396.839844 230.480469 C 393.4375 227.566406 388.5 226.105469 381.957031 226.105469 L 358.980469 226.105469 L 358.980469 259.828125 L 381.957031 259.828125 M 383.355469 329.511719 C 391.695312 329.511719 397.953125 327.773438 402.125 324.285156 C 406.367188 320.800781 408.488281 315.535156 408.488281 308.492188 C 408.488281 301.589844 406.402344 296.433594 402.230469 293.019531 C 398.0625 289.535156 391.769531 287.789062 383.359375 287.789062 L 358.980469 287.789062 L 358.980469 329.515625 L 383.359375 329.515625 M 421.972656 272.210938 C 430.886719 274.773438 437.792969 279.503906 442.679688 286.402344 C 447.570312 293.304688 450.015625 301.769531 450.015625 311.804688 C 450.015625 327.167969 444.765625 338.625 434.269531 346.164062 C 423.769531 353.707031 407.808594 357.476562 386.382812 357.476562 L 317.460938 357.476562 L 317.460938 198.1875 L 379.804688 198.1875 C 402.167969 198.1875 418.34375 201.53125 428.339844 208.21875 C 438.40625 214.90625 443.4375 225.613281 443.4375 240.339844 C 443.4375 248.09375 441.605469 254.710938 437.9375 260.1875 C 434.273438 265.59375 428.933594 269.59375 421.976562 272.25 " fill-opacity="1" fill-rule="nonzero"/><path fill="#230f3d" d="M 20.660156 491.882812 L 20.660156 535.15625 L 46.308594 535.15625 C 54.898438 535.15625 61.269531 533.390625 65.390625 529.859375 C 69.554688 526.269531 71.628906 520.804688 71.628906 513.488281 C 71.628906 506.195312 69.546875 500.667969 65.390625 497.183594 C 61.269531 493.648438 54.914062 491.882812 46.308594 491.882812 L 20.660156 491.882812 M 20.660156 443.292969 L 20.660156 478.910156 L 44.328125 478.910156 C 52.144531 478.910156 57.949219 477.449219 61.742188 474.558594 C 65.589844 471.597656 67.519531 467.117188 67.519531 461.105469 C 67.519531 455.140625 65.589844 450.683594 61.742188 447.734375 C 57.890625 444.78125 52.136719 443.300781 44.328125 443.300781 L 20.660156 443.300781 M 4.664062 430.171875 L 45.519531 430.171875 C 57.710938 430.171875 67.105469 432.707031 73.707031 437.773438 C 80.304688 442.839844 83.59375 450.042969 83.59375 459.378906 C 83.59375 466.605469 81.910156 472.359375 78.527344 476.640625 C 75.148438 480.917969 70.179688 483.578125 63.644531 484.628906 C 71.507812 486.316406 77.605469 489.855469 81.933594 495.164062 C 86.3125 500.496094 88.417969 507.160156 88.417969 515.183594 C 88.417969 525.734375 84.828125 533.886719 77.652344 539.640625 C 70.480469 545.394531 60.265625 548.261719 47.011719 548.261719 L 4.585938 548.261719 L 4.585938 430.132812 " fill-opacity="1" fill-rule="nonzero"/><path fill="#230f3d" d="M 148.71875 469.871094 C 146.917969 469.8125 145.132812 469.972656 143.371094 470.355469 C 141.605469 470.738281 139.917969 471.328125 138.300781 472.128906 C 136.683594 472.929688 135.191406 473.917969 133.820312 475.089844 C 132.449219 476.261719 131.242188 477.582031 130.195312 479.054688 C 125.65625 485.132812 123.386719 493.457031 123.386719 504.0625 C 123.386719 514.671875 125.632812 523.027344 130.117188 529.152344 C 134.65625 535.230469 140.855469 538.253906 148.71875 538.253906 C 150.515625 538.3125 152.292969 538.148438 154.050781 537.765625 C 155.804688 537.382812 157.488281 536.789062 159.097656 535.988281 C 160.707031 535.1875 162.195312 534.199219 163.558594 533.03125 C 164.921875 531.859375 166.125 530.539062 167.160156 529.070312 C 171.699219 522.953125 173.96875 514.613281 173.96875 504.0625 C 173.96875 493.558594 171.699219 485.261719 167.160156 479.136719 C 162.621094 472.960938 156.476562 469.871094 148.71875 469.871094 M 148.71875 457.53125 C 161.382812 457.53125 171.417969 461.648438 178.566406 469.871094 C 185.714844 478.097656 189.414062 489.5 189.414062 504.070312 C 189.414062 518.640625 185.796875 529.980469 178.566406 538.269531 C 171.335938 546.503906 161.382812 550.613281 148.71875 550.613281 C 135.992188 550.613281 126.023438 546.496094 118.726562 538.269531 C 111.554688 529.988281 107.960938 518.59375 107.960938 504.070312 C 107.960938 489.507812 111.554688 478.113281 118.726562 469.871094 C 125.957031 461.640625 135.929688 457.53125 148.71875 457.53125 " fill-opacity="1" fill-rule="nonzero"/><path fill="#230f3d" d="M 247.023438 469.871094 C 245.21875 469.8125 243.4375 469.972656 241.671875 470.355469 C 239.910156 470.738281 238.21875 471.328125 236.605469 472.128906 C 234.988281 472.929688 233.492188 473.917969 232.121094 475.089844 C 230.75 476.261719 229.542969 477.582031 228.5 479.054688 C 223.960938 485.132812 221.691406 493.457031 221.691406 504.0625 C 221.691406 514.671875 223.9375 523.027344 228.417969 529.152344 C 232.957031 535.230469 239.160156 538.253906 247.023438 538.253906 C 248.820312 538.3125 250.597656 538.148438 252.351562 537.765625 C 254.109375 537.382812 255.792969 536.789062 257.402344 535.988281 C 259.011719 535.1875 260.496094 534.199219 261.863281 533.03125 C 263.226562 531.859375 264.425781 530.539062 265.464844 529.070312 C 270.003906 522.953125 272.273438 514.613281 272.273438 504.0625 C 272.273438 493.558594 270.003906 485.261719 265.464844 479.136719 C 260.925781 472.960938 254.78125 469.871094 247.023438 469.871094 M 247.023438 457.53125 C 259.683594 457.53125 269.71875 461.648438 276.871094 469.871094 C 284.019531 478.097656 287.714844 489.5 287.714844 504.070312 C 287.714844 518.640625 284.101562 529.980469 276.871094 538.269531 C 269.640625 546.503906 259.683594 550.613281 247.023438 550.613281 C 234.296875 550.613281 224.324219 546.496094 217.03125 538.269531 C 209.855469 529.988281 206.265625 518.59375 206.265625 504.070312 C 206.265625 489.507812 209.855469 478.113281 217.03125 469.871094 C 224.261719 461.640625 234.230469 457.53125 247.023438 457.53125 " fill-opacity="1" fill-rule="nonzero"/><path fill="#230f3d" d="M 325.367188 434.492188 L 325.367188 459.652344 L 355.359375 459.652344 L 355.359375 470.964844 L 325.367188 470.964844 L 325.367188 519.085938 C 325.367188 526.316406 326.339844 530.960938 328.285156 533.027344 C 330.289062 535.085938 334.324219 536.105469 340.398438 536.105469 L 355.359375 536.105469 L 355.359375 548.292969 L 340.390625 548.292969 C 329.144531 548.292969 321.386719 546.210938 317.125 542.054688 C 312.851562 537.839844 310.640625 530.183594 310.640625 519.105469 L 310.640625 470.964844 L 299.957031 470.964844 L 299.957031 459.652344 L 310.640625 459.652344 L 310.640625 434.507812 L 325.289062 434.507812 M 430.230469 462.28125 L 430.230469 476.054688 C 426.144531 473.957031 421.871094 472.371094 417.40625 471.308594 C 412.972656 470.253906 408.382812 469.726562 403.625 469.726562 C 396.394531 469.726562 390.953125 470.835938 387.316406 472.96875 C 383.722656 475.179688 381.933594 478.511719 381.933594 482.9375 C 381.933594 486.316406 383.230469 488.972656 385.824219 490.925781 C 388.417969 492.824219 393.605469 494.65625 401.421875 496.390625 L 406.40625 497.5 C 416.75 499.710938 424.078125 502.847656 428.414062 506.914062 C 432.789062 510.925781 434.898438 516.542969 434.898438 523.773438 C 434.957031 525.675781 434.78125 527.558594 434.375 529.417969 C 433.96875 531.277344 433.339844 533.0625 432.492188 534.765625 C 431.640625 536.472656 430.597656 538.046875 429.359375 539.496094 C 428.121094 540.941406 426.726562 542.21875 425.171875 543.320312 C 418.6875 548.117188 409.738281 550.613281 398.421875 550.613281 C 393.671875 550.613281 388.710938 550.125 383.539062 549.1875 C 378.414062 548.375 373 546.917969 367.308594 545.070312 L 367.308594 530.035156 C 372.691406 532.832031 377.992188 534.9375 383.222656 536.355469 C 388.304688 537.714844 393.476562 538.398438 398.738281 538.414062 C 405.59375 538.414062 410.871094 537.257812 414.566406 534.929688 C 418.265625 532.558594 420.113281 529.234375 420.113281 524.964844 C 420.113281 521.007812 418.765625 517.96875 416.074219 515.863281 C 413.433594 513.753906 407.605469 511.8125 398.582031 509.769531 L 393.515625 508.585938 C 384.496094 506.6875 377.976562 503.789062 373.964844 499.882812 C 369.953125 495.925781 367.949219 490.511719 367.949219 483.65625 C 367.949219 475.308594 370.910156 468.882812 376.816406 464.347656 C 382.726562 459.808594 391.117188 457.539062 401.988281 457.539062 C 407.085938 457.515625 412.152344 457.910156 417.1875 458.722656 C 421.691406 459.445312 426.070312 460.628906 430.328125 462.28125 M 471.933594 434.484375 L 471.933594 459.644531 L 501.929688 459.644531 L 501.929688 470.957031 L 471.933594 470.957031 L 471.933594 519.078125 C 471.933594 526.308594 472.90625 530.953125 474.855469 533.019531 C 476.855469 535.078125 480.894531 536.097656 486.964844 536.097656 L 501.945312 536.097656 L 501.945312 548.285156 L 486.980469 548.285156 C 475.738281 548.285156 467.980469 546.203125 463.714844 542.046875 C 459.445312 537.832031 457.230469 530.175781 457.230469 519.097656 L 457.230469 470.957031 L 446.546875 470.957031 L 446.546875 459.644531 L 457.230469 459.644531 L 457.230469 434.507812 L 471.953125 434.507812 M 571.65625 473.285156 C 569.972656 472.3125 568.175781 471.628906 566.273438 471.226562 C 564.195312 470.722656 562.089844 470.484375 559.953125 470.511719 C 551.714844 470.511719 545.386719 473.203125 540.949219 478.585938 C 536.574219 483.917969 534.464844 491.589844 534.464844 501.617188 L 534.464844 548.3125 L 519.816406 548.3125 L 519.816406 459.652344 L 534.464844 459.652344 L 534.464844 473.429688 C 537.53125 468.050781 541.519531 464.0625 546.421875 461.476562 C 551.328125 458.835938 557.285156 457.523438 564.3125 457.523438 C 565.425781 457.53125 566.535156 457.609375 567.636719 457.757812 L 571.671875 458.308594 L 571.753906 473.269531 M 626.664062 503.738281 C 614.894531 503.738281 606.742188 505.085938 602.199219 507.773438 C 597.660156 510.464844 595.390625 515.050781 595.390625 521.550781 C 595.390625 526.722656 597.078125 530.839844 600.457031 533.894531 C 603.886719 536.890625 608.53125 538.40625 614.402344 538.40625 C 622.472656 538.40625 628.941406 535.554688 633.796875 529.859375 C 638.703125 524.183594 641.160156 516.488281 641.160156 506.988281 L 641.160156 503.746094 L 626.671875 503.746094 M 655.726562 497.734375 L 655.726562 548.300781 L 641.160156 548.300781 L 641.160156 534.851562 C 637.917969 540.230469 633.703125 544.21875 628.730469 546.804688 C 623.769531 549.332031 617.707031 550.613281 610.527344 550.613281 C 601.445312 550.613281 594.214844 548.082031 588.832031 543.019531 C 583.5 537.898438 580.839844 531.066406 580.839844 522.515625 C 580.839844 512.546875 584.082031 505.027344 590.8125 499.960938 C 597.539062 494.898438 607.484375 492.371094 620.804688 492.371094 L 641.230469 492.371094 L 641.230469 490.941406 C 641.230469 484.242188 639.019531 479.070312 634.585938 475.433594 C 630.207031 471.738281 624.03125 469.890625 616.0625 469.890625 C 610.996094 469.890625 606.058594 470.496094 601.261719 471.710938 C 596.410156 472.941406 591.792969 474.761719 587.40625 477.175781 L 587.40625 463.722656 C 592.742188 461.664062 597.914062 460.132812 602.921875 459.136719 C 607.75 458.097656 612.632812 457.574219 617.570312 457.554688 C 630.394531 457.554688 639.976562 460.796875 646.304688 467.523438 C 652.636719 474.25 655.804688 484.25 655.804688 497.75 M 699.175781 534.996094 L 699.175781 582 L 684.527344 582 L 684.527344 459.660156 L 699.175781 459.660156 L 699.175781 473.113281 C 702.238281 467.847656 706.089844 463.933594 710.734375 461.402344 C 715.433594 458.8125 721.027344 457.515625 727.511719 457.515625 C 730.050781 457.457031 732.558594 457.699219 735.039062 458.242188 C 737.515625 458.785156 739.894531 459.617188 742.175781 460.730469 C 744.457031 461.847656 746.570312 463.21875 748.519531 464.839844 C 750.472656 466.464844 752.203125 468.296875 753.710938 470.335938 C 760.464844 478.882812 763.84375 490.109375 763.84375 504.046875 C 763.84375 517.984375 760.464844 529.210938 753.710938 537.757812 C 752.203125 539.796875 750.472656 541.628906 748.519531 543.253906 C 746.570312 544.875 744.457031 546.246094 742.175781 547.363281 C 739.894531 548.476562 737.515625 549.308594 735.039062 549.851562 C 732.558594 550.394531 730.050781 550.636719 727.511719 550.578125 C 721.027344 550.578125 715.355469 549.316406 710.734375 546.769531 C 706.089844 544.175781 702.238281 540.253906 699.175781 534.980469 M 748.726562 504.039062 C 748.726562 493.324219 746.515625 484.9375 742.082031 478.875 C 737.703125 472.757812 731.65625 469.695312 723.953125 469.695312 C 722.175781 469.632812 720.414062 469.796875 718.671875 470.179688 C 716.933594 470.5625 715.269531 471.15625 713.675781 471.957031 C 712.085938 472.761719 710.621094 473.746094 709.277344 474.917969 C 707.933594 476.089844 706.757812 477.410156 705.75 478.875 C 701.371094 484.953125 699.261719 493.332031 699.261719 504.039062 C 699.261719 514.742188 701.453125 523.164062 705.75 529.28125 C 710.183594 535.359375 716.253906 538.382812 723.953125 538.382812 C 731.65625 538.382812 737.703125 535.351562 742.082031 529.28125 C 746.515625 523.164062 748.726562 514.746094 748.726562 504.039062 " fill-opacity="1" fill-rule="nonzero"/></svg>