<svg xmlns="http://www.w3.org/2000/svg" xmlns:xlink="http://www.w3.org/1999/xlink" width="1024" zoomAndPan="magnify" viewBox="0 0 768 767.999994" height="1024" preserveAspectRatio="xMidYMid meet" version="1.0"><path fill="#2ca9bc" d="M 672 200.640625 L 672 512 C 672 513.046875 671.949219 514.09375 671.847656 515.136719 C 671.742188 516.179688 671.589844 517.214844 671.386719 518.242188 C 671.179688 519.269531 670.925781 520.285156 670.621094 521.289062 C 670.316406 522.292969 669.964844 523.277344 669.5625 524.246094 C 669.164062 525.214844 668.714844 526.160156 668.222656 527.085938 C 667.726562 528.007812 667.1875 528.90625 666.605469 529.777344 C 666.023438 530.648438 665.402344 531.492188 664.734375 532.300781 C 664.070312 533.109375 663.367188 533.886719 662.628906 534.628906 C 661.886719 535.367188 661.109375 536.070312 660.300781 536.738281 C 659.492188 537.402344 658.648438 538.023438 657.777344 538.605469 C 656.90625 539.1875 656.007812 539.726562 655.085938 540.222656 C 654.160156 540.714844 653.214844 541.164062 652.246094 541.5625 C 651.277344 541.964844 650.292969 542.316406 649.289062 542.621094 C 648.285156 542.925781 647.269531 543.179688 646.242188 543.386719 C 645.214844 543.589844 644.179688 543.742188 643.136719 543.847656 C 642.09375 543.949219 641.046875 544 640 544 L 416 544 L 256 672 L 256 544 L 128 544 C 126.953125 544 125.90625 543.949219 124.863281 543.847656 C 123.820312 543.742188 122.785156 543.589844 121.757812 543.386719 C 120.730469 543.179688 119.714844 542.925781 118.710938 542.621094 C 117.707031 542.316406 116.722656 541.964844 115.753906 541.5625 C 114.785156 541.164062 113.839844 540.714844 112.914062 540.222656 C 111.992188 539.726562 111.09375 539.1875 110.222656 538.605469 C 109.351562 538.023438 108.507812 537.402344 107.699219 536.738281 C 106.890625 536.070312 106.113281 535.367188 105.371094 534.628906 C 104.632812 533.886719 103.929688 533.109375 103.261719 532.300781 C 102.597656 531.492188 101.976562 530.648438 101.394531 529.777344 C 100.8125 528.90625 100.273438 528.007812 99.777344 527.085938 C 99.285156 526.160156 98.835938 525.214844 98.4375 524.246094 C 98.035156 523.277344 97.683594 522.292969 97.378906 521.289062 C 97.074219 520.285156 96.820312 519.269531 96.613281 518.242188 C 96.410156 517.214844 96.257812 516.179688 96.152344 515.136719 C 96.050781 514.09375 96 513.046875 96 512 L 96 200.640625 C 100.863281 197.820312 106.003906 195.675781 111.429688 194.210938 C 116.855469 192.746094 122.378906 192.011719 128 192 L 640 192 C 645.621094 192.011719 651.144531 192.746094 656.570312 194.210938 C 661.996094 195.675781 667.136719 197.820312 672 200.640625 Z M 672 200.640625 " fill-opacity="1" fill-rule="nonzero"/><path stroke-linecap="round" transform="matrix(32.000001, 0, 0, 32.000001, 0.000003, 0.00002)" fill="none" stroke-linejoin="round" d="M 20.999999 3.999999 L 20.999999 15.999999 C 20.999999 16.032714 20.998412 16.065429 20.995239 16.098021 C 20.991943 16.130614 20.987182 16.162963 20.980834 16.195067 C 20.974365 16.227172 20.96643 16.25891 20.956908 16.290282 C 20.947387 16.321654 20.936401 16.352416 20.923827 16.382689 C 20.911376 16.412963 20.897338 16.442504 20.881957 16.471434 C 20.866454 16.500243 20.849609 16.528319 20.83142 16.555541 C 20.813232 16.582763 20.793823 16.60913 20.772948 16.634398 C 20.752197 16.659667 20.730224 16.683959 20.707153 16.707152 C 20.683959 16.730223 20.659667 16.752196 20.634399 16.77307 C 20.60913 16.793822 20.582763 16.813231 20.555541 16.83142 C 20.52832 16.849608 20.500243 16.866454 20.471435 16.881957 C 20.442504 16.897338 20.412963 16.911376 20.38269 16.923827 C 20.352416 16.9364 20.321655 16.947387 20.290282 16.956908 C 20.25891 16.96643 20.227172 16.974364 20.195068 16.980834 C 20.162963 16.987181 20.130615 16.991942 20.098022 16.995238 C 20.065429 16.998412 20.032714 16.999999 19.999999 16.999999 L 13 16.999999 L 8 20.999999 L 8 16.999999 L 4 16.999999 C 3.967285 16.999999 3.93457 16.998412 3.901977 16.995238 C 3.869385 16.991942 3.837036 16.987181 3.804931 16.980834 C 3.772827 16.974364 3.741089 16.96643 3.709717 16.956908 C 3.678345 16.947387 3.647583 16.9364 3.617309 16.923827 C 3.587036 16.911376 3.557495 16.897338 3.528564 16.881957 C 3.499756 16.866454 3.471679 16.849608 3.444458 16.83142 C 3.417236 16.813231 3.390869 16.793822 3.3656 16.77307 C 3.340332 16.752196 3.31604 16.730223 3.292846 16.707152 C 3.269775 16.683959 3.247803 16.659667 3.226929 16.634398 C 3.206177 16.60913 3.186767 16.582763 3.168579 16.555541 C 3.15039 16.528319 3.133545 16.500243 3.118042 16.471434 C 3.102661 16.442504 3.088623 16.412963 3.076172 16.382689 C 3.063598 16.352416 3.052612 16.321654 3.043091 16.290282 C 3.033569 16.25891 3.025635 16.227172 3.019165 16.195067 C 3.012817 16.162963 3.008056 16.130614 3.004761 16.098021 C 3.001587 16.065429 3 16.032714 3 15.999999 L 3 3.999999 C 3 3.967284 3.001587 3.93457 3.004761 3.901977 C 3.008056 3.869384 3.012817 3.837035 3.019165 3.804931 C 3.025635 3.772826 3.033569 3.741088 3.043091 3.709716 C 3.052612 3.678344 3.063598 3.647582 3.076172 3.617309 C 3.088623 3.587035 3.102661 3.557494 3.118042 3.528564 C 3.133545 3.499755 3.15039 3.471679 3.168579 3.444457 C 3.186767 3.417236 3.206177 3.390868 3.227051 3.3656 C 3.247803 3.340331 3.269775 3.316039 3.292846 3.292846 C 3.31604 3.269775 3.340332 3.247802 3.3656 3.22705 C 3.390869 3.206176 3.417236 3.186767 3.444458 3.168578 C 3.471679 3.15039 3.499756 3.133544 3.528564 3.118041 C 3.557495 3.10266 3.587036 3.088622 3.617309 3.076171 C 3.647583 3.063598 3.678345 3.052612 3.709717 3.04309 C 3.741089 3.033569 3.772827 3.025634 3.804931 3.019164 C 3.837036 3.012817 3.869385 3.008056 3.901977 3.00476 C 3.93457 3.001586 3.967285 2.999999 4 2.999999 L 19.999999 2.999999 C 20.032714 2.999999 20.065429 3.001586 20.098022 3.00476 C 20.130615 3.008056 20.162963 3.012817 20.195068 3.019164 C 20.227172 3.025634 20.25891 3.033569 20.290282 3.04309 C 20.321655 3.052612 20.352416 3.063598 20.38269 3.076171 C 20.412963 3.088622 20.442504 3.10266 20.471435 3.118041 C 20.500243 3.133544 20.52832 3.15039 20.555541 3.168578 C 20.582763 3.186767 20.60913 3.206176 20.634399 3.22705 C 20.659667 3.247802 20.683959 3.269775 20.707153 3.292846 C 20.730224 3.316039 20.752197 3.340331 20.772948 3.3656 C 20.793823 3.390868 20.813232 3.417236 20.83142 3.444457 C 20.849609 3.471679 20.866454 3.499755 20.881957 3.528564 C 20.897338 3.557494 20.911376 3.587035 20.923827 3.617309 C 20.936401 3.647582 20.947387 3.678344 20.956908 3.709716 C 20.96643 3.741088 20.974365 3.772826 20.980834 3.804931 C 20.987182 3.837035 20.991943 3.869384 20.995239 3.901977 C 20.998412 3.93457 20.999999 3.967284 20.999999 3.999999 Z M 20.999999 3.999999 " stroke="#000000" stroke-width="2" stroke-opacity="1" stroke-miterlimit="4"/></svg>