<?xml version="1.0" encoding="utf-8"?><!-- Uploaded to: SVG Repo, www.svgrepo.com, Generator: SVG Repo Mixer Tools -->
<svg fill="#000000" width="800px" height="800px" viewBox="0 0 24 24" id="clipboard-checklist-4" data-name="Flat Color" xmlns="http://www.w3.org/2000/svg" class="icon flat-color"><path id="primary" d="M18,6V16.76a1,1,0,0,1-1,1,1,1,0,0,1-.56-.17l-.15-.12A1.9,1.9,0,0,0,15,17a2,2,0,0,0-2,2,1.9,1.9,0,0,0,.49,1.29l.12.15a1,1,0,0,1,.17.56,1,1,0,0,1-1,1H4a2,2,0,0,1-2-2V6A2,2,0,0,1,4,4H16A2,2,0,0,1,18,6Z" style="fill: rgb(0, 0, 0);"></path><path id="secondary" d="M17,22a1,1,0,0,1-.71-.29l-2-2a1,1,0,0,1,1.42-1.42L17,19.59l3.29-3.3a1,1,0,0,1,1.42,1.42l-4,4A1,1,0,0,1,17,22Zm-4-7a1,1,0,0,0-1-1H6a1,1,0,0,0,0,2h6A1,1,0,0,0,13,15Zm1-3H6a1,1,0,0,1,0-2h8a1,1,0,0,1,0,2ZM12,2H8A2,2,0,0,0,6,4V5A1,1,0,0,0,7,6h6a1,1,0,0,0,1-1V4A2,2,0,0,0,12,2Z" style="fill: rgb(44, 169, 188);"></path></svg>