<svg xmlns="http://www.w3.org/2000/svg" xmlns:xlink="http://www.w3.org/1999/xlink" width="1024" zoomAndPan="magnify" viewBox="0 0 768 767.999994" height="1024" preserveAspectRatio="xMidYMid meet" version="1.0"><path fill="#004aad" d="M 651.199219 192 L 488 648.640625 C 487.800781 649.515625 487.5625 650.382812 487.292969 651.238281 C 487.019531 652.09375 486.710938 652.9375 486.367188 653.765625 C 486.023438 654.597656 485.644531 655.410156 485.234375 656.210938 C 484.820312 657.007812 484.378906 657.789062 483.898438 658.546875 C 483.421875 659.308594 482.914062 660.046875 482.371094 660.765625 C 481.832031 661.484375 481.261719 662.179688 480.664062 662.847656 C 480.066406 663.519531 479.441406 664.160156 478.789062 664.777344 C 478.136719 665.394531 477.457031 665.984375 476.753906 666.542969 C 476.054688 667.105469 475.328125 667.636719 474.582031 668.132812 C 473.835938 668.632812 473.070312 669.101562 472.28125 669.535156 C 471.496094 669.96875 470.691406 670.371094 469.875 670.738281 C 469.054688 671.105469 468.21875 671.4375 467.371094 671.734375 C 466.523438 672.03125 465.664062 672.289062 464.792969 672.515625 C 463.925781 672.738281 463.046875 672.925781 462.160156 673.078125 C 461.277344 673.226562 460.386719 673.339844 459.492188 673.417969 C 458.59375 673.492188 457.699219 673.53125 456.800781 673.53125 C 455.902344 673.53125 455.003906 673.492188 454.109375 673.417969 C 453.214844 673.339844 452.324219 673.226562 451.4375 673.078125 C 450.554688 672.925781 449.675781 672.738281 448.804688 672.515625 C 447.933594 672.289062 447.078125 672.03125 446.230469 671.734375 C 445.378906 671.4375 444.546875 671.105469 443.726562 670.738281 C 442.90625 670.371094 442.105469 669.96875 441.316406 669.535156 C 440.53125 669.101562 439.765625 668.632812 439.019531 668.132812 C 438.269531 667.636719 437.546875 667.105469 436.84375 666.542969 C 436.140625 665.984375 435.464844 665.394531 434.8125 664.777344 C 434.160156 664.160156 433.535156 663.519531 432.933594 662.847656 C 432.335938 662.179688 431.765625 661.484375 431.226562 660.765625 C 430.6875 660.046875 430.179688 659.308594 429.699219 658.546875 C 429.222656 657.789062 428.777344 657.007812 428.367188 656.210938 C 427.953125 655.410156 427.574219 654.597656 427.234375 653.765625 C 426.890625 652.9375 426.582031 652.09375 426.308594 651.238281 C 426.035156 650.382812 425.800781 649.515625 425.601562 648.640625 L 345.28125 440 C 344.480469 437.792969 343.453125 435.699219 342.195312 433.722656 C 340.933594 431.742188 339.476562 429.921875 337.816406 428.261719 C 336.160156 426.605469 334.339844 425.144531 332.359375 423.886719 C 330.378906 422.628906 328.285156 421.597656 326.078125 420.800781 L 160 358.71875 L 616.640625 195.839844 C 622.113281 193.617188 627.785156 192.179688 633.652344 191.527344 C 639.523438 190.875 645.375 191.03125 651.199219 192 Z M 651.199219 192 " fill-opacity="1" fill-rule="nonzero"/><path stroke-linecap="round" transform="matrix(32.000001, 0, 0, 32.000001, 0.000003, 0.00002)" fill="none" stroke-linejoin="round" d="M 20.939941 4.390014 L 20.349975 5.999999 L 15.249999 20.270018 C 15.243774 20.297362 15.236328 20.324462 15.227905 20.351195 C 15.21936 20.377928 15.209716 20.404296 15.198974 20.430175 C 15.188232 20.456176 15.176391 20.481566 15.163574 20.506591 C 15.150634 20.531493 15.13684 20.555907 15.121826 20.579589 C 15.106933 20.603392 15.091064 20.626464 15.074096 20.648925 C 15.05725 20.671385 15.039428 20.693114 15.020751 20.713988 C 15.002075 20.734984 14.982543 20.755004 14.962158 20.774291 C 14.941772 20.793578 14.920532 20.81201 14.898559 20.829467 C 14.876708 20.847045 14.854003 20.863646 14.830688 20.879149 C 14.807373 20.894774 14.783447 20.909423 14.758789 20.922972 C 14.734252 20.936522 14.709106 20.949095 14.683593 20.96057 C 14.657958 20.972045 14.631835 20.982421 14.605346 20.991698 C 14.578857 21.000975 14.552001 21.009032 14.52478 21.016112 C 14.49768 21.02307 14.470214 21.028929 14.442504 21.03369 C 14.414916 21.038329 14.387084 21.041869 14.35913 21.04431 C 14.331054 21.04663 14.3031 21.04785 14.275024 21.04785 C 14.246948 21.04785 14.218872 21.04663 14.190917 21.04431 C 14.162963 21.041869 14.135131 21.038329 14.107421 21.03369 C 14.079833 21.028929 14.052368 21.02307 14.025146 21.016112 C 13.997924 21.009032 13.971191 21.000975 13.944702 20.991698 C 13.91809 20.982421 13.892089 20.972045 13.866455 20.96057 C 13.84082 20.949095 13.815795 20.936522 13.791137 20.922972 C 13.766601 20.909423 13.742675 20.894774 13.71936 20.879149 C 13.695922 20.863646 13.673339 20.847045 13.651367 20.829467 C 13.629394 20.81201 13.608276 20.793578 13.58789 20.774291 C 13.567504 20.755004 13.547973 20.734984 13.529174 20.713988 C 13.510498 20.693114 13.492675 20.671385 13.47583 20.648925 C 13.458984 20.626464 13.443115 20.603392 13.4281 20.579589 C 13.413208 20.555907 13.399291 20.531493 13.386474 20.506591 C 13.373535 20.481566 13.361694 20.456176 13.351074 20.430175 C 13.340332 20.404296 13.330688 20.377928 13.322143 20.351195 C 13.313598 20.324462 13.306274 20.297362 13.300048 20.270018 L 10.790039 13.749999 C 10.765014 13.681029 10.73291 13.6156 10.693603 13.553832 C 10.654174 13.491942 10.608642 13.435058 10.556762 13.383178 C 10.505004 13.33142 10.44812 13.285766 10.38623 13.246459 C 10.32434 13.207152 10.258911 13.174926 10.189941 13.150023 L 5 11.20996 L 3.670044 10.69995 C 3.642578 10.693725 3.6156 10.6864 3.588867 10.677855 C 3.562012 10.669311 3.535766 10.659667 3.509765 10.649047 C 3.483887 10.638305 3.458374 10.626464 3.433471 10.613524 C 3.408569 10.600707 3.384155 10.586791 3.360351 10.571898 C 3.336548 10.556884 3.313476 10.541015 3.291015 10.524169 C 3.268677 10.507323 3.246948 10.489501 3.225952 10.470824 C 3.205078 10.452025 3.184936 10.432494 3.165649 10.412108 C 3.146362 10.391723 3.127929 10.370605 3.110473 10.348632 C 3.093017 10.326659 3.076416 10.304076 3.060791 10.280639 C 3.045166 10.257323 3.030639 10.233398 3.01709 10.208861 C 3.003418 10.184203 2.990967 10.159179 2.979492 10.133544 C 2.968017 10.107909 2.957641 10.081908 2.948364 10.055297 C 2.939087 10.028808 2.930908 10.002074 2.92395 9.974853 C 2.91687 9.947631 2.911011 9.920165 2.906372 9.892577 C 2.901611 9.864867 2.898071 9.837035 2.895752 9.809081 C 2.893432 9.781127 2.892212 9.753051 2.892212 9.724975 C 2.892212 9.696898 2.893432 9.668944 2.895752 9.64099 C 2.898071 9.612914 2.901611 9.585082 2.906372 9.557494 C 2.911011 9.529784 2.91687 9.502318 2.92395 9.475219 C 2.930908 9.447997 2.939087 9.421142 2.948364 9.394652 C 2.957641 9.368163 2.968017 9.34204 2.979492 9.316405 C 2.990967 9.290893 3.003418 9.265746 3.01709 9.24121 C 3.030639 9.216552 3.045166 9.192626 3.060791 9.169311 C 3.076416 9.145995 3.093017 9.12329 3.110473 9.10144 C 3.127929 9.079467 3.146362 9.058227 3.165649 9.037841 C 3.184936 9.017455 3.205078 8.997924 3.225952 8.979247 C 3.246948 8.96057 3.268677 8.942748 3.291015 8.925902 C 3.313476 8.908935 3.336548 8.893066 3.360351 8.878173 C 3.384155 8.863158 3.408569 8.849364 3.433471 8.836425 C 3.458374 8.823608 3.483887 8.811767 3.509765 8.801024 C 3.535766 8.790282 3.562012 8.780639 3.588867 8.772094 C 3.6156 8.763671 3.642578 8.756225 3.670044 8.749999 L 19.609985 3.060058 C 19.656249 3.038329 19.703857 3.020263 19.752929 3.005859 C 19.802001 2.991454 19.851806 2.980834 19.902465 2.97412 C 19.953124 2.967407 20.004028 2.964477 20.055053 2.965575 C 20.1062 2.966674 20.15686 2.971557 20.207153 2.980346 C 20.257568 2.989135 20.306884 3.00183 20.355224 3.018188 C 20.403686 3.034545 20.450561 3.054565 20.495849 3.078124 C 20.541259 3.101684 20.584472 3.128539 20.625732 3.158813 C 20.666991 3.188964 20.705566 3.222167 20.741698 3.2583 C 20.777831 3.294433 20.811034 3.333007 20.841186 3.374267 C 20.871459 3.415527 20.898315 3.45874 20.921874 3.50415 C 20.945434 3.549438 20.965453 3.596313 20.981811 3.644775 C 20.998168 3.693114 21.010864 3.742431 21.019653 3.792846 C 21.028442 3.843139 21.033324 3.893798 21.034423 3.944946 C 21.035522 3.995971 21.032592 4.046874 21.025878 4.097533 C 21.019164 4.148193 21.008544 4.197997 20.99414 4.24707 C 20.979736 4.296142 20.961669 4.343749 20.939941 4.390014 Z M 10.619995 13.390014 L 13.619995 10.390014 " stroke="#000000" stroke-width="2" stroke-opacity="1" stroke-miterlimit="4"/></svg>