<svg xmlns="http://www.w3.org/2000/svg" xmlns:xlink="http://www.w3.org/1999/xlink" width="1024" zoomAndPan="magnify" viewBox="0 0 768 767.999994" height="1024" preserveAspectRatio="xMidYMid meet" version="1.0"><defs><clipPath id="862c1137a2"><path d="M 31.679688 0 L 736.679688 0 L 736.679688 768 L 31.679688 768 Z M 31.679688 0 " clip-rule="nonzero"/></clipPath></defs><g clip-path="url(#862c1137a2)"><path fill="#2196f3" d="M 732.230469 5.246094 C 731.480469 4.421875 730.652344 3.679688 729.742188 3.023438 C 728.835938 2.371094 727.871094 1.816406 726.847656 1.367188 C 725.824219 0.914062 724.765625 0.574219 723.671875 0.34375 C 722.578125 0.113281 721.472656 0 720.351562 0 L 48.007812 0 C 47.449219 -0.00390625 46.890625 0.0234375 46.332031 0.078125 C 45.777344 0.136719 45.222656 0.21875 44.675781 0.332031 C 44.128906 0.445312 43.585938 0.589844 43.054688 0.757812 C 42.523438 0.929688 42 1.125 41.488281 1.351562 C 40.976562 1.578125 40.476562 1.828125 39.988281 2.105469 C 39.503906 2.382812 39.035156 2.683594 38.578125 3.011719 C 38.125 3.335938 37.691406 3.6875 37.273438 4.058594 C 36.855469 4.429688 36.457031 4.824219 36.082031 5.238281 C 35.703125 5.652344 35.351562 6.082031 35.019531 6.535156 C 34.6875 6.984375 34.382812 7.453125 34.101562 7.933594 C 33.820312 8.417969 33.5625 8.914062 33.332031 9.421875 C 33.101562 9.933594 32.898438 10.453125 32.726562 10.984375 C 32.550781 11.515625 32.402344 12.054688 32.285156 12.601562 C 32.164062 13.148438 32.074219 13.699219 32.015625 14.253906 C 31.953125 14.808594 31.921875 15.367188 31.917969 15.925781 C 31.914062 16.484375 31.941406 17.042969 32 17.601562 L 96.03125 657.601562 C 96.105469 658.363281 96.238281 659.117188 96.421875 659.863281 C 96.605469 660.609375 96.84375 661.335938 97.132812 662.046875 C 97.421875 662.761719 97.757812 663.445312 98.148438 664.109375 C 98.535156 664.773438 98.96875 665.402344 99.449219 666.003906 C 99.925781 666.601562 100.445312 667.167969 101.003906 667.691406 C 101.566406 668.21875 102.160156 668.699219 102.789062 669.140625 C 103.417969 669.578125 104.078125 669.972656 104.761719 670.316406 C 105.449219 670.664062 106.15625 670.957031 106.886719 671.199219 L 395.035156 767.199219 C 396.710938 767.742188 398.425781 768.007812 400.1875 768 C 402.128906 768 404.007812 767.660156 405.824219 766.976562 L 661.953125 670.976562 C 663.359375 670.457031 664.664062 669.753906 665.871094 668.871094 C 667.078125 667.988281 668.140625 666.953125 669.054688 665.769531 C 669.972656 664.589844 670.710938 663.304688 671.265625 661.914062 C 671.820312 660.527344 672.175781 659.089844 672.328125 657.601562 L 736.363281 17.601562 C 736.46875 16.484375 736.460938 15.367188 736.335938 14.253906 C 736.207031 13.136719 735.964844 12.050781 735.609375 10.984375 C 735.253906 9.921875 734.792969 8.90625 734.222656 7.9375 C 733.652344 6.972656 732.988281 6.074219 732.230469 5.246094 Z M 732.230469 5.246094 " fill-opacity="1" fill-rule="nonzero"/></g><path fill="#fafafa" d="M 400.1875 608 C 398.460938 607.996094 396.773438 607.730469 395.128906 607.199219 L 251.054688 559.199219 C 249.71875 558.753906 248.464844 558.144531 247.289062 557.371094 C 246.117188 556.59375 245.0625 555.679688 244.128906 554.625 C 243.195312 553.574219 242.414062 552.417969 241.789062 551.15625 C 241.160156 549.898438 240.707031 548.578125 240.425781 547.199219 L 224.417969 467.199219 C 224.3125 466.6875 224.234375 466.167969 224.179688 465.648438 C 224.125 465.125 224.097656 464.601562 224.09375 464.078125 C 224.089844 463.554688 224.113281 463.03125 224.164062 462.507812 C 224.210938 461.988281 224.285156 461.46875 224.382812 460.953125 C 224.484375 460.441406 224.609375 459.929688 224.757812 459.429688 C 224.910156 458.925781 225.082031 458.433594 225.28125 457.945312 C 225.480469 457.460938 225.699219 456.988281 225.945312 456.523438 C 226.191406 456.058594 226.457031 455.609375 226.746094 455.171875 C 227.035156 454.734375 227.34375 454.3125 227.675781 453.90625 C 228.007812 453.5 228.355469 453.109375 228.726562 452.738281 C 229.09375 452.363281 229.480469 452.011719 229.882812 451.675781 C 230.289062 451.339844 230.707031 451.027344 231.140625 450.734375 C 231.578125 450.441406 232.023438 450.167969 232.484375 449.917969 C 232.945312 449.667969 233.417969 449.445312 233.902344 449.242188 C 234.386719 449.039062 234.878906 448.859375 235.378906 448.703125 C 235.882812 448.550781 236.390625 448.417969 236.902344 448.316406 C 237.417969 448.210938 237.933594 448.128906 238.457031 448.078125 C 238.976562 448.023438 239.5 447.996094 240.027344 447.992188 C 240.550781 447.988281 241.074219 448.011719 241.597656 448.0625 C 242.117188 448.109375 242.636719 448.183594 243.152344 448.285156 C 243.667969 448.382812 244.175781 448.507812 244.679688 448.65625 C 245.179688 448.808594 245.675781 448.980469 246.160156 449.179688 C 246.644531 449.378906 247.121094 449.601562 247.585938 449.84375 C 248.046875 450.089844 248.5 450.355469 248.9375 450.644531 C 249.375 450.933594 249.796875 451.246094 250.203125 451.574219 C 250.609375 451.90625 251 452.257812 251.371094 452.625 C 251.746094 452.992188 252.097656 453.378906 252.433594 453.785156 C 252.769531 454.1875 253.082031 454.605469 253.375 455.042969 C 253.667969 455.476562 253.941406 455.921875 254.191406 456.382812 C 254.4375 456.847656 254.664062 457.316406 254.867188 457.800781 C 255.070312 458.285156 255.25 458.777344 255.40625 459.277344 C 255.558594 459.777344 255.6875 460.285156 255.792969 460.800781 L 269.976562 531.679688 L 399.867188 575.039062 L 514.039062 532.257812 L 573.269531 192 L 208.089844 192 C 207.566406 192 207.042969 191.972656 206.519531 191.921875 C 206 191.871094 205.480469 191.792969 204.964844 191.691406 C 204.453125 191.589844 203.945312 191.464844 203.441406 191.3125 C 202.941406 191.160156 202.449219 190.984375 201.964844 190.78125 C 201.480469 190.582031 201.003906 190.359375 200.542969 190.109375 C 200.082031 189.863281 199.632812 189.59375 199.195312 189.304688 C 198.757812 189.011719 198.339844 188.699219 197.933594 188.367188 C 197.527344 188.035156 197.140625 187.683594 196.769531 187.3125 C 196.398438 186.941406 196.046875 186.554688 195.714844 186.148438 C 195.382812 185.746094 195.070312 185.324219 194.777344 184.890625 C 194.488281 184.453125 194.21875 184.003906 193.972656 183.542969 C 193.722656 183.082031 193.5 182.605469 193.300781 182.121094 C 193.097656 181.640625 192.921875 181.144531 192.769531 180.644531 C 192.617188 180.144531 192.492188 179.636719 192.386719 179.121094 C 192.285156 178.609375 192.210938 178.089844 192.15625 177.566406 C 192.105469 177.046875 192.082031 176.523438 192.082031 176 C 192.082031 175.476562 192.105469 174.953125 192.15625 174.433594 C 192.210938 173.910156 192.285156 173.390625 192.386719 172.878906 C 192.492188 172.363281 192.617188 171.855469 192.769531 171.355469 C 192.921875 170.855469 193.097656 170.359375 193.300781 169.878906 C 193.5 169.394531 193.722656 168.917969 193.972656 168.457031 C 194.21875 167.996094 194.488281 167.546875 194.777344 167.109375 C 195.070312 166.675781 195.382812 166.253906 195.714844 165.851562 C 196.046875 165.445312 196.398438 165.058594 196.769531 164.6875 C 197.140625 164.316406 197.527344 163.964844 197.933594 163.632812 C 198.339844 163.300781 198.757812 162.988281 199.195312 162.695312 C 199.632812 162.40625 200.082031 162.136719 200.542969 161.890625 C 201.003906 161.640625 201.480469 161.417969 201.964844 161.21875 C 202.449219 161.015625 202.941406 160.839844 203.441406 160.6875 C 203.945312 160.535156 204.453125 160.410156 204.964844 160.308594 C 205.480469 160.207031 206 160.128906 206.519531 160.078125 C 207.042969 160.027344 207.566406 160 208.089844 160 L 592.289062 160 C 592.871094 160 593.449219 160.03125 594.03125 160.09375 C 594.609375 160.15625 595.183594 160.25 595.75 160.375 C 596.320312 160.5 596.878906 160.65625 597.429688 160.84375 C 597.984375 161.03125 598.523438 161.246094 599.050781 161.492188 C 599.578125 161.738281 600.09375 162.011719 600.589844 162.3125 C 601.089844 162.613281 601.570312 162.941406 602.03125 163.292969 C 602.496094 163.648438 602.9375 164.027344 603.355469 164.429688 C 603.777344 164.832031 604.175781 165.253906 604.550781 165.699219 C 604.925781 166.144531 605.277344 166.609375 605.601562 167.09375 C 605.925781 167.578125 606.222656 168.078125 606.492188 168.59375 C 606.761719 169.109375 607 169.636719 607.214844 170.179688 C 607.425781 170.722656 607.605469 171.273438 607.757812 171.835938 C 607.910156 172.398438 608.03125 172.964844 608.121094 173.542969 C 608.210938 174.117188 608.265625 174.695312 608.292969 175.277344 C 608.320312 175.859375 608.316406 176.441406 608.277344 177.019531 C 608.238281 177.601562 608.171875 178.179688 608.070312 178.753906 L 544.039062 546.753906 C 543.796875 548.125 543.386719 549.441406 542.800781 550.707031 C 542.214844 551.972656 541.480469 553.140625 540.589844 554.210938 C 539.699219 555.285156 538.6875 556.222656 537.550781 557.03125 C 536.414062 557.839844 535.195312 558.488281 533.890625 558.976562 L 405.824219 606.976562 C 404.007812 607.660156 402.128906 608 400.1875 608 Z M 400.1875 608 " fill-opacity="1" fill-rule="nonzero"/><path fill="#fafafa" d="M 560.269531 352 L 224.097656 352 C 223.574219 352 223.050781 351.972656 222.527344 351.921875 C 222.007812 351.871094 221.488281 351.792969 220.972656 351.691406 C 220.460938 351.589844 219.953125 351.464844 219.449219 351.3125 C 218.949219 351.160156 218.457031 350.984375 217.972656 350.78125 C 217.488281 350.582031 217.011719 350.359375 216.550781 350.109375 C 216.089844 349.863281 215.640625 349.59375 215.203125 349.304688 C 214.769531 349.011719 214.347656 348.699219 213.941406 348.367188 C 213.535156 348.035156 213.148438 347.683594 212.777344 347.3125 C 212.40625 346.941406 212.054688 346.554688 211.722656 346.148438 C 211.390625 345.746094 211.078125 345.324219 210.785156 344.890625 C 210.496094 344.453125 210.226562 344.003906 209.980469 343.542969 C 209.730469 343.082031 209.507812 342.605469 209.308594 342.121094 C 209.105469 341.640625 208.929688 341.144531 208.777344 340.644531 C 208.625 340.144531 208.5 339.636719 208.398438 339.121094 C 208.292969 338.609375 208.21875 338.089844 208.167969 337.566406 C 208.113281 337.046875 208.089844 336.523438 208.089844 336 C 208.089844 335.476562 208.113281 334.953125 208.167969 334.433594 C 208.21875 333.910156 208.292969 333.390625 208.398438 332.878906 C 208.5 332.363281 208.625 331.855469 208.777344 331.355469 C 208.929688 330.855469 209.105469 330.359375 209.308594 329.878906 C 209.507812 329.394531 209.730469 328.917969 209.980469 328.457031 C 210.226562 327.996094 210.496094 327.546875 210.785156 327.109375 C 211.078125 326.675781 211.390625 326.253906 211.722656 325.851562 C 212.054688 325.445312 212.40625 325.058594 212.777344 324.6875 C 213.148438 324.316406 213.535156 323.964844 213.941406 323.632812 C 214.347656 323.300781 214.769531 322.988281 215.203125 322.695312 C 215.640625 322.40625 216.089844 322.136719 216.550781 321.890625 C 217.011719 321.640625 217.488281 321.417969 217.972656 321.21875 C 218.457031 321.015625 218.949219 320.839844 219.449219 320.6875 C 219.953125 320.535156 220.460938 320.410156 220.972656 320.308594 C 221.488281 320.207031 222.007812 320.128906 222.527344 320.078125 C 223.050781 320.027344 223.574219 320 224.097656 320 L 560.269531 320 C 560.796875 320 561.316406 320.027344 561.839844 320.078125 C 562.363281 320.128906 562.878906 320.207031 563.394531 320.308594 C 563.90625 320.410156 564.414062 320.535156 564.917969 320.6875 C 565.417969 320.839844 565.914062 321.015625 566.398438 321.21875 C 566.882812 321.417969 567.355469 321.640625 567.816406 321.890625 C 568.28125 322.136719 568.726562 322.40625 569.164062 322.695312 C 569.601562 322.988281 570.019531 323.300781 570.425781 323.632812 C 570.832031 323.964844 571.21875 324.316406 571.589844 324.6875 C 571.960938 325.058594 572.3125 325.445312 572.644531 325.851562 C 572.976562 326.253906 573.289062 326.675781 573.582031 327.109375 C 573.871094 327.546875 574.140625 327.996094 574.386719 328.457031 C 574.636719 328.917969 574.859375 329.394531 575.058594 329.878906 C 575.261719 330.359375 575.4375 330.855469 575.589844 331.355469 C 575.742188 331.855469 575.867188 332.363281 575.972656 332.878906 C 576.074219 333.390625 576.152344 333.910156 576.203125 334.433594 C 576.253906 334.953125 576.277344 335.476562 576.277344 336 C 576.277344 336.523438 576.253906 337.046875 576.203125 337.566406 C 576.152344 338.089844 576.074219 338.609375 575.972656 339.121094 C 575.867188 339.636719 575.742188 340.144531 575.589844 340.644531 C 575.4375 341.144531 575.261719 341.640625 575.058594 342.121094 C 574.859375 342.605469 574.636719 343.082031 574.386719 343.542969 C 574.140625 344.003906 573.871094 344.453125 573.582031 344.890625 C 573.289062 345.324219 572.976562 345.746094 572.644531 346.148438 C 572.3125 346.554688 571.960938 346.941406 571.589844 347.3125 C 571.21875 347.683594 570.832031 348.035156 570.425781 348.367188 C 570.019531 348.699219 569.601562 349.011719 569.164062 349.304688 C 568.726562 349.59375 568.28125 349.863281 567.816406 350.109375 C 567.355469 350.359375 566.882812 350.582031 566.398438 350.78125 C 565.914062 350.984375 565.417969 351.160156 564.917969 351.3125 C 564.414062 351.464844 563.90625 351.589844 563.394531 351.691406 C 562.878906 351.792969 562.363281 351.871094 561.839844 351.921875 C 561.316406 351.972656 560.796875 352 560.269531 352 Z M 560.269531 352 " fill-opacity="1" fill-rule="nonzero"/></svg>