<?xml version="1.0" encoding="utf-8"?><!-- Uploaded to: SVG Repo, www.svgrepo.com, Generator: SVG Repo Mixer Tools -->
<svg fill="#000000" width="800px" height="800px" viewBox="0 0 24 24" id="date-alt-star" data-name="Flat Color" xmlns="http://www.w3.org/2000/svg" class="icon flat-color"><rect id="secondary" x="2" y="3" width="20" height="17" rx="2" style="fill: rgb(44, 169, 188);"></rect><circle id="primary" cx="12" cy="15" r="7" style="fill: rgb(0, 0, 0);"></circle><path id="primary-2" data-name="primary" d="M20,3H4A2,2,0,0,0,2,5V9H22V5A2,2,0,0,0,20,3Z" style="fill: rgb(0, 0, 0);"></path><path id="secondary-2" data-name="secondary" d="M16,6a1,1,0,0,1-1-1V3a1,1,0,0,1,2,0V5A1,1,0,0,1,16,6ZM9,5V3A1,1,0,0,0,7,3V5A1,1,0,0,0,9,5Zm6.05,9.22a1,1,0,0,0-.8-.68l-.94-.14-.41-.84a1,1,0,0,0-1.8,0l-.41.84-.94.14a1,1,0,0,0-.8.68,1,1,0,0,0,.25,1l.67.65-.16.93a1,1,0,0,0,.4,1,1,1,0,0,0,1.06.07l.83-.43.83.43a1,1,0,0,0,1.46-1.05l-.16-.93.67-.66A1,1,0,0,0,15.05,14.22Z" style="fill: rgb(44, 169, 188);"></path></svg>