<svg xmlns="http://www.w3.org/2000/svg" xmlns:xlink="http://www.w3.org/1999/xlink" width="1024" zoomAndPan="magnify" viewBox="0 0 768 767.999994" height="1024" preserveAspectRatio="xMidYMid meet" version="1.0"><path fill="#0d2e1e" d="M 675.875 193.921875 L 675.875 193.886719 L 551.097656 193.886719 L 551.097656 441.792969 C 551.097656 551.039062 545.429688 592.640625 527.59375 628.511719 C 510.59375 663.585938 483.824219 686.433594 428.71875 712.511719 L 544.597656 768 C 599.703125 740.289062 626.4375 715.007812 646.707031 675.039062 C 668.574219 633.472656 675.875 585.34375 675.875 485.054688 Z M 675.875 193.921875 " fill-opacity="1" fill-rule="nonzero"/><path fill="#0d2e1e" d="M 477.324219 581.3125 L 477.324219 0 L 352.546875 0 L 352.546875 191.488281 C 333.910156 186.59375 318.511719 184.960938 298.273438 184.960938 C 167.796875 184.960938 83.523438 268.128906 83.523438 396.160156 C 83.523438 529.089844 162.929688 598.398438 315.277344 598.398438 C 366.316406 598.433594 413.320312 593.535156 477.324219 581.3125 Z M 210.734375 393.726562 C 210.734375 325.214844 247.171875 286.078125 310.410156 286.078125 L 310.28125 286.078125 C 311.179688 286.015625 312.042969 286.015625 312.90625 286.015625 C 327.089844 286.015625 340.699219 288.414062 352.515625 292.574219 L 352.515625 493.984375 C 334.710938 496.449219 323.34375 497.25 309.578125 497.25 C 245.601562 497.28125 210.734375 460.609375 210.734375 393.726562 Z M 210.734375 393.726562 " fill-opacity="1" fill-rule="nonzero"/><path fill="#0d2e1e" d="M 551.097656 0.671875 L 675.875 0.671875 L 675.875 129.503906 L 551.097656 129.503906 Z M 551.097656 0.671875 " fill-opacity="1" fill-rule="nonzero"/></svg>