<svg xmlns="http://www.w3.org/2000/svg" xmlns:xlink="http://www.w3.org/1999/xlink" width="1024" zoomAndPan="magnify" viewBox="0 0 768 767.999994" height="1024" preserveAspectRatio="xMidYMid meet" version="1.0"><defs><clipPath id="10a3b79102"><path d="M 97 187.046875 L 764 187.046875 L 764 618.296875 L 97 618.296875 Z M 97 187.046875 " clip-rule="nonzero"/></clipPath><clipPath id="8e8889319a"><path d="M 373 199 L 433 199 L 433 259 L 373 259 Z M 373 199 " clip-rule="nonzero"/></clipPath><clipPath id="ecaef22b71"><path d="M 230.734375 193.710938 L 230.734375 330.460938 L 165.300781 330.460938 L 165.300781 398.835938 L 110.511719 398.835938 L 109.898438 404.78125 C 106.480469 442.03125 112.980469 476.390625 127.933594 505.769531 L 132.953125 514.777344 C 135.929688 520.179688 139.496094 525.25 143.179688 530.199219 C 146.863281 535.148438 148.195312 537.878906 150.527344 541.164062 C 190.046875 585.519531 248.96875 606.921875 316.992188 606.921875 C 467.636719 606.921875 595.488281 540.21875 652.082031 390.371094 C 692.207031 394.484375 730.726562 384.199219 748.273438 349.960938 C 720.316406 333.835938 684.390625 339.007812 663.691406 349.40625 L 718.539062 193.699219 L 504.386719 330.449219 L 435.976562 330.449219 L 435.976562 193.699219 Z M 230.734375 193.710938 " clip-rule="nonzero"/></clipPath><clipPath id="9bf691e46d"><path d="M 380 204 L 425 204 L 425 254 L 380 254 Z M 380 204 " clip-rule="nonzero"/></clipPath><clipPath id="c2d6846018"><path d="M 230.734375 193.710938 L 230.734375 330.460938 L 165.300781 330.460938 L 165.300781 398.835938 L 110.511719 398.835938 L 109.898438 404.78125 C 106.480469 442.03125 112.980469 476.390625 127.933594 505.769531 L 132.953125 514.777344 C 135.929688 520.179688 139.496094 525.25 143.179688 530.199219 C 146.863281 535.148438 148.195312 537.878906 150.527344 541.164062 C 190.046875 585.519531 248.96875 606.921875 316.992188 606.921875 C 467.636719 606.921875 595.488281 540.21875 652.082031 390.371094 C 692.207031 394.484375 730.726562 384.199219 748.273438 349.960938 C 720.316406 333.835938 684.390625 339.007812 663.691406 349.40625 L 718.539062 193.699219 L 504.386719 330.449219 L 435.976562 330.449219 L 435.976562 193.699219 Z M 230.734375 193.710938 " clip-rule="nonzero"/></clipPath><clipPath id="e0de65ed62"><path d="M 377 201 L 428 201 L 428 256 L 377 256 Z M 377 201 " clip-rule="nonzero"/></clipPath><clipPath id="97398ce300"><path d="M 230.734375 193.710938 L 230.734375 330.460938 L 165.300781 330.460938 L 165.300781 398.835938 L 110.511719 398.835938 L 109.898438 404.78125 C 106.480469 442.03125 112.980469 476.390625 127.933594 505.769531 L 132.953125 514.777344 C 135.929688 520.179688 139.496094 525.25 143.179688 530.199219 C 146.863281 535.148438 148.195312 537.878906 150.527344 541.164062 C 190.046875 585.519531 248.96875 606.921875 316.992188 606.921875 C 467.636719 606.921875 595.488281 540.21875 652.082031 390.371094 C 692.207031 394.484375 730.726562 384.199219 748.273438 349.960938 C 720.316406 333.835938 684.390625 339.007812 663.691406 349.40625 L 718.539062 193.699219 L 504.386719 330.449219 L 435.976562 330.449219 L 435.976562 193.699219 Z M 230.734375 193.710938 " clip-rule="nonzero"/></clipPath><clipPath id="06399e8d32"><path d="M 441 199 L 501 199 L 501 259 L 441 259 Z M 441 199 " clip-rule="nonzero"/></clipPath><clipPath id="962b261a9f"><path d="M 230.734375 193.710938 L 230.734375 330.460938 L 165.300781 330.460938 L 165.300781 398.835938 L 110.511719 398.835938 L 109.898438 404.78125 C 106.480469 442.03125 112.980469 476.390625 127.933594 505.769531 L 132.953125 514.777344 C 135.929688 520.179688 139.496094 525.25 143.179688 530.199219 C 146.863281 535.148438 148.195312 537.878906 150.527344 541.164062 C 190.046875 585.519531 248.96875 606.921875 316.992188 606.921875 C 467.636719 606.921875 595.488281 540.21875 652.082031 390.371094 C 692.207031 394.484375 730.726562 384.199219 748.273438 349.960938 C 720.316406 333.835938 684.390625 339.007812 663.691406 349.40625 L 718.539062 193.699219 L 504.386719 330.449219 L 435.976562 330.449219 L 435.976562 193.699219 Z M 230.734375 193.710938 " clip-rule="nonzero"/></clipPath><clipPath id="78851671aa"><path d="M 448 204 L 493 204 L 493 254 L 448 254 Z M 448 204 " clip-rule="nonzero"/></clipPath><clipPath id="5adfe8aeeb"><path d="M 230.734375 193.710938 L 230.734375 330.460938 L 165.300781 330.460938 L 165.300781 398.835938 L 110.511719 398.835938 L 109.898438 404.78125 C 106.480469 442.03125 112.980469 476.390625 127.933594 505.769531 L 132.953125 514.777344 C 135.929688 520.179688 139.496094 525.25 143.179688 530.199219 C 146.863281 535.148438 148.195312 537.878906 150.527344 541.164062 C 190.046875 585.519531 248.96875 606.921875 316.992188 606.921875 C 467.636719 606.921875 595.488281 540.21875 652.082031 390.371094 C 692.207031 394.484375 730.726562 384.199219 748.273438 349.960938 C 720.316406 333.835938 684.390625 339.007812 663.691406 349.40625 L 718.539062 193.699219 L 504.386719 330.449219 L 435.976562 330.449219 L 435.976562 193.699219 Z M 230.734375 193.710938 " clip-rule="nonzero"/></clipPath><clipPath id="a62c2bb983"><path d="M 446 201 L 496 201 L 496 256 L 446 256 Z M 446 201 " clip-rule="nonzero"/></clipPath><clipPath id="b6701d92ac"><path d="M 230.734375 193.710938 L 230.734375 330.460938 L 165.300781 330.460938 L 165.300781 398.835938 L 110.511719 398.835938 L 109.898438 404.78125 C 106.480469 442.03125 112.980469 476.390625 127.933594 505.769531 L 132.953125 514.777344 C 135.929688 520.179688 139.496094 525.25 143.179688 530.199219 C 146.863281 535.148438 148.195312 537.878906 150.527344 541.164062 C 190.046875 585.519531 248.96875 606.921875 316.992188 606.921875 C 467.636719 606.921875 595.488281 540.21875 652.082031 390.371094 C 692.207031 394.484375 730.726562 384.199219 748.273438 349.960938 C 720.316406 333.835938 684.390625 339.007812 663.691406 349.40625 L 718.539062 193.699219 L 504.386719 330.449219 L 435.976562 330.449219 L 435.976562 193.699219 Z M 230.734375 193.710938 " clip-rule="nonzero"/></clipPath><clipPath id="7422827731"><path d="M 109 267 L 160 267 L 160 326 L 109 326 Z M 109 267 " clip-rule="nonzero"/></clipPath><clipPath id="24b95cbdf8"><path d="M 230.734375 193.710938 L 230.734375 330.460938 L 165.300781 330.460938 L 165.300781 398.835938 L 110.511719 398.835938 L 109.898438 404.78125 C 106.480469 442.03125 112.980469 476.390625 127.933594 505.769531 L 132.953125 514.777344 C 135.929688 520.179688 139.496094 525.25 143.179688 530.199219 C 146.863281 535.148438 148.195312 537.878906 150.527344 541.164062 C 190.046875 585.519531 248.96875 606.921875 316.992188 606.921875 C 467.636719 606.921875 595.488281 540.21875 652.082031 390.371094 C 692.207031 394.484375 730.726562 384.199219 748.273438 349.960938 C 720.316406 333.835938 684.390625 339.007812 663.691406 349.40625 L 718.539062 193.699219 L 504.386719 330.449219 L 435.976562 330.449219 L 435.976562 193.699219 Z M 230.734375 193.710938 " clip-rule="nonzero"/></clipPath><clipPath id="fdfdb25774"><path d="M 109 335 L 160 335 L 160 394 L 109 394 Z M 109 335 " clip-rule="nonzero"/></clipPath><clipPath id="372f75aa04"><path d="M 230.734375 193.710938 L 230.734375 330.460938 L 165.300781 330.460938 L 165.300781 398.835938 L 110.511719 398.835938 L 109.898438 404.78125 C 106.480469 442.03125 112.980469 476.390625 127.933594 505.769531 L 132.953125 514.777344 C 135.929688 520.179688 139.496094 525.25 143.179688 530.199219 C 146.863281 535.148438 148.195312 537.878906 150.527344 541.164062 C 190.046875 585.519531 248.96875 606.921875 316.992188 606.921875 C 467.636719 606.921875 595.488281 540.21875 652.082031 390.371094 C 692.207031 394.484375 730.726562 384.199219 748.273438 349.960938 C 720.316406 333.835938 684.390625 339.007812 663.691406 349.40625 L 718.539062 193.699219 L 504.386719 330.449219 L 435.976562 330.449219 L 435.976562 193.699219 Z M 230.734375 193.710938 " clip-rule="nonzero"/></clipPath><clipPath id="4616b498c3"><path d="M 109 271 L 153 271 L 153 322 L 109 322 Z M 109 271 " clip-rule="nonzero"/></clipPath><clipPath id="febd6122a7"><path d="M 230.734375 193.710938 L 230.734375 330.460938 L 165.300781 330.460938 L 165.300781 398.835938 L 110.511719 398.835938 L 109.898438 404.78125 C 106.480469 442.03125 112.980469 476.390625 127.933594 505.769531 L 132.953125 514.777344 C 135.929688 520.179688 139.496094 525.25 143.179688 530.199219 C 146.863281 535.148438 148.195312 537.878906 150.527344 541.164062 C 190.046875 585.519531 248.96875 606.921875 316.992188 606.921875 C 467.636719 606.921875 595.488281 540.21875 652.082031 390.371094 C 692.207031 394.484375 730.726562 384.199219 748.273438 349.960938 C 720.316406 333.835938 684.390625 339.007812 663.691406 349.40625 L 718.539062 193.699219 L 504.386719 330.449219 L 435.976562 330.449219 L 435.976562 193.699219 Z M 230.734375 193.710938 " clip-rule="nonzero"/></clipPath><clipPath id="0eab6259ca"><path d="M 109 269 L 156 269 L 156 324 L 109 324 Z M 109 269 " clip-rule="nonzero"/></clipPath><clipPath id="7a2079aee5"><path d="M 230.734375 193.710938 L 230.734375 330.460938 L 165.300781 330.460938 L 165.300781 398.835938 L 110.511719 398.835938 L 109.898438 404.78125 C 106.480469 442.03125 112.980469 476.390625 127.933594 505.769531 L 132.953125 514.777344 C 135.929688 520.179688 139.496094 525.25 143.179688 530.199219 C 146.863281 535.148438 148.195312 537.878906 150.527344 541.164062 C 190.046875 585.519531 248.96875 606.921875 316.992188 606.921875 C 467.636719 606.921875 595.488281 540.21875 652.082031 390.371094 C 692.207031 394.484375 730.726562 384.199219 748.273438 349.960938 C 720.316406 333.835938 684.390625 339.007812 663.691406 349.40625 L 718.539062 193.699219 L 504.386719 330.449219 L 435.976562 330.449219 L 435.976562 193.699219 Z M 230.734375 193.710938 " clip-rule="nonzero"/></clipPath><clipPath id="b7542903a2"><path d="M 109 339 L 153 339 L 153 390 L 109 390 Z M 109 339 " clip-rule="nonzero"/></clipPath><clipPath id="a1eb9e9aad"><path d="M 230.734375 193.710938 L 230.734375 330.460938 L 165.300781 330.460938 L 165.300781 398.835938 L 110.511719 398.835938 L 109.898438 404.78125 C 106.480469 442.03125 112.980469 476.390625 127.933594 505.769531 L 132.953125 514.777344 C 135.929688 520.179688 139.496094 525.25 143.179688 530.199219 C 146.863281 535.148438 148.195312 537.878906 150.527344 541.164062 C 190.046875 585.519531 248.96875 606.921875 316.992188 606.921875 C 467.636719 606.921875 595.488281 540.21875 652.082031 390.371094 C 692.207031 394.484375 730.726562 384.199219 748.273438 349.960938 C 720.316406 333.835938 684.390625 339.007812 663.691406 349.40625 L 718.539062 193.699219 L 504.386719 330.449219 L 435.976562 330.449219 L 435.976562 193.699219 Z M 230.734375 193.710938 " clip-rule="nonzero"/></clipPath><clipPath id="848724b46c"><path d="M 109 337 L 156 337 L 156 392 L 109 392 Z M 109 337 " clip-rule="nonzero"/></clipPath><clipPath id="706e57dc2b"><path d="M 230.734375 193.710938 L 230.734375 330.460938 L 165.300781 330.460938 L 165.300781 398.835938 L 110.511719 398.835938 L 109.898438 404.78125 C 106.480469 442.03125 112.980469 476.390625 127.933594 505.769531 L 132.953125 514.777344 C 135.929688 520.179688 139.496094 525.25 143.179688 530.199219 C 146.863281 535.148438 148.195312 537.878906 150.527344 541.164062 C 190.046875 585.519531 248.96875 606.921875 316.992188 606.921875 C 467.636719 606.921875 595.488281 540.21875 652.082031 390.371094 C 692.207031 394.484375 730.726562 384.199219 748.273438 349.960938 C 720.316406 333.835938 684.390625 339.007812 663.691406 349.40625 L 718.539062 193.699219 L 504.386719 330.449219 L 435.976562 330.449219 L 435.976562 193.699219 Z M 230.734375 193.710938 " clip-rule="nonzero"/></clipPath><clipPath id="0268853c59"><path d="M 169 335 L 228 335 L 228 394 L 169 394 Z M 169 335 " clip-rule="nonzero"/></clipPath><clipPath id="acb6ba248b"><path d="M 230.734375 193.710938 L 230.734375 330.460938 L 165.300781 330.460938 L 165.300781 398.835938 L 110.511719 398.835938 L 109.898438 404.78125 C 106.480469 442.03125 112.980469 476.390625 127.933594 505.769531 L 132.953125 514.777344 C 135.929688 520.179688 139.496094 525.25 143.179688 530.199219 C 146.863281 535.148438 148.195312 537.878906 150.527344 541.164062 C 190.046875 585.519531 248.96875 606.921875 316.992188 606.921875 C 467.636719 606.921875 595.488281 540.21875 652.082031 390.371094 C 692.207031 394.484375 730.726562 384.199219 748.273438 349.960938 C 720.316406 333.835938 684.390625 339.007812 663.691406 349.40625 L 718.539062 193.699219 L 504.386719 330.449219 L 435.976562 330.449219 L 435.976562 193.699219 Z M 230.734375 193.710938 " clip-rule="nonzero"/></clipPath><clipPath id="f00617a7c7"><path d="M 169 267 L 228 267 L 228 326 L 169 326 Z M 169 267 " clip-rule="nonzero"/></clipPath><clipPath id="262f6b8fbe"><path d="M 230.734375 193.710938 L 230.734375 330.460938 L 165.300781 330.460938 L 165.300781 398.835938 L 110.511719 398.835938 L 109.898438 404.78125 C 106.480469 442.03125 112.980469 476.390625 127.933594 505.769531 L 132.953125 514.777344 C 135.929688 520.179688 139.496094 525.25 143.179688 530.199219 C 146.863281 535.148438 148.195312 537.878906 150.527344 541.164062 C 190.046875 585.519531 248.96875 606.921875 316.992188 606.921875 C 467.636719 606.921875 595.488281 540.21875 652.082031 390.371094 C 692.207031 394.484375 730.726562 384.199219 748.273438 349.960938 C 720.316406 333.835938 684.390625 339.007812 663.691406 349.40625 L 718.539062 193.699219 L 504.386719 330.449219 L 435.976562 330.449219 L 435.976562 193.699219 Z M 230.734375 193.710938 " clip-rule="nonzero"/></clipPath><clipPath id="baff7c073f"><path d="M 176 339 L 221 339 L 221 390 L 176 390 Z M 176 339 " clip-rule="nonzero"/></clipPath><clipPath id="74b902eac7"><path d="M 230.734375 193.710938 L 230.734375 330.460938 L 165.300781 330.460938 L 165.300781 398.835938 L 110.511719 398.835938 L 109.898438 404.78125 C 106.480469 442.03125 112.980469 476.390625 127.933594 505.769531 L 132.953125 514.777344 C 135.929688 520.179688 139.496094 525.25 143.179688 530.199219 C 146.863281 535.148438 148.195312 537.878906 150.527344 541.164062 C 190.046875 585.519531 248.96875 606.921875 316.992188 606.921875 C 467.636719 606.921875 595.488281 540.21875 652.082031 390.371094 C 692.207031 394.484375 730.726562 384.199219 748.273438 349.960938 C 720.316406 333.835938 684.390625 339.007812 663.691406 349.40625 L 718.539062 193.699219 L 504.386719 330.449219 L 435.976562 330.449219 L 435.976562 193.699219 Z M 230.734375 193.710938 " clip-rule="nonzero"/></clipPath><clipPath id="4c927b8cc2"><path d="M 173 337 L 224 337 L 224 392 L 173 392 Z M 173 337 " clip-rule="nonzero"/></clipPath><clipPath id="c436e6df91"><path d="M 230.734375 193.710938 L 230.734375 330.460938 L 165.300781 330.460938 L 165.300781 398.835938 L 110.511719 398.835938 L 109.898438 404.78125 C 106.480469 442.03125 112.980469 476.390625 127.933594 505.769531 L 132.953125 514.777344 C 135.929688 520.179688 139.496094 525.25 143.179688 530.199219 C 146.863281 535.148438 148.195312 537.878906 150.527344 541.164062 C 190.046875 585.519531 248.96875 606.921875 316.992188 606.921875 C 467.636719 606.921875 595.488281 540.21875 652.082031 390.371094 C 692.207031 394.484375 730.726562 384.199219 748.273438 349.960938 C 720.316406 333.835938 684.390625 339.007812 663.691406 349.40625 L 718.539062 193.699219 L 504.386719 330.449219 L 435.976562 330.449219 L 435.976562 193.699219 Z M 230.734375 193.710938 " clip-rule="nonzero"/></clipPath><clipPath id="26b3767695"><path d="M 176 271 L 221 271 L 221 322 L 176 322 Z M 176 271 " clip-rule="nonzero"/></clipPath><clipPath id="705783a3c8"><path d="M 230.734375 193.710938 L 230.734375 330.460938 L 165.300781 330.460938 L 165.300781 398.835938 L 110.511719 398.835938 L 109.898438 404.78125 C 106.480469 442.03125 112.980469 476.390625 127.933594 505.769531 L 132.953125 514.777344 C 135.929688 520.179688 139.496094 525.25 143.179688 530.199219 C 146.863281 535.148438 148.195312 537.878906 150.527344 541.164062 C 190.046875 585.519531 248.96875 606.921875 316.992188 606.921875 C 467.636719 606.921875 595.488281 540.21875 652.082031 390.371094 C 692.207031 394.484375 730.726562 384.199219 748.273438 349.960938 C 720.316406 333.835938 684.390625 339.007812 663.691406 349.40625 L 718.539062 193.699219 L 504.386719 330.449219 L 435.976562 330.449219 L 435.976562 193.699219 Z M 230.734375 193.710938 " clip-rule="nonzero"/></clipPath><clipPath id="a30a4a0b04"><path d="M 173 269 L 224 269 L 224 324 L 173 324 Z M 173 269 " clip-rule="nonzero"/></clipPath><clipPath id="7aa91462f3"><path d="M 230.734375 193.710938 L 230.734375 330.460938 L 165.300781 330.460938 L 165.300781 398.835938 L 110.511719 398.835938 L 109.898438 404.78125 C 106.480469 442.03125 112.980469 476.390625 127.933594 505.769531 L 132.953125 514.777344 C 135.929688 520.179688 139.496094 525.25 143.179688 530.199219 C 146.863281 535.148438 148.195312 537.878906 150.527344 541.164062 C 190.046875 585.519531 248.96875 606.921875 316.992188 606.921875 C 467.636719 606.921875 595.488281 540.21875 652.082031 390.371094 C 692.207031 394.484375 730.726562 384.199219 748.273438 349.960938 C 720.316406 333.835938 684.390625 339.007812 663.691406 349.40625 L 718.539062 193.699219 L 504.386719 330.449219 L 435.976562 330.449219 L 435.976562 193.699219 Z M 230.734375 193.710938 " clip-rule="nonzero"/></clipPath><clipPath id="acc260e414"><path d="M 237 267 L 297 267 L 297 326 L 237 326 Z M 237 267 " clip-rule="nonzero"/></clipPath><clipPath id="da1f4ce6d6"><path d="M 230.734375 193.710938 L 230.734375 330.460938 L 165.300781 330.460938 L 165.300781 398.835938 L 110.511719 398.835938 L 109.898438 404.78125 C 106.480469 442.03125 112.980469 476.390625 127.933594 505.769531 L 132.953125 514.777344 C 135.929688 520.179688 139.496094 525.25 143.179688 530.199219 C 146.863281 535.148438 148.195312 537.878906 150.527344 541.164062 C 190.046875 585.519531 248.96875 606.921875 316.992188 606.921875 C 467.636719 606.921875 595.488281 540.21875 652.082031 390.371094 C 692.207031 394.484375 730.726562 384.199219 748.273438 349.960938 C 720.316406 333.835938 684.390625 339.007812 663.691406 349.40625 L 718.539062 193.699219 L 504.386719 330.449219 L 435.976562 330.449219 L 435.976562 193.699219 Z M 230.734375 193.710938 " clip-rule="nonzero"/></clipPath><clipPath id="d7ae338fd7"><path d="M 237 335 L 297 335 L 297 394 L 237 394 Z M 237 335 " clip-rule="nonzero"/></clipPath><clipPath id="fc3228815f"><path d="M 230.734375 193.710938 L 230.734375 330.460938 L 165.300781 330.460938 L 165.300781 398.835938 L 110.511719 398.835938 L 109.898438 404.78125 C 106.480469 442.03125 112.980469 476.390625 127.933594 505.769531 L 132.953125 514.777344 C 135.929688 520.179688 139.496094 525.25 143.179688 530.199219 C 146.863281 535.148438 148.195312 537.878906 150.527344 541.164062 C 190.046875 585.519531 248.96875 606.921875 316.992188 606.921875 C 467.636719 606.921875 595.488281 540.21875 652.082031 390.371094 C 692.207031 394.484375 730.726562 384.199219 748.273438 349.960938 C 720.316406 333.835938 684.390625 339.007812 663.691406 349.40625 L 718.539062 193.699219 L 504.386719 330.449219 L 435.976562 330.449219 L 435.976562 193.699219 Z M 230.734375 193.710938 " clip-rule="nonzero"/></clipPath><clipPath id="e194c2694b"><path d="M 244 271 L 289 271 L 289 322 L 244 322 Z M 244 271 " clip-rule="nonzero"/></clipPath><clipPath id="f2f4921351"><path d="M 230.734375 193.710938 L 230.734375 330.460938 L 165.300781 330.460938 L 165.300781 398.835938 L 110.511719 398.835938 L 109.898438 404.78125 C 106.480469 442.03125 112.980469 476.390625 127.933594 505.769531 L 132.953125 514.777344 C 135.929688 520.179688 139.496094 525.25 143.179688 530.199219 C 146.863281 535.148438 148.195312 537.878906 150.527344 541.164062 C 190.046875 585.519531 248.96875 606.921875 316.992188 606.921875 C 467.636719 606.921875 595.488281 540.21875 652.082031 390.371094 C 692.207031 394.484375 730.726562 384.199219 748.273438 349.960938 C 720.316406 333.835938 684.390625 339.007812 663.691406 349.40625 L 718.539062 193.699219 L 504.386719 330.449219 L 435.976562 330.449219 L 435.976562 193.699219 Z M 230.734375 193.710938 " clip-rule="nonzero"/></clipPath><clipPath id="80ec755395"><path d="M 241 269 L 292 269 L 292 324 L 241 324 Z M 241 269 " clip-rule="nonzero"/></clipPath><clipPath id="3902d50ad0"><path d="M 230.734375 193.710938 L 230.734375 330.460938 L 165.300781 330.460938 L 165.300781 398.835938 L 110.511719 398.835938 L 109.898438 404.78125 C 106.480469 442.03125 112.980469 476.390625 127.933594 505.769531 L 132.953125 514.777344 C 135.929688 520.179688 139.496094 525.25 143.179688 530.199219 C 146.863281 535.148438 148.195312 537.878906 150.527344 541.164062 C 190.046875 585.519531 248.96875 606.921875 316.992188 606.921875 C 467.636719 606.921875 595.488281 540.21875 652.082031 390.371094 C 692.207031 394.484375 730.726562 384.199219 748.273438 349.960938 C 720.316406 333.835938 684.390625 339.007812 663.691406 349.40625 L 718.539062 193.699219 L 504.386719 330.449219 L 435.976562 330.449219 L 435.976562 193.699219 Z M 230.734375 193.710938 " clip-rule="nonzero"/></clipPath><clipPath id="12deabb885"><path d="M 244 339 L 289 339 L 289 390 L 244 390 Z M 244 339 " clip-rule="nonzero"/></clipPath><clipPath id="5fe100cc22"><path d="M 230.734375 193.710938 L 230.734375 330.460938 L 165.300781 330.460938 L 165.300781 398.835938 L 110.511719 398.835938 L 109.898438 404.78125 C 106.480469 442.03125 112.980469 476.390625 127.933594 505.769531 L 132.953125 514.777344 C 135.929688 520.179688 139.496094 525.25 143.179688 530.199219 C 146.863281 535.148438 148.195312 537.878906 150.527344 541.164062 C 190.046875 585.519531 248.96875 606.921875 316.992188 606.921875 C 467.636719 606.921875 595.488281 540.21875 652.082031 390.371094 C 692.207031 394.484375 730.726562 384.199219 748.273438 349.960938 C 720.316406 333.835938 684.390625 339.007812 663.691406 349.40625 L 718.539062 193.699219 L 504.386719 330.449219 L 435.976562 330.449219 L 435.976562 193.699219 Z M 230.734375 193.710938 " clip-rule="nonzero"/></clipPath><clipPath id="24cd03513b"><path d="M 241 337 L 292 337 L 292 392 L 241 392 Z M 241 337 " clip-rule="nonzero"/></clipPath><clipPath id="3f4cf6ac2b"><path d="M 230.734375 193.710938 L 230.734375 330.460938 L 165.300781 330.460938 L 165.300781 398.835938 L 110.511719 398.835938 L 109.898438 404.78125 C 106.480469 442.03125 112.980469 476.390625 127.933594 505.769531 L 132.953125 514.777344 C 135.929688 520.179688 139.496094 525.25 143.179688 530.199219 C 146.863281 535.148438 148.195312 537.878906 150.527344 541.164062 C 190.046875 585.519531 248.96875 606.921875 316.992188 606.921875 C 467.636719 606.921875 595.488281 540.21875 652.082031 390.371094 C 692.207031 394.484375 730.726562 384.199219 748.273438 349.960938 C 720.316406 333.835938 684.390625 339.007812 663.691406 349.40625 L 718.539062 193.699219 L 504.386719 330.449219 L 435.976562 330.449219 L 435.976562 193.699219 Z M 230.734375 193.710938 " clip-rule="nonzero"/></clipPath><clipPath id="27165decfb"><path d="M 305 335 L 365 335 L 365 394 L 305 394 Z M 305 335 " clip-rule="nonzero"/></clipPath><clipPath id="385e27a67f"><path d="M 230.734375 193.710938 L 230.734375 330.460938 L 165.300781 330.460938 L 165.300781 398.835938 L 110.511719 398.835938 L 109.898438 404.78125 C 106.480469 442.03125 112.980469 476.390625 127.933594 505.769531 L 132.953125 514.777344 C 135.929688 520.179688 139.496094 525.25 143.179688 530.199219 C 146.863281 535.148438 148.195312 537.878906 150.527344 541.164062 C 190.046875 585.519531 248.96875 606.921875 316.992188 606.921875 C 467.636719 606.921875 595.488281 540.21875 652.082031 390.371094 C 692.207031 394.484375 730.726562 384.199219 748.273438 349.960938 C 720.316406 333.835938 684.390625 339.007812 663.691406 349.40625 L 718.539062 193.699219 L 504.386719 330.449219 L 435.976562 330.449219 L 435.976562 193.699219 Z M 230.734375 193.710938 " clip-rule="nonzero"/></clipPath><clipPath id="a6c50a14df"><path d="M 305 267 L 365 267 L 365 326 L 305 326 Z M 305 267 " clip-rule="nonzero"/></clipPath><clipPath id="f69ba50354"><path d="M 230.734375 193.710938 L 230.734375 330.460938 L 165.300781 330.460938 L 165.300781 398.835938 L 110.511719 398.835938 L 109.898438 404.78125 C 106.480469 442.03125 112.980469 476.390625 127.933594 505.769531 L 132.953125 514.777344 C 135.929688 520.179688 139.496094 525.25 143.179688 530.199219 C 146.863281 535.148438 148.195312 537.878906 150.527344 541.164062 C 190.046875 585.519531 248.96875 606.921875 316.992188 606.921875 C 467.636719 606.921875 595.488281 540.21875 652.082031 390.371094 C 692.207031 394.484375 730.726562 384.199219 748.273438 349.960938 C 720.316406 333.835938 684.390625 339.007812 663.691406 349.40625 L 718.539062 193.699219 L 504.386719 330.449219 L 435.976562 330.449219 L 435.976562 193.699219 Z M 230.734375 193.710938 " clip-rule="nonzero"/></clipPath><clipPath id="5422047225"><path d="M 312 339 L 357 339 L 357 390 L 312 390 Z M 312 339 " clip-rule="nonzero"/></clipPath><clipPath id="50a60d4fe7"><path d="M 230.734375 193.710938 L 230.734375 330.460938 L 165.300781 330.460938 L 165.300781 398.835938 L 110.511719 398.835938 L 109.898438 404.78125 C 106.480469 442.03125 112.980469 476.390625 127.933594 505.769531 L 132.953125 514.777344 C 135.929688 520.179688 139.496094 525.25 143.179688 530.199219 C 146.863281 535.148438 148.195312 537.878906 150.527344 541.164062 C 190.046875 585.519531 248.96875 606.921875 316.992188 606.921875 C 467.636719 606.921875 595.488281 540.21875 652.082031 390.371094 C 692.207031 394.484375 730.726562 384.199219 748.273438 349.960938 C 720.316406 333.835938 684.390625 339.007812 663.691406 349.40625 L 718.539062 193.699219 L 504.386719 330.449219 L 435.976562 330.449219 L 435.976562 193.699219 Z M 230.734375 193.710938 " clip-rule="nonzero"/></clipPath><clipPath id="af8679a494"><path d="M 309 337 L 360 337 L 360 392 L 309 392 Z M 309 337 " clip-rule="nonzero"/></clipPath><clipPath id="c6bffdc5c1"><path d="M 230.734375 193.710938 L 230.734375 330.460938 L 165.300781 330.460938 L 165.300781 398.835938 L 110.511719 398.835938 L 109.898438 404.78125 C 106.480469 442.03125 112.980469 476.390625 127.933594 505.769531 L 132.953125 514.777344 C 135.929688 520.179688 139.496094 525.25 143.179688 530.199219 C 146.863281 535.148438 148.195312 537.878906 150.527344 541.164062 C 190.046875 585.519531 248.96875 606.921875 316.992188 606.921875 C 467.636719 606.921875 595.488281 540.21875 652.082031 390.371094 C 692.207031 394.484375 730.726562 384.199219 748.273438 349.960938 C 720.316406 333.835938 684.390625 339.007812 663.691406 349.40625 L 718.539062 193.699219 L 504.386719 330.449219 L 435.976562 330.449219 L 435.976562 193.699219 Z M 230.734375 193.710938 " clip-rule="nonzero"/></clipPath><clipPath id="81131f0b3e"><path d="M 312 271 L 357 271 L 357 322 L 312 322 Z M 312 271 " clip-rule="nonzero"/></clipPath><clipPath id="55584abb88"><path d="M 230.734375 193.710938 L 230.734375 330.460938 L 165.300781 330.460938 L 165.300781 398.835938 L 110.511719 398.835938 L 109.898438 404.78125 C 106.480469 442.03125 112.980469 476.390625 127.933594 505.769531 L 132.953125 514.777344 C 135.929688 520.179688 139.496094 525.25 143.179688 530.199219 C 146.863281 535.148438 148.195312 537.878906 150.527344 541.164062 C 190.046875 585.519531 248.96875 606.921875 316.992188 606.921875 C 467.636719 606.921875 595.488281 540.21875 652.082031 390.371094 C 692.207031 394.484375 730.726562 384.199219 748.273438 349.960938 C 720.316406 333.835938 684.390625 339.007812 663.691406 349.40625 L 718.539062 193.699219 L 504.386719 330.449219 L 435.976562 330.449219 L 435.976562 193.699219 Z M 230.734375 193.710938 " clip-rule="nonzero"/></clipPath><clipPath id="dd48c91ba1"><path d="M 309 269 L 360 269 L 360 324 L 309 324 Z M 309 269 " clip-rule="nonzero"/></clipPath><clipPath id="aded4e6756"><path d="M 230.734375 193.710938 L 230.734375 330.460938 L 165.300781 330.460938 L 165.300781 398.835938 L 110.511719 398.835938 L 109.898438 404.78125 C 106.480469 442.03125 112.980469 476.390625 127.933594 505.769531 L 132.953125 514.777344 C 135.929688 520.179688 139.496094 525.25 143.179688 530.199219 C 146.863281 535.148438 148.195312 537.878906 150.527344 541.164062 C 190.046875 585.519531 248.96875 606.921875 316.992188 606.921875 C 467.636719 606.921875 595.488281 540.21875 652.082031 390.371094 C 692.207031 394.484375 730.726562 384.199219 748.273438 349.960938 C 720.316406 333.835938 684.390625 339.007812 663.691406 349.40625 L 718.539062 193.699219 L 504.386719 330.449219 L 435.976562 330.449219 L 435.976562 193.699219 Z M 230.734375 193.710938 " clip-rule="nonzero"/></clipPath><clipPath id="8efd03ec7b"><path d="M 373 267 L 433 267 L 433 326 L 373 326 Z M 373 267 " clip-rule="nonzero"/></clipPath><clipPath id="d2c80e1234"><path d="M 230.734375 193.710938 L 230.734375 330.460938 L 165.300781 330.460938 L 165.300781 398.835938 L 110.511719 398.835938 L 109.898438 404.78125 C 106.480469 442.03125 112.980469 476.390625 127.933594 505.769531 L 132.953125 514.777344 C 135.929688 520.179688 139.496094 525.25 143.179688 530.199219 C 146.863281 535.148438 148.195312 537.878906 150.527344 541.164062 C 190.046875 585.519531 248.96875 606.921875 316.992188 606.921875 C 467.636719 606.921875 595.488281 540.21875 652.082031 390.371094 C 692.207031 394.484375 730.726562 384.199219 748.273438 349.960938 C 720.316406 333.835938 684.390625 339.007812 663.691406 349.40625 L 718.539062 193.699219 L 504.386719 330.449219 L 435.976562 330.449219 L 435.976562 193.699219 Z M 230.734375 193.710938 " clip-rule="nonzero"/></clipPath><clipPath id="11a4f8642e"><path d="M 373 335 L 433 335 L 433 394 L 373 394 Z M 373 335 " clip-rule="nonzero"/></clipPath><clipPath id="adda6c4a1f"><path d="M 230.734375 193.710938 L 230.734375 330.460938 L 165.300781 330.460938 L 165.300781 398.835938 L 110.511719 398.835938 L 109.898438 404.78125 C 106.480469 442.03125 112.980469 476.390625 127.933594 505.769531 L 132.953125 514.777344 C 135.929688 520.179688 139.496094 525.25 143.179688 530.199219 C 146.863281 535.148438 148.195312 537.878906 150.527344 541.164062 C 190.046875 585.519531 248.96875 606.921875 316.992188 606.921875 C 467.636719 606.921875 595.488281 540.21875 652.082031 390.371094 C 692.207031 394.484375 730.726562 384.199219 748.273438 349.960938 C 720.316406 333.835938 684.390625 339.007812 663.691406 349.40625 L 718.539062 193.699219 L 504.386719 330.449219 L 435.976562 330.449219 L 435.976562 193.699219 Z M 230.734375 193.710938 " clip-rule="nonzero"/></clipPath><clipPath id="06399b97c7"><path d="M 380 271 L 425 271 L 425 322 L 380 322 Z M 380 271 " clip-rule="nonzero"/></clipPath><clipPath id="47ed7b1cff"><path d="M 230.734375 193.710938 L 230.734375 330.460938 L 165.300781 330.460938 L 165.300781 398.835938 L 110.511719 398.835938 L 109.898438 404.78125 C 106.480469 442.03125 112.980469 476.390625 127.933594 505.769531 L 132.953125 514.777344 C 135.929688 520.179688 139.496094 525.25 143.179688 530.199219 C 146.863281 535.148438 148.195312 537.878906 150.527344 541.164062 C 190.046875 585.519531 248.96875 606.921875 316.992188 606.921875 C 467.636719 606.921875 595.488281 540.21875 652.082031 390.371094 C 692.207031 394.484375 730.726562 384.199219 748.273438 349.960938 C 720.316406 333.835938 684.390625 339.007812 663.691406 349.40625 L 718.539062 193.699219 L 504.386719 330.449219 L 435.976562 330.449219 L 435.976562 193.699219 Z M 230.734375 193.710938 " clip-rule="nonzero"/></clipPath><clipPath id="19ee8d426c"><path d="M 377 269 L 428 269 L 428 324 L 377 324 Z M 377 269 " clip-rule="nonzero"/></clipPath><clipPath id="f271444426"><path d="M 230.734375 193.710938 L 230.734375 330.460938 L 165.300781 330.460938 L 165.300781 398.835938 L 110.511719 398.835938 L 109.898438 404.78125 C 106.480469 442.03125 112.980469 476.390625 127.933594 505.769531 L 132.953125 514.777344 C 135.929688 520.179688 139.496094 525.25 143.179688 530.199219 C 146.863281 535.148438 148.195312 537.878906 150.527344 541.164062 C 190.046875 585.519531 248.96875 606.921875 316.992188 606.921875 C 467.636719 606.921875 595.488281 540.21875 652.082031 390.371094 C 692.207031 394.484375 730.726562 384.199219 748.273438 349.960938 C 720.316406 333.835938 684.390625 339.007812 663.691406 349.40625 L 718.539062 193.699219 L 504.386719 330.449219 L 435.976562 330.449219 L 435.976562 193.699219 Z M 230.734375 193.710938 " clip-rule="nonzero"/></clipPath><clipPath id="6be7439557"><path d="M 380 339 L 425 339 L 425 390 L 380 390 Z M 380 339 " clip-rule="nonzero"/></clipPath><clipPath id="93799d9637"><path d="M 230.734375 193.710938 L 230.734375 330.460938 L 165.300781 330.460938 L 165.300781 398.835938 L 110.511719 398.835938 L 109.898438 404.78125 C 106.480469 442.03125 112.980469 476.390625 127.933594 505.769531 L 132.953125 514.777344 C 135.929688 520.179688 139.496094 525.25 143.179688 530.199219 C 146.863281 535.148438 148.195312 537.878906 150.527344 541.164062 C 190.046875 585.519531 248.96875 606.921875 316.992188 606.921875 C 467.636719 606.921875 595.488281 540.21875 652.082031 390.371094 C 692.207031 394.484375 730.726562 384.199219 748.273438 349.960938 C 720.316406 333.835938 684.390625 339.007812 663.691406 349.40625 L 718.539062 193.699219 L 504.386719 330.449219 L 435.976562 330.449219 L 435.976562 193.699219 Z M 230.734375 193.710938 " clip-rule="nonzero"/></clipPath><clipPath id="3942c15fda"><path d="M 377 337 L 428 337 L 428 392 L 377 392 Z M 377 337 " clip-rule="nonzero"/></clipPath><clipPath id="8d40d7d287"><path d="M 230.734375 193.710938 L 230.734375 330.460938 L 165.300781 330.460938 L 165.300781 398.835938 L 110.511719 398.835938 L 109.898438 404.78125 C 106.480469 442.03125 112.980469 476.390625 127.933594 505.769531 L 132.953125 514.777344 C 135.929688 520.179688 139.496094 525.25 143.179688 530.199219 C 146.863281 535.148438 148.195312 537.878906 150.527344 541.164062 C 190.046875 585.519531 248.96875 606.921875 316.992188 606.921875 C 467.636719 606.921875 595.488281 540.21875 652.082031 390.371094 C 692.207031 394.484375 730.726562 384.199219 748.273438 349.960938 C 720.316406 333.835938 684.390625 339.007812 663.691406 349.40625 L 718.539062 193.699219 L 504.386719 330.449219 L 435.976562 330.449219 L 435.976562 193.699219 Z M 230.734375 193.710938 " clip-rule="nonzero"/></clipPath><clipPath id="adecfa85ec"><path d="M 441 335 L 501 335 L 501 394 L 441 394 Z M 441 335 " clip-rule="nonzero"/></clipPath><clipPath id="3e6d17def3"><path d="M 230.734375 193.710938 L 230.734375 330.460938 L 165.300781 330.460938 L 165.300781 398.835938 L 110.511719 398.835938 L 109.898438 404.78125 C 106.480469 442.03125 112.980469 476.390625 127.933594 505.769531 L 132.953125 514.777344 C 135.929688 520.179688 139.496094 525.25 143.179688 530.199219 C 146.863281 535.148438 148.195312 537.878906 150.527344 541.164062 C 190.046875 585.519531 248.96875 606.921875 316.992188 606.921875 C 467.636719 606.921875 595.488281 540.21875 652.082031 390.371094 C 692.207031 394.484375 730.726562 384.199219 748.273438 349.960938 C 720.316406 333.835938 684.390625 339.007812 663.691406 349.40625 L 718.539062 193.699219 L 504.386719 330.449219 L 435.976562 330.449219 L 435.976562 193.699219 Z M 230.734375 193.710938 " clip-rule="nonzero"/></clipPath><clipPath id="a4d6f9f08f"><path d="M 441 267 L 501 267 L 501 326 L 441 326 Z M 441 267 " clip-rule="nonzero"/></clipPath><clipPath id="3fff13e82d"><path d="M 230.734375 193.710938 L 230.734375 330.460938 L 165.300781 330.460938 L 165.300781 398.835938 L 110.511719 398.835938 L 109.898438 404.78125 C 106.480469 442.03125 112.980469 476.390625 127.933594 505.769531 L 132.953125 514.777344 C 135.929688 520.179688 139.496094 525.25 143.179688 530.199219 C 146.863281 535.148438 148.195312 537.878906 150.527344 541.164062 C 190.046875 585.519531 248.96875 606.921875 316.992188 606.921875 C 467.636719 606.921875 595.488281 540.21875 652.082031 390.371094 C 692.207031 394.484375 730.726562 384.199219 748.273438 349.960938 C 720.316406 333.835938 684.390625 339.007812 663.691406 349.40625 L 718.539062 193.699219 L 504.386719 330.449219 L 435.976562 330.449219 L 435.976562 193.699219 Z M 230.734375 193.710938 " clip-rule="nonzero"/></clipPath><clipPath id="eb1b8ef7fe"><path d="M 448 339 L 493 339 L 493 390 L 448 390 Z M 448 339 " clip-rule="nonzero"/></clipPath><clipPath id="64cd1c3c9d"><path d="M 230.734375 193.710938 L 230.734375 330.460938 L 165.300781 330.460938 L 165.300781 398.835938 L 110.511719 398.835938 L 109.898438 404.78125 C 106.480469 442.03125 112.980469 476.390625 127.933594 505.769531 L 132.953125 514.777344 C 135.929688 520.179688 139.496094 525.25 143.179688 530.199219 C 146.863281 535.148438 148.195312 537.878906 150.527344 541.164062 C 190.046875 585.519531 248.96875 606.921875 316.992188 606.921875 C 467.636719 606.921875 595.488281 540.21875 652.082031 390.371094 C 692.207031 394.484375 730.726562 384.199219 748.273438 349.960938 C 720.316406 333.835938 684.390625 339.007812 663.691406 349.40625 L 718.539062 193.699219 L 504.386719 330.449219 L 435.976562 330.449219 L 435.976562 193.699219 Z M 230.734375 193.710938 " clip-rule="nonzero"/></clipPath><clipPath id="357a834340"><path d="M 446 337 L 496 337 L 496 392 L 446 392 Z M 446 337 " clip-rule="nonzero"/></clipPath><clipPath id="d4c6a3b899"><path d="M 230.734375 193.710938 L 230.734375 330.460938 L 165.300781 330.460938 L 165.300781 398.835938 L 110.511719 398.835938 L 109.898438 404.78125 C 106.480469 442.03125 112.980469 476.390625 127.933594 505.769531 L 132.953125 514.777344 C 135.929688 520.179688 139.496094 525.25 143.179688 530.199219 C 146.863281 535.148438 148.195312 537.878906 150.527344 541.164062 C 190.046875 585.519531 248.96875 606.921875 316.992188 606.921875 C 467.636719 606.921875 595.488281 540.21875 652.082031 390.371094 C 692.207031 394.484375 730.726562 384.199219 748.273438 349.960938 C 720.316406 333.835938 684.390625 339.007812 663.691406 349.40625 L 718.539062 193.699219 L 504.386719 330.449219 L 435.976562 330.449219 L 435.976562 193.699219 Z M 230.734375 193.710938 " clip-rule="nonzero"/></clipPath><clipPath id="0af7a8be23"><path d="M 448 271 L 493 271 L 493 322 L 448 322 Z M 448 271 " clip-rule="nonzero"/></clipPath><clipPath id="f328558f2c"><path d="M 230.734375 193.710938 L 230.734375 330.460938 L 165.300781 330.460938 L 165.300781 398.835938 L 110.511719 398.835938 L 109.898438 404.78125 C 106.480469 442.03125 112.980469 476.390625 127.933594 505.769531 L 132.953125 514.777344 C 135.929688 520.179688 139.496094 525.25 143.179688 530.199219 C 146.863281 535.148438 148.195312 537.878906 150.527344 541.164062 C 190.046875 585.519531 248.96875 606.921875 316.992188 606.921875 C 467.636719 606.921875 595.488281 540.21875 652.082031 390.371094 C 692.207031 394.484375 730.726562 384.199219 748.273438 349.960938 C 720.316406 333.835938 684.390625 339.007812 663.691406 349.40625 L 718.539062 193.699219 L 504.386719 330.449219 L 435.976562 330.449219 L 435.976562 193.699219 Z M 230.734375 193.710938 " clip-rule="nonzero"/></clipPath><clipPath id="9d6d446fc9"><path d="M 446 269 L 496 269 L 496 324 L 446 324 Z M 446 269 " clip-rule="nonzero"/></clipPath><clipPath id="b4d98cc08a"><path d="M 230.734375 193.710938 L 230.734375 330.460938 L 165.300781 330.460938 L 165.300781 398.835938 L 110.511719 398.835938 L 109.898438 404.78125 C 106.480469 442.03125 112.980469 476.390625 127.933594 505.769531 L 132.953125 514.777344 C 135.929688 520.179688 139.496094 525.25 143.179688 530.199219 C 146.863281 535.148438 148.195312 537.878906 150.527344 541.164062 C 190.046875 585.519531 248.96875 606.921875 316.992188 606.921875 C 467.636719 606.921875 595.488281 540.21875 652.082031 390.371094 C 692.207031 394.484375 730.726562 384.199219 748.273438 349.960938 C 720.316406 333.835938 684.390625 339.007812 663.691406 349.40625 L 718.539062 193.699219 L 504.386719 330.449219 L 435.976562 330.449219 L 435.976562 193.699219 Z M 230.734375 193.710938 " clip-rule="nonzero"/></clipPath><clipPath id="538c097e17"><path d="M 109 272 L 748.273438 272 L 748.273438 606.933594 L 109 606.933594 Z M 109 272 " clip-rule="nonzero"/></clipPath><clipPath id="ea07c12840"><path d="M 230.734375 193.710938 L 230.734375 330.460938 L 165.300781 330.460938 L 165.300781 398.835938 L 110.511719 398.835938 L 109.898438 404.78125 C 106.480469 442.03125 112.980469 476.390625 127.933594 505.769531 L 132.953125 514.777344 C 135.929688 520.179688 139.496094 525.25 143.179688 530.199219 C 146.863281 535.148438 148.195312 537.878906 150.527344 541.164062 C 190.046875 585.519531 248.96875 606.921875 316.992188 606.921875 C 467.636719 606.921875 595.488281 540.21875 652.082031 390.371094 C 692.207031 394.484375 730.726562 384.199219 748.273438 349.960938 C 720.316406 333.835938 684.390625 339.007812 663.691406 349.40625 L 718.539062 193.699219 L 504.386719 330.449219 L 435.976562 330.449219 L 435.976562 193.699219 Z M 230.734375 193.710938 " clip-rule="nonzero"/></clipPath><clipPath id="c2e9617a53"><path d="M 109 452 L 748.273438 452 L 748.273438 606.933594 L 109 606.933594 Z M 109 452 " clip-rule="nonzero"/></clipPath><clipPath id="a074533797"><path d="M 230.734375 193.710938 L 230.734375 330.460938 L 165.300781 330.460938 L 165.300781 398.835938 L 110.511719 398.835938 L 109.898438 404.78125 C 106.480469 442.03125 112.980469 476.390625 127.933594 505.769531 L 132.953125 514.777344 C 135.929688 520.179688 139.496094 525.25 143.179688 530.199219 C 146.863281 535.148438 148.195312 537.878906 150.527344 541.164062 C 190.046875 585.519531 248.96875 606.921875 316.992188 606.921875 C 467.636719 606.921875 595.488281 540.21875 652.082031 390.371094 C 692.207031 394.484375 730.726562 384.199219 748.273438 349.960938 C 720.316406 333.835938 684.390625 339.007812 663.691406 349.40625 L 718.539062 193.699219 L 504.386719 330.449219 L 435.976562 330.449219 L 435.976562 193.699219 Z M 230.734375 193.710938 " clip-rule="nonzero"/></clipPath><clipPath id="155ba37f92"><path d="M 138 533 L 336 533 L 336 606.933594 L 138 606.933594 Z M 138 533 " clip-rule="nonzero"/></clipPath><clipPath id="9d2b8f92fb"><path d="M 230.734375 193.710938 L 230.734375 330.460938 L 165.300781 330.460938 L 165.300781 398.835938 L 110.511719 398.835938 L 109.898438 404.78125 C 106.480469 442.03125 112.980469 476.390625 127.933594 505.769531 L 132.953125 514.777344 C 135.929688 520.179688 139.496094 525.25 143.179688 530.199219 C 146.863281 535.148438 148.195312 537.878906 150.527344 541.164062 C 190.046875 585.519531 248.96875 606.921875 316.992188 606.921875 C 467.636719 606.921875 595.488281 540.21875 652.082031 390.371094 C 692.207031 394.484375 730.726562 384.199219 748.273438 349.960938 C 720.316406 333.835938 684.390625 339.007812 663.691406 349.40625 L 718.539062 193.699219 L 504.386719 330.449219 L 435.976562 330.449219 L 435.976562 193.699219 Z M 230.734375 193.710938 " clip-rule="nonzero"/></clipPath><clipPath id="b5b6472ac8"><path d="M 109 336 L 748.273438 336 L 748.273438 606.933594 L 109 606.933594 Z M 109 336 " clip-rule="nonzero"/></clipPath><clipPath id="d7503fbfbd"><path d="M 230.734375 193.710938 L 230.734375 330.460938 L 165.300781 330.460938 L 165.300781 398.835938 L 110.511719 398.835938 L 109.898438 404.78125 C 106.480469 442.03125 112.980469 476.390625 127.933594 505.769531 L 132.953125 514.777344 C 135.929688 520.179688 139.496094 525.25 143.179688 530.199219 C 146.863281 535.148438 148.195312 537.878906 150.527344 541.164062 C 190.046875 585.519531 248.96875 606.921875 316.992188 606.921875 C 467.636719 606.921875 595.488281 540.21875 652.082031 390.371094 C 692.207031 394.484375 730.726562 384.199219 748.273438 349.960938 C 720.316406 333.835938 684.390625 339.007812 663.691406 349.40625 L 718.539062 193.699219 L 504.386719 330.449219 L 435.976562 330.449219 L 435.976562 193.699219 Z M 230.734375 193.710938 " clip-rule="nonzero"/></clipPath></defs><g clip-path="url(#10a3b79102)"><path fill="#394d54" d="M 443.355469 323.722656 L 511.359375 323.722656 L 511.359375 393.203125 L 545.75 393.203125 C 561.933594 393.125 577.6875 390.488281 593.007812 385.285156 C 600.417969 382.773438 608.695312 379.296875 615.976562 374.917969 C 606.378906 362.390625 601.480469 346.582031 599.871094 330.964844 C 597.90625 309.765625 602.191406 282.15625 616.558594 265.554688 L 623.707031 257.296875 L 632.246094 264.140625 C 653.699219 281.367188 671.742188 305.433594 674.929688 332.882812 C 700.75 325.285156 731.078125 327.085938 753.855469 340.222656 L 763.199219 345.617188 L 758.285156 355.210938 C 739.164062 392.722656 698.898438 404.359375 659.546875 402.300781 C 600.660156 548.882812 472.460938 618.285156 317.027344 618.285156 C 236.71875 618.285156 163.042969 588.273438 121.101562 517.070312 C 118.636719 512.640625 116.542969 508.023438 114.300781 503.480469 C 100.128906 472.136719 95.410156 437.796875 98.597656 403.667969 L 99.5625 393.398438 L 157.550781 393.398438 L 157.550781 323.769531 L 225.554688 323.769531 L 225.554688 255.800781 L 361.582031 255.800781 L 361.582031 187.832031 L 443.195312 187.832031 L 443.195312 323.785156 " fill-opacity="1" fill-rule="nonzero"/></g><g clip-path="url(#8e8889319a)"><g clip-path="url(#ecaef22b71)"><path fill="#20c2ef" d="M 373.089844 199.09375 L 432.035156 199.09375 L 432.035156 258.007812 L 373.082031 258.007812 Z M 373.089844 199.09375 " fill-opacity="1" fill-rule="nonzero"/></g></g><g clip-path="url(#9bf691e46d)"><g clip-path="url(#c2d6846018)"><path fill="#000000" d="M 380.316406 253.101562 L 380.316406 204 M 389.15625 253.097656 L 389.15625 204 M 398.085938 253.097656 L 398.085938 204 M 407.015625 253.097656 L 407.015625 204 M 415.949219 253.097656 L 415.949219 204 M 424.78125 253.097656 L 424.78125 204 " fill-opacity="1" fill-rule="nonzero"/></g></g><g clip-path="url(#e0de65ed62)"><g clip-path="url(#97398ce300)"><path stroke-linecap="butt" transform="matrix(2.974357, 0, 0, 2.972822, 4.684799, 187.766759)" fill="none" stroke-linejoin="miter" d="M 126.290037 21.97737 L 126.290037 5.46055 M 129.262056 21.976056 L 129.262056 5.46055 M 132.26428 21.976056 L 132.26428 5.46055 M 135.266505 21.976056 L 135.266505 5.46055 M 138.270044 21.976056 L 138.270044 5.46055 M 141.239436 21.976056 L 141.239436 5.46055 " stroke="#394d54" stroke-width="1.56" stroke-opacity="1" stroke-miterlimit="4"/></g></g><g clip-path="url(#06399e8d32)"><g clip-path="url(#962b261a9f)"><path fill="#00acd3" d="M 441.101562 258.039062 L 500.046875 258.039062 L 500.046875 199.128906 L 441.09375 199.128906 Z M 441.101562 258.039062 " fill-opacity="1" fill-rule="nonzero"/></g></g><g clip-path="url(#78851671aa)"><g clip-path="url(#5adfe8aeeb)"><path fill="#000000" d="M 448.328125 204.003906 L 448.328125 253.105469 M 457.167969 204.007812 L 457.167969 253.105469 M 466.097656 204.007812 L 466.097656 253.105469 M 475.027344 204.007812 L 475.027344 253.105469 M 483.960938 204.007812 L 483.960938 253.105469 M 492.792969 204.007812 L 492.792969 253.105469 " fill-opacity="1" fill-rule="nonzero"/></g></g><g clip-path="url(#a62c2bb983)"><g clip-path="url(#b6701d92ac)"><path stroke-linecap="butt" transform="matrix(2.974357, 0, 0, -2.972822, 72.696436, 269.337136)" fill="none" stroke-linejoin="miter" d="M 126.290064 21.976841 L 126.290064 5.46002 M 129.262083 21.975527 L 129.262083 5.46002 M 132.264308 21.975527 L 132.264308 5.46002 M 135.266533 21.975527 L 135.266533 5.46002 M 138.270071 21.975527 L 138.270071 5.46002 M 141.239463 21.975527 L 141.239463 5.46002 " stroke="#394d54" stroke-width="1.56" stroke-opacity="1" stroke-miterlimit="4"/></g></g><g clip-path="url(#7422827731)"><g clip-path="url(#24b95cbdf8)"><path fill="#00acd3" d="M 101.042969 267.039062 L 159.988281 267.039062 L 159.988281 325.953125 L 101.035156 325.953125 Z M 101.042969 267.039062 " fill-opacity="1" fill-rule="nonzero"/></g></g><g clip-path="url(#fdfdb25774)"><g clip-path="url(#372f75aa04)"><path fill="#20c2ef" d="M 101.042969 335.046875 L 159.988281 335.046875 L 159.988281 393.960938 L 101.035156 393.960938 Z M 101.042969 335.046875 " fill-opacity="1" fill-rule="nonzero"/></g></g><g clip-path="url(#4616b498c3)"><g clip-path="url(#febd6122a7)"><path fill="#000000" d="M 108.269531 321.078125 L 108.269531 271.976562 M 117.109375 321.074219 L 117.109375 271.976562 M 126.039062 321.074219 L 126.039062 271.976562 M 134.96875 321.074219 L 134.96875 271.976562 M 143.902344 321.074219 L 143.902344 271.976562 M 152.738281 321.074219 L 152.738281 271.976562 " fill-opacity="1" fill-rule="nonzero"/></g></g><g clip-path="url(#0eab6259ca)"><g clip-path="url(#7a2079aee5)"><path stroke-linecap="butt" transform="matrix(2.974357, 0, 0, 2.972822, -267.361741, 255.743299)" fill="none" stroke-linejoin="miter" d="M 126.289924 21.977377 L 126.289924 5.460557 M 129.261943 21.976063 L 129.261943 5.460557 M 132.264168 21.976063 L 132.264168 5.460557 M 135.266393 21.976063 L 135.266393 5.460557 M 138.269931 21.976063 L 138.269931 5.460557 M 141.240636 21.976063 L 141.240636 5.460557 " stroke="#394d54" stroke-width="1.56" stroke-opacity="1" stroke-miterlimit="4"/></g></g><g clip-path="url(#b7542903a2)"><g clip-path="url(#a1eb9e9aad)"><path fill="#000000" d="M 108.269531 389.054688 L 108.269531 339.953125 M 117.109375 389.050781 L 117.109375 339.953125 M 126.039062 389.050781 L 126.039062 339.953125 M 134.96875 389.050781 L 134.96875 339.953125 M 143.902344 389.050781 L 143.902344 339.953125 M 152.738281 389.050781 L 152.738281 339.953125 " fill-opacity="1" fill-rule="nonzero"/></g></g><g clip-path="url(#848724b46c)"><g clip-path="url(#706e57dc2b)"><path stroke-linecap="butt" transform="matrix(2.974357, 0, 0, 2.972822, -267.361741, 323.719838)" fill="none" stroke-linejoin="miter" d="M 126.289924 21.977386 L 126.289924 5.460565 M 129.261943 21.976072 L 129.261943 5.460565 M 132.264168 21.976072 L 132.264168 5.460565 M 135.266393 21.976072 L 135.266393 5.460565 M 138.269931 21.976072 L 138.269931 5.460565 M 141.240636 21.976072 L 141.240636 5.460565 " stroke="#394d54" stroke-width="1.56" stroke-opacity="1" stroke-miterlimit="4"/></g></g><g clip-path="url(#0268853c59)"><g clip-path="url(#acb6ba248b)"><path fill="#00acd3" d="M 169.054688 393.992188 L 228 393.992188 L 228 335.082031 L 169.046875 335.082031 Z M 169.054688 393.992188 " fill-opacity="1" fill-rule="nonzero"/></g></g><g clip-path="url(#f00617a7c7)"><g clip-path="url(#262f6b8fbe)"><path fill="#20c2ef" d="M 169.054688 325.988281 L 228 325.988281 L 228 267.070312 L 169.046875 267.070312 Z M 169.054688 325.988281 " fill-opacity="1" fill-rule="nonzero"/></g></g><g clip-path="url(#baff7c073f)"><g clip-path="url(#74b902eac7)"><path fill="#000000" d="M 176.28125 339.957031 L 176.28125 389.058594 M 185.121094 339.960938 L 185.121094 389.058594 M 194.050781 339.960938 L 194.050781 389.058594 M 202.980469 339.960938 L 202.980469 389.058594 M 211.914062 339.960938 L 211.914062 389.058594 M 220.746094 339.960938 L 220.746094 389.058594 " fill-opacity="1" fill-rule="nonzero"/></g></g><g clip-path="url(#4c927b8cc2)"><g clip-path="url(#c436e6df91)"><path stroke-linecap="butt" transform="matrix(2.974357, 0, 0, -2.972822, -199.350119, 405.290208)" fill="none" stroke-linejoin="miter" d="M 126.289957 21.976823 L 126.289957 5.460003 M 129.261976 21.975509 L 129.261976 5.460003 M 132.2642 21.975509 L 132.2642 5.460003 M 135.266425 21.975509 L 135.266425 5.460003 M 138.269964 21.975509 L 138.269964 5.460003 M 141.239356 21.975509 L 141.239356 5.460003 " stroke="#394d54" stroke-width="1.56" stroke-opacity="1" stroke-miterlimit="4"/></g></g><g clip-path="url(#26b3767695)"><g clip-path="url(#705783a3c8)"><path fill="#000000" d="M 176.28125 271.980469 L 176.28125 321.082031 M 185.121094 271.984375 L 185.121094 321.082031 M 194.050781 271.984375 L 194.050781 321.082031 M 202.980469 271.984375 L 202.980469 321.082031 M 211.914062 271.984375 L 211.914062 321.082031 M 220.746094 271.984375 L 220.746094 321.082031 " fill-opacity="1" fill-rule="nonzero"/></g></g><g clip-path="url(#a30a4a0b04)"><g clip-path="url(#7aa91462f3)"><path stroke-linecap="butt" transform="matrix(2.974357, 0, 0, -2.972822, -199.350119, 337.313675)" fill="none" stroke-linejoin="miter" d="M 126.289957 21.976833 L 126.289957 5.460012 M 129.261976 21.975519 L 129.261976 5.460012 M 132.2642 21.975519 L 132.2642 5.460012 M 135.266425 21.975519 L 135.266425 5.460012 M 138.269964 21.975519 L 138.269964 5.460012 M 141.239356 21.975519 L 141.239356 5.460012 " stroke="#394d54" stroke-width="1.56" stroke-opacity="1" stroke-miterlimit="4"/></g></g><g clip-path="url(#acc260e414)"><g clip-path="url(#da1f4ce6d6)"><path fill="#00acd3" d="M 237.066406 267.039062 L 296.011719 267.039062 L 296.011719 325.953125 L 237.058594 325.953125 Z M 237.066406 267.039062 " fill-opacity="1" fill-rule="nonzero"/></g></g><g clip-path="url(#d7ae338fd7)"><g clip-path="url(#fc3228815f)"><path fill="#20c2ef" d="M 237.066406 335.046875 L 296.011719 335.046875 L 296.011719 393.960938 L 237.058594 393.960938 Z M 237.066406 335.046875 " fill-opacity="1" fill-rule="nonzero"/></g></g><g clip-path="url(#e194c2694b)"><g clip-path="url(#f2f4921351)"><path fill="#000000" d="M 244.292969 321.078125 L 244.292969 271.976562 M 253.132812 321.074219 L 253.132812 271.976562 M 262.0625 321.074219 L 262.0625 271.976562 M 270.992188 321.074219 L 270.992188 271.976562 M 279.925781 321.074219 L 279.925781 271.976562 M 288.757812 321.074219 L 288.757812 271.976562 " fill-opacity="1" fill-rule="nonzero"/></g></g><g clip-path="url(#80ec755395)"><g clip-path="url(#3902d50ad0)"><path stroke-linecap="butt" transform="matrix(2.974357, 0, 0, 2.972822, -131.338481, 255.743299)" fill="none" stroke-linejoin="miter" d="M 126.289984 21.977377 L 126.289984 5.460557 M 129.262003 21.976063 L 129.262003 5.460557 M 132.264228 21.976063 L 132.264228 5.460557 M 135.266452 21.976063 L 135.266452 5.460557 M 138.269991 21.976063 L 138.269991 5.460557 M 141.239383 21.976063 L 141.239383 5.460557 " stroke="#394d54" stroke-width="1.56" stroke-opacity="1" stroke-miterlimit="4"/></g></g><g clip-path="url(#12deabb885)"><g clip-path="url(#5fe100cc22)"><path fill="#000000" d="M 244.292969 389.054688 L 244.292969 339.953125 M 253.132812 389.050781 L 253.132812 339.953125 M 262.0625 389.050781 L 262.0625 339.953125 M 270.992188 389.050781 L 270.992188 339.953125 M 279.925781 389.050781 L 279.925781 339.953125 M 288.757812 389.050781 L 288.757812 339.953125 " fill-opacity="1" fill-rule="nonzero"/></g></g><g clip-path="url(#24cd03513b)"><g clip-path="url(#3f4cf6ac2b)"><path stroke-linecap="butt" transform="matrix(2.974357, 0, 0, 2.972822, -131.338481, 323.719838)" fill="none" stroke-linejoin="miter" d="M 126.289984 21.977386 L 126.289984 5.460565 M 129.262003 21.976072 L 129.262003 5.460565 M 132.264228 21.976072 L 132.264228 5.460565 M 135.266452 21.976072 L 135.266452 5.460565 M 138.269991 21.976072 L 138.269991 5.460565 M 141.239383 21.976072 L 141.239383 5.460565 " stroke="#394d54" stroke-width="1.56" stroke-opacity="1" stroke-miterlimit="4"/></g></g><g clip-path="url(#27165decfb)"><g clip-path="url(#385e27a67f)"><path fill="#00acd3" d="M 305.078125 393.992188 L 364.023438 393.992188 L 364.023438 335.082031 L 305.070312 335.082031 Z M 305.078125 393.992188 " fill-opacity="1" fill-rule="nonzero"/></g></g><g clip-path="url(#a6c50a14df)"><g clip-path="url(#f69ba50354)"><path fill="#20c2ef" d="M 305.078125 325.988281 L 364.023438 325.988281 L 364.023438 267.070312 L 305.070312 267.070312 Z M 305.078125 325.988281 " fill-opacity="1" fill-rule="nonzero"/></g></g><g clip-path="url(#5422047225)"><g clip-path="url(#50a60d4fe7)"><path fill="#000000" d="M 312.304688 339.957031 L 312.304688 389.058594 M 321.144531 339.960938 L 321.144531 389.058594 M 330.074219 339.960938 L 330.074219 389.058594 M 339.003906 339.960938 L 339.003906 389.058594 M 347.9375 339.960938 L 347.9375 389.058594 M 356.769531 339.960938 L 356.769531 389.058594 " fill-opacity="1" fill-rule="nonzero"/></g></g><g clip-path="url(#af8679a494)"><g clip-path="url(#c6bffdc5c1)"><path stroke-linecap="butt" transform="matrix(2.974357, 0, 0, -2.972822, -63.326838, 405.290208)" fill="none" stroke-linejoin="miter" d="M 126.290009 21.976823 L 126.290009 5.460003 M 129.262028 21.975509 L 129.262028 5.460003 M 132.264253 21.975509 L 132.264253 5.460003 M 135.266478 21.975509 L 135.266478 5.460003 M 138.270016 21.975509 L 138.270016 5.460003 M 141.239408 21.975509 L 141.239408 5.460003 " stroke="#394d54" stroke-width="1.56" stroke-opacity="1" stroke-miterlimit="4"/></g></g><g clip-path="url(#81131f0b3e)"><g clip-path="url(#55584abb88)"><path fill="#000000" d="M 312.304688 271.980469 L 312.304688 321.082031 M 321.144531 271.984375 L 321.144531 321.082031 M 330.074219 271.984375 L 330.074219 321.082031 M 339.003906 271.984375 L 339.003906 321.082031 M 347.9375 271.984375 L 347.9375 321.082031 M 356.769531 271.984375 L 356.769531 321.082031 " fill-opacity="1" fill-rule="nonzero"/></g></g><g clip-path="url(#dd48c91ba1)"><g clip-path="url(#aded4e6756)"><path stroke-linecap="butt" transform="matrix(2.974357, 0, 0, -2.972822, -63.326838, 337.313675)" fill="none" stroke-linejoin="miter" d="M 126.290009 21.976833 L 126.290009 5.460012 M 129.262028 21.975519 L 129.262028 5.460012 M 132.264253 21.975519 L 132.264253 5.460012 M 135.266478 21.975519 L 135.266478 5.460012 M 138.270016 21.975519 L 138.270016 5.460012 M 141.239408 21.975519 L 141.239408 5.460012 " stroke="#394d54" stroke-width="1.56" stroke-opacity="1" stroke-miterlimit="4"/></g></g><g clip-path="url(#8efd03ec7b)"><g clip-path="url(#d2c80e1234)"><path fill="#00acd3" d="M 373.089844 267.039062 L 432.035156 267.039062 L 432.035156 325.953125 L 373.082031 325.953125 Z M 373.089844 267.039062 " fill-opacity="1" fill-rule="nonzero"/></g></g><g clip-path="url(#11a4f8642e)"><g clip-path="url(#adda6c4a1f)"><path fill="#20c2ef" d="M 373.089844 335.046875 L 432.035156 335.046875 L 432.035156 393.960938 L 373.082031 393.960938 Z M 373.089844 335.046875 " fill-opacity="1" fill-rule="nonzero"/></g></g><g clip-path="url(#06399b97c7)"><g clip-path="url(#47ed7b1cff)"><path fill="#000000" d="M 380.316406 321.078125 L 380.316406 271.976562 M 389.15625 321.074219 L 389.15625 271.976562 M 398.085938 321.074219 L 398.085938 271.976562 M 407.015625 321.074219 L 407.015625 271.976562 M 415.949219 321.074219 L 415.949219 271.976562 M 424.78125 321.074219 L 424.78125 271.976562 " fill-opacity="1" fill-rule="nonzero"/></g></g><g clip-path="url(#19ee8d426c)"><g clip-path="url(#f271444426)"><path stroke-linecap="butt" transform="matrix(2.974357, 0, 0, 2.972822, 4.684799, 255.743299)" fill="none" stroke-linejoin="miter" d="M 126.290037 21.977377 L 126.290037 5.460557 M 129.262056 21.976063 L 129.262056 5.460557 M 132.26428 21.976063 L 132.26428 5.460557 M 135.266505 21.976063 L 135.266505 5.460557 M 138.270044 21.976063 L 138.270044 5.460557 M 141.239436 21.976063 L 141.239436 5.460557 " stroke="#394d54" stroke-width="1.56" stroke-opacity="1" stroke-miterlimit="4"/></g></g><g clip-path="url(#6be7439557)"><g clip-path="url(#93799d9637)"><path fill="#000000" d="M 380.316406 389.054688 L 380.316406 339.953125 M 389.15625 389.050781 L 389.15625 339.953125 M 398.085938 389.050781 L 398.085938 339.953125 M 407.015625 389.050781 L 407.015625 339.953125 M 415.949219 389.050781 L 415.949219 339.953125 M 424.78125 389.050781 L 424.78125 339.953125 " fill-opacity="1" fill-rule="nonzero"/></g></g><g clip-path="url(#3942c15fda)"><g clip-path="url(#8d40d7d287)"><path stroke-linecap="butt" transform="matrix(2.974357, 0, 0, 2.972822, 4.684799, 323.719838)" fill="none" stroke-linejoin="miter" d="M 126.290037 21.977386 L 126.290037 5.460565 M 129.262056 21.976072 L 129.262056 5.460565 M 132.26428 21.976072 L 132.26428 5.460565 M 135.266505 21.976072 L 135.266505 5.460565 M 138.270044 21.976072 L 138.270044 5.460565 M 141.239436 21.976072 L 141.239436 5.460565 " stroke="#394d54" stroke-width="1.56" stroke-opacity="1" stroke-miterlimit="4"/></g></g><g clip-path="url(#adecfa85ec)"><g clip-path="url(#3e6d17def3)"><path fill="#00acd3" d="M 441.101562 393.992188 L 500.046875 393.992188 L 500.046875 335.082031 L 441.09375 335.082031 Z M 441.101562 393.992188 " fill-opacity="1" fill-rule="nonzero"/></g></g><g clip-path="url(#a4d6f9f08f)"><g clip-path="url(#3fff13e82d)"><path fill="#20c2ef" d="M 441.101562 325.988281 L 500.046875 325.988281 L 500.046875 267.070312 L 441.09375 267.070312 Z M 441.101562 325.988281 " fill-opacity="1" fill-rule="nonzero"/></g></g><g clip-path="url(#eb1b8ef7fe)"><g clip-path="url(#64cd1c3c9d)"><path fill="#000000" d="M 448.328125 339.957031 L 448.328125 389.058594 M 457.167969 339.960938 L 457.167969 389.058594 M 466.097656 339.960938 L 466.097656 389.058594 M 475.027344 339.960938 L 475.027344 389.058594 M 483.960938 339.960938 L 483.960938 389.058594 M 492.792969 339.960938 L 492.792969 389.058594 " fill-opacity="1" fill-rule="nonzero"/></g></g><g clip-path="url(#357a834340)"><g clip-path="url(#d4c6a3b899)"><path stroke-linecap="butt" transform="matrix(2.974357, 0, 0, -2.972822, 72.696436, 405.290208)" fill="none" stroke-linejoin="miter" d="M 126.290064 21.976823 L 126.290064 5.460003 M 129.262083 21.975509 L 129.262083 5.460003 M 132.264308 21.975509 L 132.264308 5.460003 M 135.266533 21.975509 L 135.266533 5.460003 M 138.270071 21.975509 L 138.270071 5.460003 M 141.239463 21.975509 L 141.239463 5.460003 " stroke="#394d54" stroke-width="1.56" stroke-opacity="1" stroke-miterlimit="4"/></g></g><g clip-path="url(#0af7a8be23)"><g clip-path="url(#f328558f2c)"><path fill="#000000" d="M 448.328125 271.980469 L 448.328125 321.082031 M 457.167969 271.984375 L 457.167969 321.082031 M 466.097656 271.984375 L 466.097656 321.082031 M 475.027344 271.984375 L 475.027344 321.082031 M 483.960938 271.984375 L 483.960938 321.082031 M 492.792969 271.984375 L 492.792969 321.082031 " fill-opacity="1" fill-rule="nonzero"/></g></g><g clip-path="url(#9d6d446fc9)"><g clip-path="url(#b4d98cc08a)"><path stroke-linecap="butt" transform="matrix(2.974357, 0, 0, -2.972822, 72.696436, 337.313675)" fill="none" stroke-linejoin="miter" d="M 126.290064 21.976833 L 126.290064 5.460012 M 129.262083 21.975519 L 129.262083 5.460012 M 132.264308 21.975519 L 132.264308 5.460012 M 135.266533 21.975519 L 135.266533 5.460012 M 138.270071 21.975519 L 138.270071 5.460012 M 141.239463 21.975519 L 141.239463 5.460012 " stroke="#394d54" stroke-width="1.56" stroke-opacity="1" stroke-miterlimit="4"/></g></g><g clip-path="url(#538c097e17)"><g clip-path="url(#ea07c12840)"><path fill="#17b5eb" d="M 663.714844 349.429688 C 668.273438 314.007812 641.75 286.183594 625.300781 272.972656 C 606.347656 294.878906 603.402344 352.28125 633.140625 376.449219 C 616.542969 391.183594 581.574219 404.535156 545.765625 404.535156 L 105.796875 404.535156 C 102.316406 441.894531 105.796875 621.796875 105.796875 621.796875 L 751.234375 621.796875 L 748.296875 350.011719 C 720.339844 333.886719 684.398438 339.03125 663.699219 349.425781 " fill-opacity="1" fill-rule="nonzero"/></g></g><g clip-path="url(#c2e9617a53)"><g clip-path="url(#a074533797)"><path fill="#000000" d="M 105.8125 452.347656 L 105.8125 621.796875 L 751.25 621.796875 L 751.25 452.347656 " fill-opacity="0.17" fill-rule="nonzero"/></g></g><g clip-path="url(#155ba37f92)"><g clip-path="url(#9d2b8f92fb)"><path fill="#d4edf1" d="M 335.550781 606.636719 C 295.28125 587.535156 273.175781 561.570312 260.875 533.226562 L 138.53125 538.546875 L 200.992188 621.785156 L 335.542969 606.625 " fill-opacity="1" fill-rule="nonzero"/></g></g><g clip-path="url(#b5b6472ac8)"><g clip-path="url(#d7503fbfbd)"><path fill="#000000" d="M 666.480469 348.113281 L 666.480469 348.203125 C 604.433594 428.171875 515.433594 497.976562 419.886719 534.660156 C 334.65625 567.382812 260.347656 567.539062 209.078125 541.257812 C 203.558594 538.144531 198.144531 534.683594 192.71875 531.414062 C 155.132812 505.15625 133.964844 461.730469 135.742188 404.511719 L 105.820312 404.511719 L 105.820312 621.796875 L 751.257812 621.796875 L 751.257812 336.40625 L 676.898438 336.40625 Z M 666.480469 348.113281 " fill-opacity="0.085" fill-rule="nonzero"/></g></g><path stroke-linecap="round" transform="matrix(16.107207, 0, 0, 16.098894, -44.772376, 380.921281)" fill="none" stroke-linejoin="miter" d="M 11.495904 9.612984 C 14.111921 9.755899 16.903034 9.783075 19.337891 9.018999 " stroke="#394d54" stroke-width="0.628" stroke-opacity="1" stroke-miterlimit="4"/><path fill="#d4edf1" d="M 308.570312 505.734375 C 308.570312 506.269531 308.542969 506.796875 308.492188 507.328125 C 308.4375 507.855469 308.359375 508.382812 308.257812 508.902344 C 308.152344 509.425781 308.023438 509.941406 307.867188 510.449219 C 307.714844 510.957031 307.535156 511.457031 307.328125 511.949219 C 307.125 512.441406 306.898438 512.921875 306.648438 513.390625 C 306.398438 513.859375 306.125 514.316406 305.828125 514.757812 C 305.53125 515.199219 305.214844 515.625 304.878906 516.035156 C 304.539062 516.449219 304.183594 516.839844 303.804688 517.21875 C 303.429688 517.59375 303.035156 517.949219 302.625 518.289062 C 302.214844 518.625 301.785156 518.941406 301.34375 519.238281 C 300.902344 519.53125 300.445312 519.804688 299.976562 520.058594 C 299.507812 520.308594 299.027344 520.535156 298.535156 520.738281 C 298.042969 520.941406 297.542969 521.121094 297.035156 521.277344 C 296.527344 521.429688 296.011719 521.5625 295.488281 521.664062 C 294.96875 521.769531 294.441406 521.847656 293.910156 521.898438 C 293.382812 521.953125 292.851562 521.980469 292.320312 521.980469 C 291.785156 521.980469 291.253906 521.953125 290.726562 521.902344 C 290.195312 521.847656 289.667969 521.773438 289.148438 521.667969 C 288.625 521.5625 288.109375 521.433594 287.601562 521.28125 C 287.089844 521.125 286.589844 520.945312 286.097656 520.742188 C 285.605469 520.539062 285.125 520.3125 284.65625 520.0625 C 284.183594 519.8125 283.730469 519.539062 283.285156 519.242188 C 282.84375 518.949219 282.414062 518.632812 282.003906 518.292969 C 281.59375 517.957031 281.199219 517.597656 280.820312 517.222656 C 280.445312 516.847656 280.085938 516.453125 279.75 516.042969 C 279.410156 515.632812 279.09375 515.203125 278.796875 514.761719 C 278.503906 514.320312 278.226562 513.863281 277.976562 513.394531 C 277.726562 512.925781 277.5 512.445312 277.292969 511.953125 C 277.089844 511.460938 276.910156 510.960938 276.753906 510.453125 C 276.601562 509.941406 276.46875 509.429688 276.367188 508.90625 C 276.261719 508.382812 276.183594 507.859375 276.128906 507.328125 C 276.078125 506.800781 276.050781 506.269531 276.050781 505.734375 C 276.050781 505.203125 276.078125 504.671875 276.128906 504.140625 C 276.179688 503.613281 276.257812 503.085938 276.363281 502.5625 C 276.46875 502.042969 276.597656 501.527344 276.75 501.015625 C 276.90625 500.507812 277.085938 500.003906 277.289062 499.511719 C 277.492188 499.023438 277.722656 498.539062 277.972656 498.070312 C 278.222656 497.601562 278.496094 497.144531 278.792969 496.703125 C 279.089844 496.257812 279.40625 495.832031 279.742188 495.421875 C 280.082031 495.007812 280.4375 494.613281 280.816406 494.238281 C 281.191406 493.863281 281.585938 493.503906 282 493.167969 C 282.410156 492.828125 282.839844 492.511719 283.28125 492.214844 C 283.722656 491.921875 284.179688 491.648438 284.652344 491.394531 C 285.121094 491.144531 285.601562 490.917969 286.09375 490.714844 C 286.585938 490.511719 287.085938 490.332031 287.597656 490.175781 C 288.105469 490.023438 288.621094 489.890625 289.144531 489.789062 C 289.667969 489.683594 290.195312 489.605469 290.726562 489.554688 C 291.253906 489.503906 291.785156 489.476562 292.320312 489.476562 C 292.851562 489.476562 293.382812 489.503906 293.914062 489.554688 C 294.441406 489.609375 294.96875 489.6875 295.492188 489.792969 C 296.011719 489.894531 296.527344 490.023438 297.039062 490.179688 C 297.546875 490.335938 298.046875 490.515625 298.539062 490.71875 C 299.03125 490.921875 299.511719 491.148438 299.980469 491.402344 C 300.449219 491.652344 300.90625 491.925781 301.351562 492.222656 C 301.792969 492.519531 302.21875 492.835938 302.628906 493.171875 C 303.042969 493.511719 303.4375 493.867188 303.8125 494.246094 C 304.1875 494.621094 304.546875 495.015625 304.882812 495.425781 C 305.222656 495.835938 305.539062 496.265625 305.832031 496.707031 C 306.128906 497.148438 306.402344 497.605469 306.652344 498.074219 C 306.902344 498.546875 307.132812 499.027344 307.335938 499.515625 C 307.539062 500.007812 307.71875 500.507812 307.871094 501.019531 C 308.027344 501.527344 308.15625 502.042969 308.257812 502.566406 C 308.363281 503.085938 308.441406 503.613281 308.492188 504.144531 C 308.546875 504.671875 308.570312 505.203125 308.570312 505.734375 Z M 308.570312 505.734375 " fill-opacity="1" fill-rule="nonzero"/><path fill="#394d54" d="M 296.699219 494.902344 C 295.28125 495.707031 294.316406 497.25 294.316406 499.023438 C 294.316406 501.648438 296.441406 503.773438 299.066406 503.773438 C 300.871094 503.773438 302.289062 502.773438 303.257812 501.292969 C 303.84375 502.722656 304.140625 504.207031 304.140625 505.753906 C 304.140625 512.191406 298.921875 517.390625 292.496094 517.390625 C 286.070312 517.390625 280.851562 512.175781 280.851562 505.753906 C 280.851562 499.328125 286.070312 494.113281 292.496094 494.113281 C 293.953125 494.109375 295.359375 494.375 296.714844 494.902344 Z M 4.675781 455.78125 L 761.136719 455.78125 C 744.65625 451.59375 709.027344 446.121094 714.90625 424.386719 C 684.949219 459.03125 612.722656 448.535156 594.507812 431.601562 C 574.210938 461.03125 456.03125 449.839844 447.800781 426.769531 C 422.351562 456.617188 343.507812 456.617188 318.058594 426.769531 C 309.8125 449.695312 191.648438 460.902344 171.484375 431.601562 C 153.089844 448.535156 80.863281 459.050781 50.90625 424.386719 C 56.785156 445.960938 21.136719 451.757812 4.675781 455.78125 " fill-opacity="1" fill-rule="nonzero"/></svg>