<svg xmlns="http://www.w3.org/2000/svg" xmlns:xlink="http://www.w3.org/1999/xlink" width="1024" zoomAndPan="magnify" viewBox="0 0 768 767.999994" height="1024" preserveAspectRatio="xMidYMid meet" version="1.0"><path fill="#f03c2e" d="M 753.503906 349.800781 L 418.199219 14.496094 C 417.054688 13.351562 415.855469 12.265625 414.605469 11.234375 C 413.351562 10.207031 412.054688 9.242188 410.707031 8.34375 C 409.359375 7.445312 407.972656 6.613281 406.542969 5.847656 C 405.117188 5.085938 403.652344 4.390625 402.15625 3.773438 C 400.660156 3.152344 399.136719 2.605469 397.589844 2.136719 C 396.039062 1.667969 394.46875 1.273438 392.878906 0.957031 C 391.292969 0.640625 389.691406 0.402344 388.078125 0.246094 C 386.46875 0.0859375 384.851562 0.0078125 383.230469 0.0078125 C 381.613281 0.0078125 379.996094 0.0859375 378.382812 0.246094 C 376.773438 0.402344 375.171875 0.640625 373.582031 0.957031 C 371.996094 1.273438 370.425781 1.667969 368.875 2.136719 C 367.324219 2.605469 365.804688 3.152344 364.304688 3.773438 C 362.808594 4.390625 361.347656 5.085938 359.917969 5.847656 C 358.492188 6.613281 357.105469 7.445312 355.757812 8.34375 C 354.410156 9.242188 353.109375 10.207031 351.859375 11.234375 C 350.609375 12.265625 349.410156 13.351562 348.265625 14.496094 L 278.664062 84.097656 L 366.984375 172.414062 C 387.527344 165.214844 411.046875 170.136719 427.414062 186.503906 C 429.355469 188.445312 431.148438 190.511719 432.796875 192.707031 C 434.445312 194.898438 435.933594 197.195312 437.261719 199.597656 C 438.589844 202 439.742188 204.480469 440.722656 207.042969 C 441.703125 209.605469 442.5 212.222656 443.113281 214.898438 C 443.726562 217.574219 444.148438 220.277344 444.386719 223.011719 C 444.621094 225.746094 444.664062 228.480469 444.515625 231.21875 C 444.367188 233.960938 444.027344 236.675781 443.5 239.367188 C 442.972656 242.0625 442.257812 244.703125 441.359375 247.296875 L 526.488281 332.425781 C 547.078125 325.320312 570.839844 329.902344 587.28125 346.390625 C 588.644531 347.753906 589.9375 349.183594 591.160156 350.671875 C 592.386719 352.164062 593.535156 353.710938 594.605469 355.3125 C 595.675781 356.914062 596.667969 358.566406 597.578125 360.269531 C 598.488281 361.96875 599.3125 363.710938 600.050781 365.492188 C 600.789062 367.273438 601.4375 369.085938 601.996094 370.929688 C 602.558594 372.777344 603.023438 374.644531 603.402344 376.535156 C 603.777344 378.425781 604.0625 380.332031 604.25 382.25 C 604.441406 384.171875 604.535156 386.09375 604.535156 388.023438 C 604.535156 389.949219 604.441406 391.875 604.25 393.792969 C 604.0625 395.714844 603.78125 397.617188 603.402344 399.507812 C 603.027344 401.402344 602.558594 403.269531 602 405.113281 C 601.441406 406.960938 600.792969 408.773438 600.054688 410.554688 C 599.316406 412.335938 598.492188 414.078125 597.582031 415.777344 C 596.671875 417.480469 595.683594 419.132812 594.613281 420.734375 C 593.539062 422.335938 592.394531 423.886719 591.167969 425.375 C 589.945312 426.867188 588.652344 428.292969 587.289062 429.65625 C 585.925781 431.019531 584.496094 432.3125 583.007812 433.535156 C 581.515625 434.757812 579.96875 435.90625 578.363281 436.976562 C 576.761719 438.046875 575.109375 439.039062 573.40625 439.945312 C 571.707031 440.855469 569.964844 441.679688 568.183594 442.417969 C 566.402344 443.152344 564.589844 443.800781 562.742188 444.359375 C 560.898438 444.921875 559.027344 445.386719 557.136719 445.761719 C 555.246094 446.140625 553.339844 446.421875 551.421875 446.609375 C 549.5 446.796875 547.578125 446.890625 545.648438 446.890625 C 543.722656 446.890625 541.796875 446.792969 539.878906 446.605469 C 537.960938 446.414062 536.054688 446.132812 534.164062 445.753906 C 532.273438 445.378906 530.402344 444.910156 528.558594 444.347656 C 526.714844 443.789062 524.898438 443.136719 523.117188 442.398438 C 521.335938 441.660156 519.597656 440.835938 517.898438 439.925781 C 516.195312 439.015625 514.546875 438.023438 512.941406 436.953125 C 511.339844 435.878906 509.792969 434.730469 508.304688 433.507812 C 506.8125 432.28125 505.386719 430.988281 504.023438 429.625 C 486.742188 412.34375 482.472656 386.902344 491.207031 365.617188 L 411.816406 286.222656 L 411.816406 495.144531 C 417.617188 498.015625 422.816406 501.726562 427.414062 506.28125 C 428.777344 507.644531 430.070312 509.070312 431.292969 510.558594 C 432.515625 512.050781 433.664062 513.597656 434.734375 515.199219 C 435.804688 516.800781 436.796875 518.453125 437.703125 520.152344 C 438.613281 521.851562 439.4375 523.59375 440.175781 525.375 C 440.910156 527.15625 441.558594 528.96875 442.121094 530.8125 C 442.679688 532.65625 443.148438 534.523438 443.523438 536.414062 C 443.898438 538.304688 444.179688 540.207031 444.371094 542.128906 C 444.558594 544.046875 444.652344 545.96875 444.652344 547.894531 C 444.652344 549.824219 444.558594 551.746094 444.371094 553.664062 C 444.179688 555.582031 443.898438 557.488281 443.523438 559.378906 C 443.148438 561.269531 442.679688 563.136719 442.121094 564.980469 C 441.558594 566.824219 440.910156 568.636719 440.175781 570.417969 C 439.4375 572.199219 438.613281 573.941406 437.703125 575.640625 C 436.796875 577.339844 435.804688 578.992188 434.734375 580.59375 C 433.664062 582.195312 432.515625 583.742188 431.292969 585.234375 C 430.070312 586.722656 428.777344 588.148438 427.414062 589.511719 C 426.054688 590.875 424.625 592.167969 423.136719 593.390625 C 421.648438 594.613281 420.101562 595.761719 418.496094 596.832031 C 416.894531 597.902344 415.242188 598.890625 413.542969 599.800781 C 411.84375 600.710938 410.101562 601.53125 408.324219 602.269531 C 406.542969 603.007812 404.730469 603.65625 402.882812 604.214844 C 401.039062 604.773438 399.171875 605.242188 397.28125 605.617188 C 395.390625 605.996094 393.488281 606.277344 391.570312 606.464844 C 389.652344 606.65625 387.726562 606.75 385.800781 606.75 C 383.871094 606.75 381.949219 606.65625 380.03125 606.464844 C 378.113281 606.277344 376.207031 605.996094 374.316406 605.617188 C 372.425781 605.242188 370.558594 604.773438 368.714844 604.214844 C 366.871094 603.65625 365.058594 603.007812 363.277344 602.269531 C 361.496094 601.53125 359.757812 600.710938 358.054688 599.800781 C 356.355469 598.890625 354.707031 597.902344 353.101562 596.832031 C 351.5 595.761719 349.953125 594.613281 348.464844 593.390625 C 346.972656 592.167969 345.546875 590.875 344.183594 589.511719 C 342.820312 588.148438 341.523438 586.722656 340.300781 585.234375 C 339.078125 583.746094 337.929688 582.199219 336.855469 580.597656 C 335.785156 578.996094 334.792969 577.34375 333.882812 575.644531 C 332.972656 573.945312 332.148438 572.203125 331.410156 570.421875 C 330.671875 568.640625 330.023438 566.828125 329.460938 564.984375 C 328.902344 563.140625 328.433594 561.269531 328.054688 559.378906 C 327.679688 557.488281 327.398438 555.585938 327.207031 553.667969 C 327.019531 551.746094 326.921875 549.824219 326.921875 547.894531 C 326.921875 545.96875 327.019531 544.042969 327.207031 542.125 C 327.398438 540.207031 327.679688 538.300781 328.054688 536.410156 C 328.433594 534.519531 328.902344 532.652344 329.460938 530.808594 C 330.023438 528.964844 330.671875 527.148438 331.410156 525.371094 C 332.148438 523.589844 332.972656 521.847656 333.882812 520.148438 C 334.792969 518.449219 335.785156 516.796875 336.855469 515.195312 C 337.929688 513.59375 339.078125 512.046875 340.300781 510.558594 C 341.523438 509.066406 342.820312 507.640625 344.183594 506.28125 C 349.871094 500.617188 356.183594 496.320312 363.457031 493.441406 L 363.457031 282.574219 C 356.449219 279.695312 349.871094 275.449219 344.183594 269.734375 C 343.15625 268.710938 342.171875 267.648438 341.222656 266.550781 C 340.277344 265.453125 339.371094 264.324219 338.507812 263.160156 C 337.644531 261.996094 336.824219 260.800781 336.046875 259.574219 C 335.273438 258.347656 334.542969 257.097656 333.863281 255.816406 C 333.179688 254.539062 332.542969 253.234375 331.957031 251.910156 C 331.371094 250.582031 330.835938 249.238281 330.347656 247.871094 C 329.863281 246.503906 329.425781 245.125 329.042969 243.726562 C 328.65625 242.328125 328.324219 240.917969 328.042969 239.496094 C 327.765625 238.070312 327.539062 236.640625 327.363281 235.203125 C 327.1875 233.761719 327.066406 232.316406 327 230.871094 C 326.933594 229.421875 326.917969 227.972656 326.957031 226.523438 C 327 225.074219 327.089844 223.628906 327.238281 222.183594 C 327.382812 220.742188 327.585938 219.308594 327.835938 217.878906 C 328.089844 216.453125 328.394531 215.035156 328.753906 213.628906 C 329.109375 212.226562 329.519531 210.835938 329.980469 209.460938 C 330.441406 208.085938 330.953125 206.730469 331.511719 205.390625 L 244.390625 118.320312 L 14.472656 348 C 13.324219 349.144531 12.238281 350.34375 11.210938 351.597656 C 10.179688 352.847656 9.214844 354.148438 8.316406 355.496094 C 7.414062 356.839844 6.582031 358.230469 5.816406 359.65625 C 5.050781 361.085938 4.359375 362.550781 3.738281 364.046875 C 3.117188 365.542969 2.574219 367.066406 2.101562 368.617188 C 1.632812 370.167969 1.238281 371.738281 0.921875 373.328125 C 0.605469 374.917969 0.367188 376.519531 0.210938 378.128906 C 0.0507812 379.742188 -0.0273438 381.359375 -0.0273438 382.980469 C -0.0273438 384.601562 0.0507812 386.21875 0.210938 387.828125 C 0.367188 389.441406 0.605469 391.042969 0.921875 392.632812 C 1.238281 394.222656 1.632812 395.792969 2.101562 397.34375 C 2.574219 398.894531 3.117188 400.417969 3.738281 401.914062 C 4.359375 403.410156 5.050781 404.875 5.816406 406.300781 C 6.582031 407.730469 7.414062 409.117188 8.316406 410.464844 C 9.214844 411.8125 10.179688 413.113281 11.210938 414.363281 C 12.238281 415.617188 13.324219 416.816406 14.472656 417.960938 L 349.800781 753.238281 C 350.945312 754.386719 352.144531 755.472656 353.394531 756.5 C 354.648438 757.527344 355.945312 758.492188 357.292969 759.390625 C 358.640625 760.292969 360.027344 761.125 361.457031 761.886719 C 362.882812 762.652344 364.347656 763.34375 365.84375 763.964844 C 367.339844 764.582031 368.863281 765.128906 370.410156 765.597656 C 371.960938 766.070312 373.53125 766.460938 375.121094 766.777344 C 376.707031 767.09375 378.308594 767.332031 379.921875 767.492188 C 381.53125 767.648438 383.148438 767.730469 384.769531 767.730469 C 386.386719 767.730469 388.003906 767.648438 389.617188 767.492188 C 391.226562 767.332031 392.828125 767.09375 394.417969 766.777344 C 396.003906 766.460938 397.574219 766.070312 399.125 765.597656 C 400.675781 765.128906 402.195312 764.582031 403.695312 763.964844 C 405.191406 763.34375 406.652344 762.652344 408.082031 761.886719 C 409.507812 761.125 410.894531 760.292969 412.242188 759.390625 C 413.589844 758.492188 414.890625 757.527344 416.140625 756.5 C 417.390625 755.472656 418.589844 754.386719 419.734375 753.238281 L 753.503906 420 C 754.652344 418.855469 755.738281 417.65625 756.765625 416.402344 C 757.796875 415.152344 758.761719 413.851562 759.660156 412.503906 C 760.5625 411.160156 761.394531 409.769531 762.160156 408.34375 C 762.921875 406.914062 763.617188 405.449219 764.234375 403.953125 C 764.855469 402.457031 765.402344 400.933594 765.875 399.382812 C 766.34375 397.832031 766.738281 396.261719 767.054688 394.671875 C 767.371094 393.082031 767.609375 391.480469 767.765625 389.871094 C 767.925781 388.257812 768.003906 386.640625 768.003906 385.019531 C 768.003906 383.398438 767.925781 381.78125 767.765625 380.171875 C 767.609375 378.558594 767.371094 376.957031 767.054688 375.367188 C 766.738281 373.777344 766.34375 372.207031 765.875 370.65625 C 765.402344 369.105469 764.855469 367.582031 764.234375 366.085938 C 763.617188 364.589844 762.921875 363.125 762.160156 361.699219 C 761.394531 360.269531 760.5625 358.882812 759.660156 357.535156 C 758.761719 356.1875 757.796875 354.886719 756.765625 353.636719 C 755.738281 352.382812 754.652344 351.183594 753.503906 350.039062 " fill-opacity="1" fill-rule="nonzero"/></svg>