<svg xmlns="http://www.w3.org/2000/svg" xmlns:xlink="http://www.w3.org/1999/xlink" width="1024" zoomAndPan="magnify" viewBox="0 0 768 767.999994" height="1024" preserveAspectRatio="xMidYMid meet" version="1.0"><defs><clipPath id="04ed7aa398"><path d="M 112 150 L 656.210938 150 L 656.210938 768 L 112 768 Z M 112 150 " clip-rule="nonzero"/></clipPath></defs><g clip-path="url(#04ed7aa398)"><path fill="#e44d26" d="M 656.0625 150.925781 L 606.503906 706.207031 L 383.722656 767.96875 L 161.5625 706.292969 L 112.058594 150.925781 L 656.050781 150.917969 L 656.074219 150.917969 Z M 656.0625 150.925781 " fill-opacity="1" fill-rule="nonzero"/></g><path fill="#f16529" d="M 384.066406 720.761719 L 564.089844 670.855469 L 606.4375 196.339844 L 384.066406 196.332031 Z M 384.066406 720.761719 " fill-opacity="1" fill-rule="nonzero"/><path fill="#ebebeb" d="M 287.722656 332.558594 L 384.066406 332.558594 L 384.066406 264.4375 L 213.292969 264.4375 L 214.921875 282.714844 L 231.660156 470.417969 L 384.066406 470.417969 L 384.066406 402.320312 L 293.945312 402.320312 Z M 287.722656 332.558594 " fill-opacity="1" fill-rule="nonzero"/><path fill="#ebebeb" d="M 303.070312 504.476562 L 234.703125 504.476562 L 244.246094 611.433594 L 383.746094 650.167969 L 384.066406 650.082031 L 384.066406 579.210938 L 383.765625 579.296875 L 307.917969 558.800781 L 303.070312 504.480469 Z M 303.070312 504.476562 " fill-opacity="1" fill-rule="nonzero"/><path fill="#000000" d="M 162.675781 0 L 197.285156 0 L 197.285156 34.199219 L 228.945312 34.199219 L 228.945312 0 L 263.554688 0 L 263.554688 103.5625 L 228.945312 103.5625 L 228.945312 68.882812 L 197.285156 68.882812 L 197.285156 103.5625 L 162.675781 103.5625 Z M 162.675781 0 " fill-opacity="1" fill-rule="nonzero"/><path fill="#000000" d="M 309.070312 34.34375 L 278.601562 34.34375 L 278.601562 0 L 374.171875 0 L 374.171875 34.34375 L 343.675781 34.34375 L 343.675781 103.5625 L 309.070312 103.5625 Z M 309.070312 34.34375 " fill-opacity="1" fill-rule="nonzero"/><path fill="#000000" d="M 389.332031 0 L 425.414062 0 L 447.613281 36.390625 L 469.789062 0 L 505.894531 0 L 505.894531 103.5625 L 471.433594 103.5625 L 471.433594 52.230469 L 447.613281 89.050781 L 447.015625 89.050781 L 423.195312 52.230469 L 423.195312 103.5625 L 389.332031 103.5625 Z M 389.332031 0 " fill-opacity="1" fill-rule="nonzero"/><path fill="#000000" d="M 523.125 0 L 557.734375 0 L 557.734375 69.332031 L 606.417969 69.332031 L 606.417969 103.5625 L 523.125 103.5625 Z M 523.125 0 " fill-opacity="1" fill-rule="nonzero"/><path fill="#ffffff" d="M 383.832031 470.417969 L 467.699219 470.417969 L 459.789062 558.757812 L 383.832031 579.273438 L 383.832031 650.125 L 523.445312 611.433594 L 524.46875 599.917969 L 540.480469 420.597656 L 542.144531 402.320312 L 383.832031 402.320312 Z M 383.832031 470.417969 " fill-opacity="1" fill-rule="nonzero"/><path fill="#ffffff" d="M 383.832031 332.386719 L 383.832031 332.558594 L 548.328125 332.558594 L 549.695312 317.246094 L 552.808594 282.714844 L 554.429688 264.4375 L 383.832031 264.4375 Z M 383.832031 332.386719 " fill-opacity="1" fill-rule="nonzero"/></svg>