<svg xmlns="http://www.w3.org/2000/svg" xmlns:xlink="http://www.w3.org/1999/xlink" width="1024" zoomAndPan="magnify" viewBox="0 0 768 767.999994" height="1024" preserveAspectRatio="xMidYMid meet" version="1.0"><defs><clipPath id="21ea9a4b57"><path d="M 0 500 L 768 500 L 768 729.898438 L 0 729.898438 Z M 0 500 " clip-rule="nonzero"/></clipPath></defs><path fill="#555588" d="M 76.472656 293.261719 C 76.472656 280.558594 72.164062 271.515625 63.507812 266.148438 C 54.851562 260.785156 42.554688 258.101562 26.199219 258.101562 L 26.199219 211.160156 C 34.320312 211.160156 41.523438 210.585938 47.804688 209.386719 C 54.21875 208.074219 59.582031 206.035156 63.910156 203.292969 C 68.21875 200.417969 71.4375 196.742188 73.535156 192.296875 C 75.757812 187.839844 76.742188 182.476562 76.484375 176.179688 L 76.484375 113.71875 C 76.484375 104.023438 77.730469 95.773438 80.3125 88.960938 C 81.558594 85.492188 83.320312 82.308594 85.609375 79.417969 C 87.894531 76.523438 90.582031 74.074219 93.671875 72.0625 C 100.222656 67.609375 109.050781 64.332031 120.199219 62.242188 C 131.34375 60.15625 145.480469 59.101562 162.621094 59.101562 L 162.621094 103.304688 C 157.382812 103.4375 152.605469 103.898438 148.285156 104.683594 C 144.089844 105.46875 140.5 106.90625 137.484375 108.996094 C 134.609375 110.960938 132.378906 113.707031 130.808594 117.234375 C 129.238281 120.757812 128.453125 125.359375 128.453125 130.992188 L 128.453125 189.738281 C 127.667969 214.234375 112.347656 228.769531 82.488281 233.355469 L 82.488281 235.714844 C 97.542969 237.9375 109.0625 242.660156 116.960938 249.863281 C 124.863281 257.066406 128.742188 266.820312 128.453125 279.140625 L 128.453125 337.886719 C 128.453125 343.519531 129.238281 348.101562 130.808594 351.644531 C 132.378906 355.1875 134.601562 357.929688 137.484375 359.882812 C 140.492188 361.992188 144.1875 363.429688 148.285156 364.195312 C 153.027344 365.023438 157.808594 365.484375 162.621094 365.574219 L 162.621094 409.980469 C 145.382812 409.980469 131.324219 409.019531 120.199219 406.835938 C 109.070312 404.652344 100.234375 401.472656 93.671875 397.015625 C 90.582031 395.007812 87.894531 392.554688 85.609375 389.664062 C 83.320312 386.769531 81.558594 383.589844 80.3125 380.117188 C 77.824219 373.171875 76.484375 364.855469 76.484375 355.160156 L 76.484375 293.273438 M 188.238281 318.21875 C 188.238281 312.058594 189.195312 306.886719 190.792969 302.699219 C 192.707031 298.386719 195.101562 294.910156 198.261719 292.285156 C 201.421875 289.660156 204.964844 287.761719 209.257812 286.585938 C 213.691406 285.371094 218.207031 284.777344 222.804688 284.8125 C 227.210938 284.785156 231.535156 285.375 235.773438 286.585938 C 239.957031 287.761719 243.625 289.652344 246.765625 292.285156 C 249.90625 294.917969 252.394531 298.378906 254.234375 302.699219 C 256.148438 306.894531 256.984375 312.070312 256.984375 318.21875 C 256.984375 324.109375 256.0625 329.160156 254.234375 333.355469 C 252.40625 337.550781 249.925781 341.019531 246.765625 343.769531 C 243.550781 346.570312 239.886719 348.535156 235.773438 349.660156 C 231.710938 350.972656 227.394531 351.625 222.804688 351.625 C 217.960938 351.625 213.441406 350.972656 209.257812 349.660156 C 205.140625 348.535156 201.476562 346.570312 198.261719 343.769531 C 194.992188 340.859375 192.503906 337.386719 190.792969 333.355469 C 189.089844 329.167969 188.238281 324.121094 188.238281 318.21875 M 299.023438 443.070312 C 292.511719 443.050781 286.03125 442.589844 279.582031 441.691406 C 272.90625 440.769531 267.34375 439.582031 262.890625 438.144531 L 262.890625 390.992188 C 266.613281 392.21875 270.40625 393.136719 274.277344 393.738281 C 277.820312 394.390625 281.804688 394.71875 286.246094 394.71875 C 289.417969 394.738281 292.496094 394.214844 295.480469 393.144531 C 297 392.679688 298.414062 391.992188 299.71875 391.085938 C 301.027344 390.179688 302.167969 389.097656 303.140625 387.839844 C 305.363281 385.347656 307.132812 381.945312 308.445312 377.625 C 309.757812 373.441406 310.40625 367.996094 310.40625 361.320312 L 310.40625 126.652344 L 370.304688 126.652344 L 370.304688 369.992188 C 370.304688 380.078125 368.996094 389.503906 366.476562 398.28125 C 363.984375 407.191406 359.773438 414.914062 354.105469 421.464844 C 348.472656 428.144531 341.136719 433.382812 332.105469 437.175781 C 323.078125 440.972656 312.074219 442.878906 299.117188 442.878906 M 307.957031 69.78125 C 307.957031 64.148438 308.914062 59.503906 310.511719 55.835938 C 312.066406 52.261719 314.359375 49.25 317.390625 46.800781 C 320.492188 44.386719 323.964844 42.75 327.796875 41.886719 C 332 40.949219 336.257812 40.488281 340.5625 40.503906 C 344.808594 40.480469 349 40.941406 353.136719 41.886719 C 356.96875 42.804688 360.472656 44.441406 363.34375 46.800781 C 366.351562 49.023438 368.707031 52.039062 370.410156 55.835938 C 372.328125 59.503906 373.160156 64.148438 373.160156 69.78125 C 373.160156 75.28125 372.242188 79.9375 370.410156 83.730469 C 368.707031 87.535156 366.351562 90.609375 363.34375 92.96875 C 360.472656 95.191406 357.0625 96.828125 353.136719 97.882812 C 349.304688 98.800781 345.015625 99.261719 340.574219 99.261719 C 336.265625 99.277344 332.011719 98.816406 327.808594 97.882812 C 324.023438 96.910156 320.554688 95.269531 317.398438 92.96875 C 314.527344 90.609375 312.226562 87.535156 310.523438 83.730469 C 308.820312 79.929688 307.964844 75.28125 307.964844 69.78125 M 578.394531 281.085938 C 578.394531 292.609375 576.289062 302.699219 572.113281 311.339844 C 570.058594 315.617188 567.519531 319.582031 564.496094 323.238281 C 561.472656 326.894531 558.054688 330.132812 554.242188 332.953125 C 546.515625 338.703125 537.160156 343.042969 526.15625 345.914062 C 515.152344 348.789062 502.847656 350.226562 489.242188 350.226562 C 482.039062 350.226562 475.355469 349.96875 469.207031 349.441406 C 463.335938 349.089844 457.511719 348.367188 451.730469 347.277344 L 435.835938 343.445312 C 430.542969 341.800781 425.371094 339.835938 420.320312 337.550781 L 420.320312 287.867188 C 425.820312 290.617188 431.582031 293.109375 437.605469 295.339844 L 455.867188 301.234375 L 473.34375 305.066406 C 479.109375 305.984375 484.40625 306.445312 489.242188 306.445312 C 494.605469 306.445312 499.199219 305.984375 502.992188 305.066406 C 506.335938 304.292969 509.414062 302.917969 512.222656 300.945312 C 514.550781 299.324219 516.320312 297.230469 517.527344 294.660156 C 518.707031 292.171875 519.300781 289.554688 519.300781 286.804688 C 519.300781 284.054688 518.839844 281.632812 517.921875 279.523438 C 517.136719 277.300781 515.238281 275.003906 512.222656 272.644531 C 509.214844 270.15625 504.753906 267.40625 498.863281 264.40625 L 475.5 252.910156 L 450.5625 240.140625 C 443.621094 235.828125 437.867188 231.039062 433.277344 225.796875 C 428.824219 220.558594 425.492188 214.589844 423.261719 207.921875 C 421.03125 201.253906 419.910156 193.050781 419.910156 183.757812 C 419.910156 173.546875 421.875 164.636719 425.800781 156.933594 C 429.628906 149.203125 435.375 142.785156 442.492188 137.773438 C 449.605469 132.765625 458.328125 128.863281 468.414062 126.277344 C 478.621094 123.664062 489.960938 122.445312 502.390625 122.445312 C 515.480469 122.445312 527.917969 123.949219 539.699219 126.96875 C 551.476562 129.984375 563.589844 134.496094 576.027344 140.523438 L 557.863281 183.445312 C 548.601562 179.007812 539.109375 175.144531 529.382812 171.851562 C 520.355469 168.84375 511.3125 167.328125 502.285156 167.328125 C 494.164062 167.328125 488.273438 168.765625 484.605469 171.640625 C 481.0625 174.515625 479.300781 178.347656 479.300781 183.425781 C 479.300781 186.039062 479.761719 188.40625 480.679688 190.496094 C 481.597656 192.457031 483.429688 194.554688 486.175781 196.777344 C 488.925781 198.886719 492.878906 201.234375 497.667969 203.847656 L 517.109375 213.085938 L 542.246094 225.25 C 549.714844 229.082031 556.128906 233.703125 561.398438 238.808594 C 566.664062 243.914062 570.972656 249.875 573.769531 256.683594 C 576.566406 263.496094 578.078125 271.746094 578.078125 281.441406 M 684.976562 355.152344 C 684.976562 364.847656 683.730469 373.160156 681.144531 380.109375 C 678.558594 387.054688 674.15625 392.6875 667.59375 397.007812 C 661.179688 401.460938 652.40625 404.738281 641.28125 406.828125 C 630.152344 408.914062 616 409.96875 598.859375 409.96875 L 598.859375 365.46875 C 603.609375 365.382812 608.324219 364.921875 613.003906 364.089844 C 617.1875 363.304688 620.730469 361.867188 623.601562 359.777344 C 625.128906 358.773438 626.476562 357.566406 627.648438 356.160156 C 628.820312 354.757812 629.761719 353.210938 630.476562 351.53125 C 632.183594 347.984375 633.035156 343.40625 633.035156 337.773438 L 633.035156 279.027344 C 632.652344 266.714844 636.433594 256.953125 644.527344 249.75 C 652.617188 242.542969 663.964844 237.832031 679 235.597656 L 679 233.242188 C 649.277344 228.644531 634.03125 214.121094 633.246094 189.621094 L 633.246094 130.875 C 633.246094 125.242188 632.289062 120.664062 630.6875 117.117188 C 629.972656 115.4375 629.03125 113.890625 627.859375 112.488281 C 626.6875 111.082031 625.339844 109.875 623.8125 108.871094 C 620.941406 106.761719 617.398438 105.324219 613.210938 104.558594 C 608.535156 103.734375 603.820312 103.273438 599.070312 103.179688 L 599.070312 58.976562 C 616.304688 58.976562 630.363281 59.933594 641.492188 62.117188 C 652.617188 64.304688 661.390625 67.484375 667.804688 71.9375 C 674.355469 76.25 678.867188 81.902344 681.355469 88.839844 C 683.847656 95.542969 685.1875 103.898438 685.1875 113.59375 L 685.1875 176.058594 C 685.050781 182.339844 686.144531 187.714844 688.136719 192.171875 C 690.128906 196.625 693.441406 200.296875 697.761719 203.167969 C 702.070312 205.917969 707.382812 207.960938 713.65625 209.261719 C 720.070312 210.441406 727.351562 211.035156 735.453125 211.035156 L 735.453125 257.976562 C 719.171875 257.976562 706.578125 260.660156 697.941406 266.027344 C 689.324219 271.390625 685.175781 280.433594 685.175781 293.136719 L 685.175781 355.027344 " fill-opacity="1" fill-rule="nonzero"/><path fill="#000000" d="M 17.667969 714.382812 C 14.796875 714.382812 12.304688 714.191406 10.179688 713.789062 C 8.042969 713.453125 6.195312 712.972656 4.625 712.351562 L 4.625 698.863281 C 6.648438 699.390625 8.699219 699.785156 10.773438 700.039062 C 13.117188 700.390625 15.472656 700.558594 17.839844 700.546875 C 19.953125 700.542969 22.027344 700.261719 24.066406 699.707031 C 26.203125 699.207031 28.109375 698.25 29.792969 696.839844 C 31.535156 695.433594 32.933594 693.488281 34.003906 691.035156 C 35.078125 688.582031 35.605469 685.421875 35.605469 681.609375 L 35.605469 558.511719 L 51.347656 558.511719 L 51.347656 679.933594 C 51.347656 685.824219 50.503906 690.929688 48.820312 695.261719 C 47.347656 699.363281 45.046875 702.925781 41.914062 705.953125 C 38.882812 708.898438 35.347656 711.003906 31.3125 712.265625 C 27.214844 713.671875 21.621094 714.371094 16.632812 714.371094 M 129.5625 668.820312 L 128.894531 668.820312 C 127.210938 671.152344 125.359375 673.339844 123.339844 675.390625 C 121.527344 677.160156 119.507812 678.648438 117.277344 679.855469 C 114.960938 681.078125 112.519531 681.953125 109.953125 682.472656 C 107.25 683.046875 104.148438 683.3125 100.605469 683.3125 C 96.738281 683.3125 93.175781 682.738281 89.917969 681.628906 C 86.6875 680.644531 83.851562 678.984375 81.414062 676.644531 C 79.058594 674.347656 77.203125 671.472656 75.863281 668.0625 C 74.519531 664.585938 73.945312 660.398438 73.945312 655.769531 C 73.945312 646.574219 77.171875 639.484375 83.523438 634.550781 C 90.035156 629.605469 99.800781 626.914062 113.152344 626.464844 L 128.636719 625.871094 L 128.636719 620.066406 C 128.636719 616.300781 128.214844 613.167969 127.371094 610.636719 C 126.585938 608.109375 125.40625 606.085938 123.828125 604.574219 C 122.222656 602.933594 120.3125 601.808594 118.101562 601.203125 C 115.566406 600.488281 112.984375 600.152344 110.355469 600.195312 C 105.898438 600.160156 101.550781 600.832031 97.3125 602.207031 C 93.347656 603.546875 89.503906 605.175781 85.78125 607.09375 L 80.402344 595.558594 C 84.558594 593.316406 89.183594 591.402344 94.285156 589.828125 C 99.527344 588.234375 104.886719 587.449219 110.363281 587.472656 C 116.089844 587.472656 121.023438 588.066406 125.179688 589.246094 C 129.390625 590.367188 132.839844 592.195312 135.519531 594.707031 C 138.390625 597.347656 140.4375 600.515625 141.667969 604.21875 C 143.027344 608.078125 143.582031 612.785156 143.582031 618.28125 L 143.582031 681.617188 L 132.628906 681.617188 Z M 104.667969 670.878906 C 107.929688 670.910156 111.101562 670.375 114.175781 669.277344 C 117.058594 668.253906 119.578125 666.65625 121.742188 664.488281 C 123.875 662.304688 125.53125 659.574219 126.71875 656.324219 C 127.964844 653.011719 128.566406 649.140625 128.566406 644.707031 L 128.566406 636.371094 L 116.53125 636.964844 C 111.484375 637.183594 107.242188 637.75 103.824219 638.652344 C 100.40625 639.550781 97.648438 640.816406 95.589844 642.445312 C 93.671875 644.015625 92.113281 645.949219 91.210938 648.25 C 90.269531 650.71875 89.816406 653.273438 89.863281 655.914062 C 89.863281 661.085938 91.203125 664.871094 93.902344 667.285156 C 96.652344 669.699219 100.242188 670.90625 104.675781 670.90625 M 156.578125 589.167969 L 172.398438 589.167969 L 189.15625 640.613281 L 191.359375 647.769531 L 193.886719 656.699219 L 196.15625 665.285156 L 197.59375 671.433594 L 198.1875 671.433594 L 199.621094 665.285156 L 201.890625 656.699219 L 204.421875 647.769531 L 206.621094 640.613281 L 223.378906 589.167969 L 239.199219 589.167969 L 207.5625 681.617188 L 188.121094 681.617188 Z M 301.722656 668.820312 L 301.050781 668.820312 C 299.367188 671.152344 297.515625 673.339844 295.5 675.390625 C 293.648438 677.179688 291.582031 678.679688 289.308594 679.882812 C 287.03125 681.085938 284.632812 681.949219 282.109375 682.472656 C 279.410156 683.046875 276.308594 683.3125 272.765625 683.3125 C 268.894531 683.3125 265.332031 682.738281 262.078125 681.628906 C 258.847656 680.644531 256.011719 678.984375 253.574219 676.644531 C 251.21875 674.347656 249.359375 671.472656 248.019531 668.0625 C 246.679688 664.585938 246.105469 660.398438 246.105469 655.769531 C 246.105469 646.574219 249.332031 639.484375 255.679688 634.550781 C 262.191406 629.605469 271.960938 626.914062 285.308594 626.464844 L 300.792969 625.871094 L 300.792969 620.066406 C 300.792969 616.300781 300.371094 613.167969 299.53125 610.636719 C 298.746094 608.109375 297.566406 606.085938 295.988281 604.574219 C 294.382812 602.933594 292.472656 601.808594 290.261719 601.203125 C 287.726562 600.488281 285.144531 600.152344 282.511719 600.195312 C 278.054688 600.160156 273.710938 600.832031 269.46875 602.207031 C 265.503906 603.546875 261.660156 605.175781 257.941406 607.09375 L 252.558594 595.558594 C 256.714844 593.316406 261.339844 591.402344 266.445312 589.828125 C 271.6875 588.234375 277.050781 587.445312 282.53125 587.472656 C 288.257812 587.472656 293.191406 588.066406 297.347656 589.246094 C 301.558594 590.367188 305.007812 592.195312 307.6875 594.707031 C 310.558594 597.347656 312.605469 600.515625 313.835938 604.21875 C 315.195312 608.078125 315.75 612.785156 315.75 618.28125 L 315.75 681.617188 L 304.738281 681.617188 Z M 276.824219 670.925781 C 280.089844 670.957031 283.257812 670.421875 286.332031 669.328125 C 289.214844 668.300781 291.738281 666.703125 293.898438 664.535156 C 296.035156 662.332031 297.691406 659.621094 298.878906 656.375 C 300.125 653.058594 300.726562 649.1875 300.726562 644.753906 L 300.726562 636.417969 L 288.691406 637.011719 C 283.644531 637.234375 279.402344 637.796875 275.980469 638.699219 C 272.5625 639.597656 269.804688 640.863281 267.746094 642.492188 C 265.832031 644.0625 264.269531 646 263.371094 648.296875 C 262.425781 650.765625 261.976562 653.320312 262.019531 655.960938 C 262.019531 661.136719 263.359375 664.917969 266.0625 667.335938 C 268.808594 669.75 272.402344 670.957031 276.835938 670.957031 M 410.257812 648.699219 C 410.257812 654.140625 409.269531 659.027344 407.308594 663.359375 C 405.417969 667.628906 402.667969 671.25 399.0625 674.222656 C 395.472656 677.097656 391.097656 679.472656 385.945312 681.042969 C 380.773438 682.558594 374.96875 683.3125 368.515625 683.3125 C 362.632812 683.34375 356.800781 682.839844 351.011719 681.800781 C 345.621094 680.84375 341.109375 679.40625 337.460938 677.507812 L 337.460938 662.523438 L 343.945312 665.207031 L 351.605469 667.476562 L 359.933594 669.164062 C 362.757812 669.550781 365.589844 669.75 368.4375 669.757812 C 377.410156 669.757812 384.046875 668.070312 388.300781 664.710938 C 392.609375 661.335938 394.78125 656.519531 394.78125 650.222656 C 394.839844 647.507812 394.417969 644.871094 393.519531 642.308594 C 392.734375 640.070312 391.316406 638.019531 389.230469 636.160156 C 387.3125 634.242188 384.488281 632.328125 381.058594 630.699219 C 376.855469 628.503906 372.53125 626.566406 368.09375 624.894531 C 363.554688 623.152344 359.207031 621.019531 355.050781 618.492188 C 351.414062 616.136719 348.378906 613.492188 345.953125 610.582031 C 343.597656 607.660156 341.835938 604.351562 340.648438 600.644531 C 339.527344 596.9375 338.964844 592.730469 338.964844 588.019531 C 338.964844 583.074219 339.863281 578.679688 341.644531 574.796875 C 343.40625 570.945312 345.929688 567.691406 349.21875 565.027344 C 352.6875 562.207031 356.558594 560.160156 360.835938 558.875 C 365.382812 557.476562 370.375 556.769531 375.8125 556.769531 C 382.488281 556.769531 388.492188 557.410156 393.816406 558.703125 C 399.148438 559.949219 403.890625 561.539062 408.035156 563.492188 L 402.289062 576.617188 C 398.652344 574.988281 394.496094 573.589844 389.839844 572.402344 C 385.152344 571.15625 380.386719 570.539062 375.535156 570.554688 C 368.6875 570.554688 363.375 572.152344 359.636719 575.34375 C 358.707031 576.121094 357.871094 576.996094 357.136719 577.964844 C 356.402344 578.933594 355.785156 579.972656 355.289062 581.082031 C 354.789062 582.1875 354.425781 583.339844 354.1875 584.53125 C 353.953125 585.726562 353.855469 586.929688 353.894531 588.144531 C 353.894531 591.34375 354.3125 594.121094 355.15625 596.476562 C 356.074219 598.90625 357.472656 601.011719 359.359375 602.792969 C 361.324219 604.640625 363.910156 606.414062 367.023438 608.097656 C 370.277344 609.726562 374.261719 611.472656 378.972656 613.320312 C 383.570312 615.097656 388.03125 617.175781 392.351562 619.546875 C 395.945312 621.46875 399.171875 623.882812 402.03125 626.789062 C 404.636719 629.492188 406.570312 632.605469 407.835938 636.140625 C 409.175781 639.683594 409.894531 644.015625 409.894531 648.84375 M 466.898438 683.304688 C 461.230469 683.304688 455.925781 682.347656 451.003906 680.6875 C 446.039062 678.90625 441.746094 676.09375 438.125 672.257812 C 434.484375 668.386719 431.613281 663.472656 429.542969 657.523438 C 427.464844 651.515625 426.429688 644.304688 426.429688 635.871094 C 426.429688 627.058594 427.390625 619.585938 429.628906 613.472656 C 431.765625 607.292969 434.675781 602.304688 438.382812 598.488281 C 442.085938 594.640625 446.460938 591.828125 451.5 590.058594 C 456.480469 588.304688 461.84375 587.445312 467.589844 587.445312 C 471.90625 587.433594 476.171875 587.910156 480.382812 588.871094 C 484.03125 589.632812 487.539062 590.8125 490.90625 592.40625 L 486.359375 605.378906 C 485.066406 604.804688 483.640625 604.285156 482.070312 603.777344 C 480.496094 603.21875 478.902344 602.738281 477.28125 602.339844 C 475.59375 601.890625 473.929688 601.554688 472.300781 601.335938 C 470.769531 601.066406 469.230469 600.925781 467.675781 600.914062 C 458.867188 600.914062 452.355469 603.75 448.398438 609.421875 C 444.359375 615.035156 442.335938 623.792969 442.335938 635.691406 C 442.335938 647.53125 444.253906 656.210938 448.398438 661.710938 C 452.496094 667.152344 458.691406 669.871094 466.996094 669.871094 C 471.160156 669.921875 475.253906 669.417969 479.28125 668.359375 C 482.746094 667.382812 486.113281 666.144531 489.382812 664.652344 L 489.382812 678.292969 C 486.289062 679.957031 483.035156 681.191406 479.617188 682 C 476.199219 682.84375 471.765625 683.265625 466.765625 683.265625 M 550.746094 587.484375 L 556.207031 587.730469 C 557.960938 587.8125 559.699219 588.011719 561.425781 588.324219 L 559.511719 602.476562 L 554.722656 601.804688 C 553.09375 601.574219 551.5625 601.46875 550.097656 601.46875 C 546.554688 601.46875 543.335938 602.199219 540.519531 603.652344 C 537.515625 605.113281 534.992188 607.164062 532.945312 609.804688 C 530.71875 612.691406 529.125 615.890625 528.15625 619.402344 C 526.984375 623.445312 526.421875 627.574219 526.472656 631.78125 L 526.472656 681.617188 L 511.152344 681.617188 L 511.152344 589.167969 L 523.601562 589.167969 L 525.449219 606.097656 L 526.117188 606.097656 L 530.582031 599.101562 C 532.140625 596.921875 533.941406 594.960938 535.972656 593.210938 C 537.992188 591.46875 540.234375 590.089844 542.703125 589.082031 C 545.488281 587.972656 548.382812 587.441406 551.378906 587.480469 M 593.714844 681.617188 L 578.394531 681.617188 L 578.394531 589.167969 L 593.714844 589.167969 L 593.714844 681.617188 M 579.734375 556.835938 C 580.621094 556.070312 581.617188 555.492188 582.722656 555.101562 C 583.824219 554.710938 584.960938 554.53125 586.132812 554.566406 C 587.316406 554.550781 588.464844 554.746094 589.578125 555.160156 C 590.675781 555.476562 591.632812 556.039062 592.441406 556.84375 C 593.332031 557.699219 593.976562 558.707031 594.375 559.871094 C 594.882812 561.050781 595.144531 562.488281 595.144531 564.164062 C 595.144531 567.421875 594.242188 569.863281 592.460938 571.492188 C 590.71875 573.0625 588.632812 573.847656 586.140625 573.847656 C 583.652344 573.847656 581.421875 572.671875 579.675781 571.089844 C 577.992188 569.519531 577.1875 567.066406 577.207031 563.960938 C 577.214844 560.800781 578.164062 558.347656 579.746094 556.835938 Z M 664.050781 683.292969 C 661.003906 683.328125 658.003906 682.964844 655.050781 682.203125 C 652.367188 681.472656 649.917969 680.515625 647.726562 679.328125 C 645.640625 678.132812 643.730469 676.703125 642 675.035156 C 640.398438 673.445312 638.941406 671.730469 637.621094 669.902344 L 636.617188 669.902344 L 637.125 675.363281 L 637.460938 679.914062 L 637.632812 683.535156 L 637.632812 723.023438 L 622.308594 723.023438 L 622.308594 589.167969 L 634.757812 589.167969 L 636.960938 601.621094 L 637.632812 601.621094 C 638.917969 599.664062 640.378906 597.839844 642.007812 596.152344 C 643.667969 594.382812 645.546875 592.894531 647.648438 591.6875 C 649.953125 590.347656 652.394531 589.339844 654.972656 588.660156 C 657.945312 587.835938 660.976562 587.441406 664.0625 587.480469 C 669.328125 587.480469 674.136719 588.488281 678.453125 590.507812 C 682.773438 592.53125 686.449219 595.558594 689.464844 599.609375 C 692.550781 603.597656 694.925781 608.570312 696.621094 614.519531 C 698.316406 620.46875 699.148438 627.375 699.148438 635.230469 C 699.148438 643.144531 698.304688 650.109375 696.621094 656.117188 C 694.933594 662.054688 692.550781 667.066406 689.464844 671.097656 C 686.441406 675.140625 682.761719 678.1875 678.453125 680.277344 C 674.144531 682.191406 668.273438 683.304688 663 683.304688 M 661.113281 600.195312 C 656.851562 600.195312 653.230469 600.835938 650.253906 602.128906 C 647.332031 603.425781 644.949219 605.386719 643.097656 608.023438 C 641.25 610.65625 639.957031 613.941406 639.058594 617.871094 C 638.148438 622.457031 637.671875 627.085938 637.632812 631.761719 L 637.632812 635.210938 C 637.585938 640.292969 637.949219 645.34375 638.722656 650.367188 C 639.507812 654.746094 640.800781 658.453125 642.59375 661.480469 C 644.398438 664.4375 646.839844 666.710938 649.917969 668.300781 C 652.945312 669.816406 656.734375 670.570312 661.285156 670.570312 C 668.945312 670.570312 674.402344 667.507812 677.945312 661.394531 C 681.488281 655.28125 683.328125 646.488281 683.339844 635.046875 C 683.339844 623.359375 681.539062 614.640625 677.957031 608.867188 C 674.375 603.089844 668.8125 600.195312 661.121094 600.195312 M 750.179688 670.753906 C 751.183594 670.753906 752.3125 670.660156 753.550781 670.582031 L 757.253906 670.160156 L 760.453125 669.566406 L 762.722656 668.972656 L 762.722656 680.59375 C 761.996094 680.929688 761.066406 681.265625 759.851562 681.597656 C 758.632812 681.953125 757.398438 682.234375 756.144531 682.441406 C 754.804688 682.730469 753.394531 682.921875 751.929688 683.035156 C 750.507812 683.203125 749.078125 683.285156 747.640625 683.285156 C 744.164062 683.285156 740.9375 682.835938 738.066406 681.945312 C 735.089844 681.058594 732.503906 679.515625 730.308594 677.316406 C 728.171875 675.113281 726.496094 672.179688 725.261719 668.472656 C 724.015625 664.710938 723.414062 659.996094 723.414062 654.324219 L 723.414062 600.675781 L 710.371094 600.675781 L 710.371094 593.851562 L 723.414062 587.28125 L 729.984375 567.910156 L 738.820312 567.910156 L 738.820312 589.128906 L 762.253906 589.128906 L 762.253906 600.664062 L 739.023438 600.664062 L 739.023438 654.3125 C 739.023438 659.757812 739.980469 663.855469 741.628906 666.605469 C 743.273438 669.355469 746.339844 670.726562 750.378906 670.726562 " fill-opacity="1" fill-rule="nonzero"/><g clip-path="url(#21ea9a4b57)"><path stroke-linecap="butt" transform="matrix(9.57606, 0, 0, 9.580282, -46.92269, -84.804511)" fill="none" stroke-linejoin="miter" d="M 6.745014 83.420022 C 6.445194 83.420022 6.184942 83.400043 5.963034 83.358046 C 5.739903 83.32298 5.546958 83.272829 5.382975 83.207998 L 5.382975 81.800077 C 5.594276 81.855122 5.808433 81.896303 6.025038 81.922806 C 6.269789 81.959503 6.515764 81.977035 6.762962 81.975812 C 6.983646 81.975405 7.200251 81.946047 7.413184 81.888148 C 7.636315 81.835958 7.835379 81.736062 8.011192 81.588868 C 8.193124 81.442083 8.339158 81.239029 8.450928 80.982969 C 8.563106 80.726909 8.618175 80.397049 8.618175 79.999096 L 8.618175 67.150032 L 10.262085 67.150032 L 10.262085 79.824176 C 10.262085 80.439046 10.173975 80.97196 9.998162 81.424142 C 9.844377 81.852267 9.604113 82.224125 9.276963 82.540122 C 8.960418 82.847557 8.591252 83.067328 8.169872 83.199028 C 7.741966 83.345814 7.157827 83.418799 6.636915 83.418799 M 18.429833 78.66416 L 18.360079 78.66416 C 18.184266 78.90758 17.990913 79.135913 17.780019 79.349976 C 17.590745 79.534682 17.379851 79.69003 17.14693 79.816021 C 16.905034 79.943643 16.650085 80.034977 16.382083 80.089206 C 16.099804 80.149144 15.775917 80.17687 15.405935 80.17687 C 15.002096 80.17687 14.630074 80.116932 14.28987 80.001135 C 13.952522 79.898384 13.656373 79.725096 13.401832 79.48086 C 13.155857 79.24111 12.962096 78.941014 12.82218 78.585059 C 12.681856 78.222171 12.621892 77.785076 12.621892 77.301906 C 12.621892 76.342089 12.958833 75.602044 13.622108 75.08707 C 14.302108 74.570873 15.321904 74.289941 16.716168 74.243051 L 18.333156 74.181075 L 18.333156 73.575175 C 18.333156 73.182115 18.289101 72.855109 18.200991 72.590895 C 18.118999 72.327088 17.995808 72.115879 17.831009 71.958084 C 17.663354 71.786834 17.463882 71.669406 17.233001 71.606206 C 16.968262 71.53159 16.698628 71.496524 16.424099 71.50101 C 15.958664 71.49734 15.504651 71.567471 15.06206 71.710995 C 14.648023 71.850849 14.246631 72.020876 13.857885 72.221076 L 13.296181 71.017024 C 13.730206 70.782982 14.213182 70.58319 14.745923 70.418871 C 15.293349 70.252514 15.853013 70.170559 16.424915 70.173005 C 17.022923 70.173005 17.538124 70.234981 17.972149 70.358118 C 18.411884 70.475139 18.772076 70.665961 19.051908 70.928137 C 19.351728 71.203768 19.565477 71.534444 19.693972 71.92098 C 19.835927 72.323826 19.893852 72.815151 19.893852 73.388839 L 19.893852 79.999911 L 18.750049 79.999911 Z M 15.83017 78.879038 C 16.170781 78.8823 16.502011 78.82644 16.823043 78.711865 C 17.124086 78.605038 17.387194 78.438273 17.61318 78.211978 C 17.835904 77.984052 18.008861 77.699043 18.132868 77.359804 C 18.262994 77.014042 18.325814 76.609973 18.325814 76.14719 L 18.325814 75.277076 L 17.069017 75.339052 C 16.541987 75.361886 16.098988 75.421008 15.742059 75.515195 C 15.385131 75.608975 15.097141 75.741082 14.882168 75.911109 C 14.68188 76.07502 14.51912 76.276851 14.424891 76.517009 C 14.326583 76.7747 14.279264 77.041361 14.284159 77.316992 C 14.284159 77.856838 14.424075 78.251936 14.705947 78.503919 C 14.993121 78.755901 15.367998 78.881892 15.830986 78.881892 M 21.250996 70.349964 L 22.903065 70.349964 L 24.653034 75.71988 L 24.8831 76.466857 L 25.147023 77.398947 L 25.384024 78.295157 L 25.534138 78.936937 L 25.596141 78.936937 L 25.745847 78.295157 L 25.982848 77.398947 L 26.247179 76.466857 L 26.476837 75.71988 L 28.226806 70.349964 L 29.878875 70.349964 L 26.575145 79.999911 L 24.544936 79.999911 Z M 36.408015 78.66416 L 36.337853 78.66416 C 36.16204 78.90758 35.968687 79.135913 35.758201 79.349976 C 35.564848 79.53672 35.349059 79.693292 35.111651 79.818875 C 34.873834 79.944459 34.623373 80.034569 34.359857 80.089206 C 34.077986 80.149144 33.754099 80.17687 33.384117 80.17687 C 32.97987 80.17687 32.607848 80.116932 32.268053 80.001135 C 31.930704 79.898384 31.634555 79.725096 31.380014 79.48086 C 31.13404 79.24111 30.939871 78.941014 30.799955 78.585059 C 30.660039 78.222171 30.600075 77.785076 30.600075 77.301906 C 30.600075 76.342089 30.937015 75.602044 31.599882 75.08707 C 32.279882 74.570873 33.300086 74.289941 34.693943 74.243051 L 36.310931 74.181075 L 36.310931 73.575175 C 36.310931 73.182115 36.266875 72.855109 36.179173 72.590895 C 36.097181 72.327088 35.97399 72.115879 35.809191 71.958084 C 35.641537 71.786834 35.442065 71.669406 35.211183 71.606206 C 34.946444 71.53159 34.67681 71.496524 34.401873 71.50101 C 33.936438 71.49734 33.482833 71.567471 33.039834 71.710995 C 32.625797 71.850849 32.224405 72.020876 31.836067 72.221076 L 31.273956 71.017024 C 31.707981 70.782982 32.190956 70.58319 32.724105 70.418871 C 33.271531 70.252514 33.831603 70.170151 34.403913 70.173005 C 35.001921 70.173005 35.517122 70.234981 35.951147 70.358118 C 36.390883 70.475139 36.751074 70.665961 37.030906 70.928137 C 37.330726 71.203768 37.544475 71.534444 37.67297 71.92098 C 37.814925 72.323826 37.87285 72.815151 37.87285 73.388839 L 37.87285 79.999911 L 36.722928 79.999911 Z M 33.807944 78.883931 C 34.148964 78.887193 34.479785 78.831333 34.800817 78.717166 C 35.101861 78.609931 35.365376 78.443166 35.590955 78.216871 C 35.814086 77.986906 35.987043 77.703936 36.111051 77.365105 C 36.241177 77.018935 36.303996 76.614866 36.303996 76.152083 L 36.303996 75.281969 L 35.0472 75.343945 C 34.520169 75.367186 34.07717 75.425901 33.719834 75.520088 C 33.362905 75.613868 33.074915 75.745975 32.859942 75.916002 C 32.660062 76.079913 32.496895 76.282151 32.403073 76.521902 C 32.304357 76.779592 32.257447 77.046253 32.261934 77.321885 C 32.261934 77.862138 32.40185 78.256829 32.684129 78.509219 C 32.970896 78.761202 33.346181 78.887193 33.809168 78.887193 M 47.742024 76.563899 C 47.742024 77.131879 47.638821 77.641959 47.434046 78.094141 C 47.236614 78.5398 46.949439 78.917773 46.572931 79.228062 C 46.198054 79.528158 45.741185 79.776063 45.203141 79.939974 C 44.663057 80.098176 44.056891 80.17687 43.38301 80.17687 C 42.768685 80.180132 42.159663 80.127534 41.555128 80.019075 C 40.992201 79.919179 40.521055 79.769131 40.140059 79.57097 L 40.140059 78.006885 L 40.817204 78.287002 L 41.617132 78.523898 L 42.486813 78.700041 C 42.781738 78.740407 43.077479 78.761202 43.374851 78.762017 C 44.31184 78.762017 45.004893 78.585874 45.449116 78.235219 C 45.89905 77.882933 46.125852 77.380191 46.125852 76.722917 C 46.131971 76.439539 46.087916 76.164315 45.994095 75.896839 C 45.912103 75.663204 45.764029 75.449142 45.5462 75.255058 C 45.345912 75.054859 45.050988 74.855067 44.692835 74.68504 C 44.253915 74.455891 43.80235 74.253652 43.338955 74.07914 C 42.864954 73.897289 42.41094 73.674664 41.976915 73.410857 C 41.597144 73.16499 41.280191 72.888951 41.026874 72.585186 C 40.780899 72.280198 40.596928 71.934843 40.472921 71.547899 C 40.355848 71.160956 40.297108 70.721821 40.297108 70.230089 C 40.297108 69.713892 40.390929 69.255186 40.57694 68.849894 C 40.760911 68.447863 41.024426 68.108217 41.367893 67.83014 C 41.730125 67.535752 42.134372 67.322097 42.581042 67.187951 C 43.055859 67.041981 43.577179 66.96818 44.145001 66.96818 C 44.842133 66.96818 45.469104 67.035049 46.025096 67.170011 C 46.581905 67.300079 47.077118 67.466029 47.509919 67.669898 L 46.909871 69.0399 C 46.530099 68.869873 46.096074 68.723902 45.609836 68.59995 C 45.120334 68.469881 44.622673 68.405459 44.116039 68.40709 C 43.400958 68.40709 42.846189 68.573855 42.455811 68.906977 C 42.358727 68.988117 42.271432 69.07945 42.194744 69.18057 C 42.118055 69.281689 42.053604 69.390147 42.001798 69.505945 C 41.949585 69.621335 41.911649 69.741618 41.886765 69.865978 C 41.86229 69.990746 41.852092 70.116329 41.856172 70.243136 C 41.856172 70.577074 41.899819 70.866976 41.987929 71.112842 C 42.08379 71.366456 42.229825 71.586227 42.426849 71.772156 C 42.632032 71.965016 42.902074 72.150129 43.227185 72.325865 C 43.566981 72.495892 43.983058 72.678151 44.475007 72.871011 C 44.955127 73.056532 45.420969 73.273449 45.872127 73.520946 C 46.247412 73.721554 46.584352 73.973536 46.882949 74.276893 C 47.15503 74.559048 47.35695 74.884016 47.489115 75.253019 C 47.629031 75.622838 47.704088 76.07502 47.704088 76.578985 M 53.656839 80.176054 C 53.06495 80.176054 52.510997 80.076158 51.99702 79.90287 C 51.478556 79.716941 51.030254 79.423369 50.652113 79.02297 C 50.271934 78.618901 49.972114 78.105966 49.755917 77.48498 C 49.538904 76.857878 49.430806 76.105193 49.430806 75.224885 C 49.430806 74.305027 49.531154 73.525024 49.764891 72.886913 C 49.988022 72.24187 50.291922 71.721188 50.679036 71.322828 C 51.065743 70.921205 51.522611 70.627634 52.048826 70.442928 C 52.568921 70.259853 53.128993 70.170151 53.729041 70.170151 C 54.179791 70.168928 54.625237 70.218672 55.064973 70.318976 C 55.445969 70.398485 55.81228 70.521622 56.163905 70.687979 L 55.689088 72.042079 C 55.554067 71.982141 55.405177 71.927912 55.241194 71.874906 C 55.076803 71.816599 54.910372 71.766447 54.741086 71.724858 C 54.564866 71.677968 54.391092 71.642903 54.22099 71.620069 C 54.061086 71.591935 53.900367 71.577257 53.738015 71.576033 C 52.818159 71.576033 52.13816 71.872052 51.724939 72.464088 C 51.303151 73.050008 51.091849 73.964158 51.091849 75.20613 C 51.091849 76.441985 51.292137 77.34798 51.724939 77.922076 C 52.152845 78.490056 52.799803 78.773842 53.667037 78.773842 C 54.101878 78.779142 54.529377 78.726544 54.94994 78.616047 C 55.311764 78.514112 55.663389 78.384859 56.004817 78.229103 L 56.004817 79.652926 C 55.681746 79.826622 55.34195 79.955468 54.985021 80.03987 C 54.628093 80.127941 54.165106 80.171977 53.64297 80.171977 M 62.412805 70.174228 L 62.983075 70.199916 C 63.16623 70.208478 63.347754 70.229273 63.528054 70.261892 L 63.328174 71.739129 L 62.828066 71.668998 C 62.657964 71.644941 62.49806 71.633932 62.345091 71.633932 C 61.975109 71.633932 61.638984 71.710179 61.344875 71.861858 C 61.031186 72.014352 60.767671 72.228415 60.553922 72.504046 C 60.321408 72.805365 60.154978 73.139303 60.053814 73.50586 C 59.931438 73.927869 59.872698 74.358849 59.878001 74.797983 L 59.878001 79.999911 L 58.278146 79.999911 L 58.278146 70.349964 L 59.578181 70.349964 L 59.771127 72.117102 L 59.840881 72.117102 L 60.307131 71.386843 C 60.469891 71.159325 60.657941 70.95464 60.870058 70.771973 C 61.080952 70.590122 61.315097 70.44619 61.572902 70.340993 C 61.863747 70.225196 62.166015 70.169743 62.478888 70.173821 M 66.899906 79.999911 L 65.300051 79.999911 L 65.300051 70.349964 L 66.899906 70.349964 L 66.899906 79.999911 M 65.439967 66.975112 C 65.532564 66.895195 65.636583 66.83485 65.752024 66.794076 C 65.867057 66.753302 65.985761 66.734546 66.108137 66.738216 C 66.231736 66.736585 66.351664 66.756972 66.467921 66.800192 C 66.582546 66.833219 66.682486 66.891933 66.766925 66.975927 C 66.85993 67.065222 66.927237 67.170419 66.968845 67.291925 C 67.021874 67.415062 67.049204 67.56511 67.049204 67.740029 C 67.049204 68.080083 66.954975 68.33492 66.768965 68.504947 C 66.587033 68.668858 66.369205 68.750813 66.108953 68.750813 C 65.849109 68.750813 65.616188 68.628084 65.433848 68.46295 C 65.258035 68.299039 65.174004 68.042979 65.176044 67.718827 C 65.17686 67.388966 65.275984 67.132907 65.441191 66.975112 Z M 74.244883 80.174831 C 73.926707 80.178501 73.613425 80.140581 73.305039 80.061072 C 73.024799 79.984825 72.769035 79.884929 72.540192 79.760977 C 72.322364 79.636209 72.122892 79.486976 71.942184 79.312872 C 71.774938 79.146922 71.622784 78.967925 71.484908 78.777104 L 71.380073 78.777104 L 71.433102 79.347122 L 71.468183 79.822137 L 71.486132 80.200111 L 71.486132 84.32194 L 69.885868 84.32194 L 69.885868 70.349964 L 71.185904 70.349964 L 71.41597 71.649834 L 71.486132 71.649834 C 71.620337 71.445557 71.772898 71.255143 71.943 71.079 C 72.116365 70.894295 72.312574 70.738946 72.532034 70.612955 C 72.772706 70.473101 73.027655 70.367904 73.296881 70.296958 C 73.607307 70.210925 73.923851 70.169743 74.246107 70.173821 C 74.79598 70.173821 75.298128 70.279017 75.748878 70.489818 C 76.200035 70.701027 76.583886 71.017024 76.898799 71.439849 C 77.221055 71.85615 77.469069 72.375201 77.646105 72.996187 C 77.823142 73.617172 77.910029 74.338054 77.910029 75.158016 C 77.910029 75.984095 77.821918 76.711092 77.646105 77.338194 C 77.469885 77.957957 77.221055 78.481085 76.898799 78.901872 C 76.58307 79.323881 76.198811 79.641917 75.748878 79.860057 C 75.298944 80.059849 74.685843 80.176054 74.135153 80.176054 M 73.938128 71.50101 C 73.493089 71.50101 73.114949 71.567879 72.804115 71.70284 C 72.498993 71.838209 72.250162 72.042894 72.056809 72.318118 C 71.863864 72.592933 71.728843 72.935841 71.635022 73.346026 C 71.539977 73.824711 71.490211 74.307882 71.486132 74.795945 L 71.486132 75.155978 C 71.481237 75.686445 71.519173 76.213651 71.599941 76.738003 C 71.681932 77.195078 71.816953 77.582022 72.004188 77.898019 C 72.192646 78.206677 72.447595 78.443981 72.769035 78.609931 C 73.085171 78.768133 73.480852 78.846827 73.956077 78.846827 C 74.756004 78.846827 75.325866 78.52716 75.695848 77.889049 C 76.06583 77.250938 76.25796 76.333119 76.259183 75.138853 C 76.259183 73.918899 76.071133 73.008827 75.697072 72.406189 C 75.323011 71.803144 74.742135 71.50101 73.938944 71.50101 M 83.239073 78.865991 C 83.343908 78.865991 83.461796 78.856205 83.591106 78.84805 L 83.977813 78.804014 L 84.311898 78.742038 L 84.548899 78.680062 L 84.548899 79.893084 C 84.473026 79.928149 84.375941 79.963215 84.249079 79.997873 C 84.121808 80.034977 83.992906 80.064334 83.861964 80.085944 C 83.722048 80.116117 83.57479 80.136096 83.42182 80.14792 C 83.273338 80.165453 83.12404 80.174016 82.973926 80.174016 C 82.610879 80.174016 82.273938 80.127126 81.974118 80.034161 C 81.663285 79.941605 81.393243 79.780548 81.163993 79.550991 C 80.940861 79.321027 80.765864 79.014815 80.636962 78.627871 C 80.506836 78.235219 80.444017 77.743079 80.444017 77.151042 L 80.444017 71.551161 L 79.081978 71.551161 L 79.081978 70.838842 L 80.444017 70.153026 L 81.130135 68.131051 L 82.052847 68.131051 L 82.052847 70.345886 L 84.499948 70.345886 L 84.499948 71.549938 L 82.074058 71.549938 L 82.074058 77.149819 C 82.074058 77.718207 82.173998 78.145924 82.34614 78.432972 C 82.517873 78.72002 82.838089 78.863136 83.259877 78.863136 " stroke="#000000" stroke-width="1" stroke-opacity="1" stroke-miterlimit="4"/></g></svg>