<svg xmlns="http://www.w3.org/2000/svg" xmlns:xlink="http://www.w3.org/1999/xlink" width="1024" zoomAndPan="magnify" viewBox="0 0 768 767.999994" height="1024" preserveAspectRatio="xMidYMid meet" version="1.0"><path fill="#4e7896" d="M 316.230469 407.285156 C 316.230469 407.285156 296.003906 419.597656 330.296875 423.117188 C 371.621094 428.394531 393.601562 427.519531 439.324219 418.722656 C 439.324219 418.722656 451.632812 426.636719 468.339844 432.792969 C 365.464844 476.777344 235.332031 430.15625 316.230469 407.285156 Z M 303.039062 350.109375 C 303.039062 350.109375 281.058594 366.820312 315.351562 370.339844 C 360.191406 374.742188 395.363281 375.617188 456.027344 363.304688 C 456.027344 363.304688 463.941406 372.097656 477.128906 376.496094 C 353.160156 413.445312 214.230469 380.015625 303.039062 350.109375 Z M 545.71875 450.378906 C 545.71875 450.378906 560.664062 462.691406 529.011719 472.367188 C 470.101562 489.960938 281.949219 495.238281 229.183594 472.367188 C 210.722656 464.457031 245.890625 453.015625 257.320312 451.257812 C 268.75 448.617188 274.90625 448.617188 274.90625 448.617188 C 254.683594 434.546875 140.378906 477.648438 216.875 489.960938 C 427.011719 524.269531 600.222656 475.007812 545.714844 450.375 Z M 325.90625 290.28125 C 325.90625 290.28125 230.070312 313.152344 291.617188 321.070312 C 317.996094 324.589844 369.871094 323.710938 418.230469 320.1875 C 457.792969 316.671875 497.363281 309.632812 497.363281 309.632812 C 497.363281 309.632812 483.292969 315.789062 473.621094 321.945312 C 376.023438 347.457031 188.75 336.019531 242.378906 309.632812 C 288.097656 287.640625 325.90625 290.277344 325.90625 290.277344 Z M 497.359375 386.164062 C 595.832031 335.144531 550.113281 285.886719 518.460938 292.042969 C 510.546875 293.800781 507.03125 295.558594 507.03125 295.558594 C 507.03125 295.558594 509.667969 290.28125 515.820312 288.523438 C 578.25 266.53125 627.488281 354.492188 495.601562 388.800781 C 495.601562 388.800781 496.480469 387.917969 497.359375 386.164062 Z M 335.578125 525.148438 C 430.53125 531.304688 575.59375 521.628906 579.132812 476.765625 C 579.132812 476.765625 572.101562 494.359375 500.882812 507.554688 C 419.992188 522.507812 319.757812 520.75 260.863281 511.074219 C 260.863281 511.074219 273.171875 521.628906 335.601562 525.144531 Z M 335.578125 525.148438 " fill-opacity="1" fill-rule="nonzero"/><path fill="#f58219" d="M 437.5625 0 C 437.5625 0 492.074219 55.417969 385.6875 138.984375 C 300.402344 206.71875 366.34375 245.421875 385.6875 289.402344 C 335.570312 244.542969 299.519531 204.957031 324.140625 168.011719 C 360.195312 113.476562 459.554688 87.101562 437.570312 0 Z M 409.445312 252.464844 C 434.941406 281.492188 402.410156 307.882812 402.410156 307.882812 C 402.410156 307.882812 467.472656 274.457031 437.578125 233.113281 C 410.320312 193.53125 389.21875 174.179688 503.519531 108.21875 C 503.519531 108.21875 323.277344 153.082031 409.441406 252.484375 Z M 344.367188 724.820312 L 344.367188 638.617188 C 344.367188 616.625 332.058594 601.671875 301.285156 601.671875 C 283.699219 601.671875 268.753906 606.066406 255.5625 611.328125 L 259.960938 627.164062 C 269.617188 623.644531 281.941406 620.125 295.128906 620.125 C 311.835938 620.125 319.75 627.164062 319.75 641.238281 L 319.75 652.671875 L 310.957031 652.671875 C 268.753906 652.671875 249.410156 668.507812 249.410156 694.015625 C 249.410156 715.128906 262.597656 727.441406 286.339844 727.441406 C 301.285156 727.441406 312.71875 720.40625 323.269531 711.609375 L 325.027344 724.800781 L 344.371094 724.800781 Z M 319.746094 696.671875 C 310.957031 704.589844 301.285156 708.988281 292.488281 708.988281 C 281.058594 708.988281 274.027344 701.949219 274.027344 689.636719 C 274.027344 677.320312 281.0625 668.523438 309.195312 668.523438 L 319.75 668.523438 L 319.75 696.65625 Z M 427.019531 724.820312 L 396.246094 724.820312 L 359.320312 604.308594 L 385.695312 604.308594 L 408.558594 678.199219 L 413.832031 700.191406 C 425.261719 668.523438 434.054688 635.976562 437.574219 604.308594 L 463.949219 604.308594 C 456.914062 643.894531 444.605469 686.996094 427.023438 724.820312 Z M 569.453125 724.820312 L 569.453125 638.617188 C 569.453125 616.625 557.144531 601.671875 526.371094 601.671875 C 508.785156 601.671875 493.839844 606.066406 480.648438 611.328125 L 484.167969 627.164062 C 494.71875 623.644531 507.027344 620.125 520.21875 620.125 C 536.921875 620.125 544.835938 627.164062 544.835938 641.238281 L 544.835938 652.671875 L 536.042969 652.671875 C 493.839844 652.671875 474.496094 668.507812 474.496094 694.015625 C 474.496094 715.128906 486.804688 727.441406 510.546875 727.441406 C 526.371094 727.441406 537.800781 720.40625 548.351562 711.609375 L 550.109375 724.800781 L 569.453125 724.800781 Z M 544.835938 696.671875 C 536.042969 704.589844 526.371094 708.988281 517.578125 708.988281 C 506.148438 708.988281 499.113281 701.949219 499.113281 689.636719 C 499.113281 677.320312 506.148438 668.523438 534.285156 668.523438 L 544.835938 668.523438 Z M 222.15625 745.054688 C 215.125 755.613281 204.574219 763.527344 191.382812 767.925781 L 179.949219 753.859375 C 188.738281 748.582031 197.53125 740.664062 201.050781 733.625 C 204.566406 727.46875 205.445312 718.671875 205.445312 698.441406 L 205.445312 561.214844 L 231.824219 561.214844 L 231.824219 696.683594 C 231.824219 723.949219 229.1875 734.507812 222.171875 745.066406 Z M 222.15625 745.054688 " fill-opacity="1" fill-rule="nonzero"/></svg>