<svg xmlns="http://www.w3.org/2000/svg" xmlns:xlink="http://www.w3.org/1999/xlink" width="1024" zoomAndPan="magnify" viewBox="0 0 768 767.999994" height="1024" preserveAspectRatio="xMidYMid meet" version="1.0"><path fill="#00678c" d="M -1.414062 549.847656 L 23.8125 549.847656 L 23.8125 449.847656 L 63.207031 537.035156 C 67.667969 547.515625 74.078125 551.398438 86.492188 551.398438 C 98.90625 551.398438 104.933594 547.511719 109.542969 537.035156 L 148.742188 449.847656 L 148.742188 549.847656 L 174.164062 549.847656 L 174.164062 449.847656 C 174.164062 440.144531 170.28125 435.472656 162.128906 432.949219 C 142.917969 427.128906 130.109375 432.175781 124.289062 445.179688 L 85.679688 531.394531 L 48.417969 445.179688 C 42.792969 432.175781 29.785156 427.128906 10.386719 432.949219 C 2.425781 435.472656 -1.453125 440.140625 -1.453125 449.847656 L -1.457031 549.847656 Z M 195.160156 468.488281 L 220.582031 468.488281 L 220.582031 523.445312 C 220.390625 526.546875 221.550781 533.539062 235.371094 533.726562 C 242.546875 533.921875 290.089844 533.726562 290.472656 533.726562 L 290.472656 468.097656 L 315.894531 468.097656 L 315.894531 558.003906 C 315.894531 580.136719 288.496094 584.988281 275.726562 585.1875 L 195.789062 585.1875 L 195.789062 568.300781 L 275.929688 568.300781 C 292.230469 566.550781 290.292969 558.398438 290.292969 555.679688 L 290.292969 549.074219 L 236.535156 549.074219 C 211.5 548.878906 195.390625 537.808594 195.203125 525.1875 L 195.203125 468.480469 Z M 740.421875 404.796875 C 724.902344 404.40625 712.863281 405.960938 702.773438 410.238281 C 699.871094 411.410156 695.207031 411.410156 694.824219 415.09375 C 696.375 416.636719 696.5625 419.167969 697.925781 421.308594 C 700.253906 425.195312 704.332031 430.429688 708.015625 433.144531 C 712.09375 436.257812 716.171875 439.359375 720.433594 442.082031 C 728 446.738281 736.539062 449.457031 743.910156 454.117188 C 748.179688 456.839844 752.445312 460.332031 756.71875 463.25 C 758.890625 464.804688 760.210938 467.332031 762.929688 468.296875 L 762.929688 467.710938 C 761.570312 465.96875 761.179688 463.445312 759.828125 461.496094 C 757.882812 459.558594 755.945312 457.804688 754 455.867188 C 748.375 448.296875 741.386719 441.6875 733.820312 436.257812 C 727.609375 431.984375 714.03125 426.160156 711.507812 418.980469 L 711.125 418.589844 C 715.386719 418.195312 720.433594 416.644531 724.511719 415.476562 C 731.113281 413.734375 737.125 414.117188 743.910156 412.375 C 747.019531 411.589844 750.121094 410.625 753.230469 409.652344 L 753.230469 407.914062 C 749.738281 404.417969 747.214844 399.757812 743.53125 396.457031 C 733.636719 387.914062 722.761719 379.5625 711.507812 372.574219 C 705.492188 368.691406 697.730469 366.164062 691.328125 362.867188 C 688.992188 361.703125 685.117188 361.117188 683.761719 359.175781 C 680.257812 354.914062 678.324219 349.277344 675.800781 344.222656 C 670.175781 333.542969 664.742188 321.703125 659.890625 310.4375 C 656.398438 302.867188 654.257812 295.292969 649.996094 288.304688 C 630.007812 255.292969 608.269531 235.292969 574.894531 215.679688 C 567.71875 211.601562 559.179688 209.847656 550.105469 207.714844 L 535.550781 206.933594 C 532.441406 205.574219 529.339844 201.882812 526.621094 200.132812 C 515.5625 193.144531 487.035156 178 478.882812 198 C 473.640625 210.621094 486.644531 223.046875 491.058594 229.457031 C 494.363281 233.921875 498.628906 238.972656 500.960938 244.019531 C 502.265625 247.320312 502.703125 250.820312 504.0625 254.3125 C 507.164062 262.855469 510.078125 272.375 514.152344 280.339844 C 516.328125 284.417969 518.613281 288.695312 521.328125 292.382812 C 522.882812 294.515625 525.601562 295.488281 526.179688 298.984375 C 523.460938 302.871094 523.273438 308.6875 521.722656 313.550781 C 514.730469 335.492188 517.449219 362.675781 527.34375 378.789062 C 530.453125 383.640625 537.78125 394.324219 547.726562 390.242188 C 556.457031 386.75 554.511719 375.679688 557.03125 365.972656 C 557.621094 363.644531 557.226562 362.089844 558.390625 360.53125 L 558.390625 360.921875 L 566.347656 377.039062 C 572.363281 386.550781 582.84375 396.457031 591.574219 403.0625 C 596.226562 406.558594 599.914062 412.582031 605.734375 414.714844 L 605.734375 414.128906 L 605.351562 414.128906 C 604.1875 412.386719 602.4375 411.601562 600.886719 410.246094 C 597.394531 406.75 593.515625 402.476562 590.796875 398.59375 C 582.648438 387.722656 575.472656 375.679688 569.066406 363.253906 C 565.957031 357.238281 563.238281 350.632812 560.726562 344.617188 C 559.550781 342.28125 559.550781 338.785156 557.617188 337.625 C 554.703125 341.890625 550.4375 345.589844 548.296875 350.832031 C 544.605469 359.175781 544.222656 369.46875 542.867188 380.148438 C 542.085938 380.347656 542.433594 380.148438 542.085938 380.542969 C 535.882812 378.992188 533.742188 372.578125 531.414062 367.144531 C 525.597656 353.359375 524.621094 331.222656 529.667969 315.300781 C 531.023438 311.222656 536.851562 298.40625 534.527344 294.523438 C 533.351562 290.832031 529.480469 288.699219 527.339844 285.785156 C 524.816406 282.09375 522.109375 277.4375 520.359375 273.359375 C 515.707031 262.476562 513.378906 250.445312 508.332031 239.566406 C 505.996094 234.519531 501.925781 229.277344 498.621094 224.617188 C 494.933594 219.375 490.867188 215.683594 487.953125 209.472656 C 486.984375 207.339844 485.628906 203.839844 487.179688 201.507812 C 487.5625 199.957031 488.347656 199.375 489.890625 198.984375 C 492.414062 196.851562 499.597656 199.566406 502.121094 200.726562 C 509.296875 203.640625 515.3125 206.355469 521.324219 210.429688 C 524.042969 212.371094 526.957031 216.0625 530.449219 217.039062 L 534.53125 217.039062 C 540.742188 218.394531 547.722656 217.429688 553.535156 219.167969 C 563.820312 222.476562 573.132812 227.324219 581.484375 232.574219 C 606.902344 248.691406 627.863281 271.605469 642.023438 298.988281 C 644.351562 303.453125 645.320312 307.53125 647.460938 312.191406 C 651.542969 321.710938 656.585938 331.414062 660.652344 340.742188 C 664.730469 349.867188 668.613281 359.195312 674.429688 366.765625 C 677.34375 370.84375 688.984375 372.976562 694.21875 375.113281 C 698.105469 376.855469 704.113281 378.421875 707.617188 380.554688 C 714.207031 384.632812 720.804688 389.292969 727.011719 393.757812 C 730.113281 396.082031 739.820312 400.941406 740.398438 404.8125 Z M 542.53125 236.054688 C 539.839844 236.03125 537.191406 236.355469 534.582031 237.027344 L 534.582031 237.417969 L 534.964844 237.417969 C 536.515625 240.527344 539.234375 242.664062 541.175781 245.382812 L 545.640625 254.703125 L 546.023438 254.3125 C 548.742188 252.371094 550.105469 249.265625 550.105469 244.609375 C 548.9375 243.25 548.746094 241.886719 547.777344 240.53125 C 546.613281 238.589844 544.089844 237.613281 542.53125 236.066406 Z M 542.53125 236.054688 " fill-opacity="1" fill-rule="evenodd"/><path fill="#ce8b2c" d="M 335.265625 549.847656 L 408.230469 549.847656 C 416.765625 549.847656 424.921875 548.105469 431.515625 544.996094 C 442.574219 539.945312 447.816406 533.15625 447.816406 524.222656 L 447.816406 505.582031 C 447.816406 498.402344 441.800781 491.597656 429.773438 486.941406 C 423.5625 484.613281 415.800781 483.25 408.234375 483.25 L 377.570312 483.25 C 367.285156 483.25 362.4375 480.140625 361.074219 473.351562 C 360.882812 472.574219 360.882812 471.796875 360.882812 471.023438 L 360.882812 459.5625 C 360.882812 458.976562 360.882812 458.207031 361.074219 457.429688 C 362.429688 452.1875 365.148438 450.824219 374.121094 449.859375 L 448.828125 449.859375 L 448.828125 432.957031 L 377.804688 432.957031 C 367.519531 432.957031 362.089844 433.546875 357.234375 435.101562 C 342.289062 439.757812 335.691406 447.136719 335.691406 460.140625 L 335.691406 474.910156 C 335.691406 486.355469 348.5 496.074219 370.234375 498.402344 C 372.5625 498.597656 375.082031 498.597656 377.605469 498.597656 L 403.804688 498.597656 C 404.777344 498.597656 405.742188 498.597656 406.515625 498.792969 C 414.472656 499.566406 417.964844 500.925781 420.292969 503.832031 C 421.847656 505.386719 422.238281 506.75 422.238281 508.5 L 422.238281 523.253906 C 422.238281 524.992188 421.070312 527.335938 418.746094 529.269531 C 416.417969 531.207031 412.722656 532.570312 407.871094 532.765625 C 406.902344 532.765625 406.328125 532.960938 405.347656 532.960938 L 335.265625 532.960938 Z M 605.765625 520.53125 C 605.765625 537.808594 618.8125 547.515625 644.777344 549.464844 C 647.300781 549.660156 649.628906 549.847656 652.148438 549.847656 L 718.128906 549.847656 L 718.128906 532.960938 L 651.570312 532.960938 C 636.8125 532.960938 631.191406 529.269531 631.191406 520.339844 L 631.191406 432.957031 L 605.703125 432.957031 L 605.703125 520.535156 Z M 463.914062 521.300781 L 463.914062 461.113281 C 463.914062 445.773438 474.78125 436.445312 495.9375 433.539062 C 498.265625 433.34375 500.59375 433.144531 502.722656 433.144531 L 550.84375 433.144531 C 553.367188 433.144531 555.507812 433.34375 558.027344 433.539062 C 579.179688 436.445312 589.847656 445.765625 589.847656 461.113281 L 589.847656 521.300781 C 589.847656 533.726562 585.390625 540.335938 574.902344 544.804688 L 599.738281 567.320312 L 570.441406 567.320312 L 550.261719 549.074219 L 529.878906 550.238281 L 502.714844 550.238281 C 497.71875 550.214844 492.800781 549.570312 487.96875 548.304688 C 471.875 543.828125 463.914062 535.289062 463.914062 521.300781 Z M 491.273438 519.953125 C 491.273438 520.726562 491.707031 521.5 491.859375 522.476562 C 493.214844 529.460938 499.808594 533.347656 509.898438 533.347656 L 532.804688 533.347656 L 511.847656 514.316406 L 541.144531 514.316406 L 559.578125 531.019531 C 563.078125 529.074219 565.210938 526.355469 565.984375 522.859375 C 566.179688 522.085938 566.179688 521.121094 566.179688 520.335938 L 566.179688 462.660156 C 566.179688 461.886719 566.179688 461.117188 565.984375 460.332031 C 564.625 453.734375 558.03125 450.050781 548.132812 450.050781 L 509.90625 450.050781 C 498.648438 450.050781 491.277344 454.902344 491.277344 462.660156 Z M 491.273438 519.953125 " fill-opacity="1" fill-rule="evenodd"/></svg>