<svg xmlns="http://www.w3.org/2000/svg" xmlns:xlink="http://www.w3.org/1999/xlink" width="1024" zoomAndPan="magnify" viewBox="0 0 768 767.999994" height="1024" preserveAspectRatio="xMidYMid meet" version="1.0"><defs><clipPath id="0daf926db4"><path d="M 0 249.949219 L 300 249.949219 L 300 517.699219 L 0 517.699219 Z M 0 249.949219 " clip-rule="nonzero"/></clipPath></defs><path fill="#00d8ff" d="M 173.414062 383.585938 C 173.414062 384.429688 173.375 385.269531 173.289062 386.105469 C 173.207031 386.945312 173.085938 387.777344 172.917969 388.601562 C 172.753906 389.429688 172.550781 390.242188 172.304688 391.050781 C 172.0625 391.855469 171.777344 392.648438 171.453125 393.425781 C 171.132812 394.203125 170.773438 394.964844 170.375 395.707031 C 169.976562 396.449219 169.542969 397.167969 169.078125 397.871094 C 168.609375 398.570312 168.105469 399.246094 167.570312 399.894531 C 167.035156 400.546875 166.472656 401.167969 165.875 401.765625 C 165.277344 402.359375 164.65625 402.925781 164.003906 403.457031 C 163.351562 403.992188 162.675781 404.492188 161.976562 404.960938 C 161.273438 405.429688 160.550781 405.863281 159.808594 406.257812 C 159.066406 406.65625 158.304688 407.015625 157.523438 407.335938 C 156.746094 407.660156 155.953125 407.941406 155.144531 408.1875 C 154.339844 408.429688 153.523438 408.636719 152.695312 408.800781 C 151.867188 408.964844 151.035156 409.085938 150.195312 409.171875 C 149.359375 409.253906 148.515625 409.292969 147.675781 409.292969 C 146.832031 409.292969 145.988281 409.253906 145.152344 409.171875 C 144.3125 409.085938 143.480469 408.964844 142.652344 408.800781 C 141.824219 408.636719 141.007812 408.429688 140.203125 408.1875 C 139.394531 407.941406 138.601562 407.660156 137.824219 407.335938 C 137.042969 407.015625 136.285156 406.65625 135.539062 406.257812 C 134.796875 405.863281 134.074219 405.429688 133.375 404.960938 C 132.671875 404.492188 131.996094 403.992188 131.34375 403.457031 C 130.691406 402.925781 130.070312 402.359375 129.472656 401.765625 C 128.875 401.167969 128.3125 400.546875 127.777344 399.894531 C 127.242188 399.246094 126.738281 398.570312 126.273438 397.871094 C 125.804688 397.167969 125.371094 396.449219 124.972656 395.707031 C 124.574219 394.964844 124.214844 394.203125 123.894531 393.425781 C 123.570312 392.648438 123.285156 391.855469 123.042969 391.050781 C 122.796875 390.242188 122.59375 389.429688 122.429688 388.601562 C 122.261719 387.777344 122.140625 386.945312 122.058594 386.105469 C 121.976562 385.269531 121.933594 384.429688 121.933594 383.585938 C 121.933594 382.746094 121.976562 381.90625 122.058594 381.066406 C 122.140625 380.230469 122.261719 379.398438 122.429688 378.570312 C 122.59375 377.746094 122.796875 376.929688 123.042969 376.125 C 123.285156 375.320312 123.570312 374.527344 123.894531 373.75 C 124.214844 372.972656 124.574219 372.210938 124.972656 371.46875 C 125.371094 370.726562 125.804688 370.003906 126.273438 369.304688 C 126.738281 368.605469 127.242188 367.929688 127.777344 367.277344 C 128.3125 366.628906 128.875 366.003906 129.472656 365.410156 C 130.070312 364.816406 130.691406 364.25 131.34375 363.714844 C 131.996094 363.183594 132.671875 362.679688 133.375 362.214844 C 134.074219 361.746094 134.796875 361.3125 135.539062 360.917969 C 136.285156 360.519531 137.042969 360.160156 137.824219 359.835938 C 138.601562 359.515625 139.394531 359.230469 140.203125 358.988281 C 141.007812 358.742188 141.824219 358.539062 142.652344 358.375 C 143.480469 358.210938 144.3125 358.085938 145.152344 358.003906 C 145.988281 357.921875 146.832031 357.878906 147.675781 357.878906 C 148.515625 357.878906 149.359375 357.921875 150.195312 358.003906 C 151.035156 358.085938 151.867188 358.210938 152.695312 358.375 C 153.523438 358.539062 154.339844 358.742188 155.144531 358.988281 C 155.953125 359.230469 156.746094 359.515625 157.523438 359.835938 C 158.304688 360.160156 159.066406 360.519531 159.808594 360.917969 C 160.550781 361.3125 161.273438 361.746094 161.976562 362.214844 C 162.675781 362.679688 163.351562 363.183594 164.003906 363.714844 C 164.65625 364.25 165.277344 364.816406 165.875 365.410156 C 166.472656 366.003906 167.035156 366.628906 167.570312 367.277344 C 168.105469 367.929688 168.609375 368.605469 169.078125 369.304688 C 169.542969 370.003906 169.976562 370.726562 170.375 371.46875 C 170.773438 372.210938 171.132812 372.972656 171.453125 373.75 C 171.777344 374.527344 172.0625 375.320312 172.304688 376.125 C 172.550781 376.929688 172.753906 377.746094 172.917969 378.570312 C 173.085938 379.398438 173.207031 380.230469 173.289062 381.066406 C 173.375 381.90625 173.414062 382.746094 173.414062 383.585938 Z M 173.414062 383.585938 " fill-opacity="1" fill-rule="nonzero"/><path stroke-linecap="butt" transform="matrix(0.513096, 0, 0, 0.512423, 9.379193, 261.820231)" fill="none" stroke-linejoin="miter" d="M 269.533517 135.630238 C 336.886583 135.630238 399.458625 145.29632 446.636985 161.53351 C 503.483978 181.109614 538.435705 210.77107 538.435705 237.627229 C 538.435705 265.619228 501.390377 297.133096 440.348567 317.357163 C 394.197975 332.649089 333.468303 340.630468 269.533517 340.630468 C 203.977141 340.630468 141.899951 333.136967 95.231668 317.189455 C 36.18449 297.011127 0.623715 265.085611 0.623715 237.627229 C 0.623715 210.984517 33.991918 181.551753 90.039536 162.013764 C 137.392997 145.502144 201.502885 135.630238 269.525904 135.630238 Z M 269.533517 135.630238 " stroke="#00d8ff" stroke-width="24" stroke-opacity="1" stroke-miterlimit="4"/><g clip-path="url(#0daf926db4)"><path stroke-linecap="butt" transform="matrix(0.513096, 0, 0, 0.512423, 9.379193, 261.820231)" fill="none" stroke-linejoin="miter" d="M 180.74197 186.918411 C 214.391857 128.571253 254.018026 79.196477 291.657176 46.440044 C 337.008393 6.975289 380.159425 -8.476721 403.432661 4.939924 C 427.680374 18.920677 436.473501 66.747965 423.500784 129.737587 C 413.695116 177.351429 390.262004 233.945274 358.31745 289.334672 C 325.573521 346.126718 288.071407 396.15708 250.942335 428.608589 C 203.961915 469.674194 158.54218 484.539226 134.758866 470.817658 C 111.68357 457.522983 102.852378 413.903642 113.929433 355.586977 C 123.278316 306.318924 146.757106 245.852546 180.726744 186.933657 Z M 180.74197 186.918411 " stroke="#00d8ff" stroke-width="24" stroke-opacity="1" stroke-miterlimit="4"/><path stroke-linecap="butt" transform="matrix(0.513096, 0, 0, 0.512423, 9.379193, 261.820231)" fill="none" stroke-linejoin="miter" d="M 180.818101 289.47951 C 147.076856 231.200961 124.100531 172.198217 114.508029 123.227465 C 102.966574 64.232345 111.127814 19.118877 134.370598 5.656494 C 158.595472 -8.362375 204.426314 7.905307 252.510632 50.602253 C 288.870782 82.878431 326.205409 131.437537 358.233706 186.773572 C 391.076605 243.504634 415.69736 300.982758 425.267023 349.351286 C 437.387073 410.564727 427.581404 457.332405 403.813316 471.092089 C 380.760859 484.440126 338.569078 470.306911 293.575676 431.589219 C 255.563484 398.878525 214.894322 348.337415 180.818101 289.471887 Z M 180.818101 289.47951 " stroke="#00d8ff" stroke-width="24" stroke-opacity="1" stroke-miterlimit="4"/></g><path fill="#00d8ff" d="M 433.398438 449.265625 L 401.847656 401.664062 C 417.792969 400.257812 432.160156 388.71875 432.160156 367.640625 C 432.160156 346.191406 416.921875 332.464844 395.539062 332.464844 L 348.582031 332.464844 L 348.582031 449.179688 L 363.128906 449.179688 L 363.128906 402.804688 L 386.4375 402.804688 L 416.222656 449.179688 Z M 393.796875 390.117188 L 363.136719 390.117188 L 363.136719 345.496094 L 393.796875 345.496094 C 407.648438 345.496094 417.105469 354.59375 417.105469 367.722656 C 417.105469 380.851562 407.640625 390.132812 393.796875 390.132812 Z M 487.546875 451.359375 C 501.394531 451.359375 512.777344 446.8125 521.191406 438.417969 L 514.882812 429.835938 C 508.214844 436.664062 498.410156 440.511719 488.773438 440.511719 C 470.554688 440.511719 459.335938 427.210938 458.285156 411.292969 L 526.789062 411.292969 L 526.789062 407.964844 C 526.789062 382.597656 511.71875 362.640625 486.128906 362.640625 C 461.949219 362.640625 444.433594 382.417969 444.433594 406.914062 C 444.433594 433.34375 462.484375 451.292969 487.539062 451.292969 Z M 513.835938 401.65625 L 458.289062 401.65625 C 458.996094 388.714844 467.917969 373.476562 485.976562 373.476562 C 505.253906 373.476562 513.660156 389.054688 513.835938 401.65625 Z M 614.070312 449.261719 L 614.070312 391.160156 C 614.070312 370.6875 599.183594 362.632812 581.304688 362.632812 C 567.457031 362.632812 556.601562 367.183594 547.488281 376.632812 L 553.621094 385.730469 C 561.15625 377.683594 569.398438 374.007812 579.558594 374.007812 C 591.824219 374.007812 600.941406 380.480469 600.941406 391.855469 L 600.941406 407.078125 C 594.105469 399.199219 584.46875 395.523438 572.902344 395.523438 C 558.53125 395.523438 543.277344 404.453125 543.277344 423.351562 C 543.277344 441.722656 558.519531 451.351562 572.902344 451.351562 C 584.292969 451.351562 593.933594 447.328125 600.941406 439.628906 L 600.941406 449.246094 Z M 577.632812 441.90625 C 565.367188 441.90625 556.777344 434.214844 556.777344 423.535156 C 556.777344 412.683594 565.367188 404.984375 577.632812 404.984375 C 586.921875 404.984375 595.851562 408.484375 600.941406 415.488281 L 600.941406 431.414062 C 595.859375 438.410156 586.921875 441.914062 577.632812 441.914062 Z M 677.617188 451.359375 C 693.035156 451.359375 702.144531 445.058594 708.632812 436.664062 L 699.871094 428.617188 C 694.265625 436.140625 687.082031 439.636719 678.394531 439.636719 C 660.34375 439.636719 649.140625 425.636719 649.140625 406.914062 C 649.140625 388.195312 660.351562 374.371094 678.394531 374.371094 C 687.15625 374.371094 694.339844 377.699219 699.871094 385.390625 L 708.632812 377.34375 C 702.152344 368.941406 693.035156 362.648438 677.617188 362.648438 C 652.382812 362.648438 635.386719 381.902344 635.386719 406.921875 C 635.386719 432.121094 652.382812 451.300781 677.617188 451.300781 Z M 748.417969 451.359375 C 756.121094 451.359375 760.859375 449.082031 764.191406 445.9375 L 760.34375 436.140625 C 758.585938 438.0625 755.15625 439.636719 751.402344 439.636719 C 745.625 439.636719 742.8125 435.089844 742.8125 428.785156 L 742.8125 376.285156 L 759.992188 376.285156 L 759.992188 364.742188 L 742.8125 364.742188 L 742.8125 341.640625 L 729.664062 341.640625 L 729.664062 364.742188 L 715.644531 364.742188 L 715.644531 376.292969 L 729.664062 376.292969 L 729.664062 431.597656 C 729.664062 444.199219 735.976562 451.375 748.417969 451.375 Z M 748.417969 451.359375 " fill-opacity="1" fill-rule="evenodd"/></svg>