<svg xmlns="http://www.w3.org/2000/svg" xmlns:xlink="http://www.w3.org/1999/xlink" width="1024" zoomAndPan="magnify" viewBox="0 0 768 767.999994" height="1024" preserveAspectRatio="xMidYMid meet" version="1.0"><path fill="#004aad" d="M 320 544 L 256 672 L 192 608 L 96 608 L 185.921875 429.441406 M 448 544 L 512 672 L 576 608 L 672 608 L 582.078125 429.441406 " fill-opacity="1" fill-rule="nonzero"/><path fill="#b7b7b7" d="M 588.480469 253.441406 C 581.121094 231.039062 586.238281 201.921875 572.480469 183.039062 C 558.71875 164.160156 529.28125 160 512 145.921875 C 494.71875 131.839844 480 105.601562 457.601562 98.238281 C 435.199219 90.878906 409.921875 104.960938 385.601562 104.960938 C 361.28125 104.960938 335.359375 91.199219 313.601562 98.238281 C 291.839844 105.28125 276.480469 132.480469 257.601562 145.921875 C 238.71875 159.359375 209.28125 164.160156 195.519531 183.039062 C 181.761719 201.921875 186.878906 231.039062 179.519531 253.441406 C 172.160156 275.839844 151.039062 295.679688 151.039062 320 C 151.039062 344.320312 172.480469 364.800781 179.519531 386.558594 C 186.558594 408.320312 181.761719 438.078125 195.519531 456.960938 C 209.28125 475.839844 238.71875 480.320312 257.601562 494.078125 C 276.480469 507.839844 289.601562 534.398438 312 541.761719 C 334.398438 549.121094 359.679688 535.039062 384 535.039062 C 408.320312 535.039062 434.238281 548.800781 456 541.761719 C 477.761719 534.71875 491.519531 507.519531 510.398438 494.078125 C 529.28125 480.640625 558.71875 475.839844 572.480469 456.960938 C 586.238281 438.078125 581.121094 408.960938 588.480469 386.558594 C 595.839844 364.160156 616.960938 344.320312 616.960938 320 C 616.960938 295.679688 595.519531 275.199219 588.480469 253.441406 Z M 384 416 C 382.429688 416 380.859375 415.960938 379.289062 415.882812 C 377.71875 415.808594 376.152344 415.691406 374.589844 415.539062 C 373.027344 415.382812 371.46875 415.191406 369.914062 414.960938 C 368.359375 414.730469 366.8125 414.460938 365.269531 414.15625 C 363.730469 413.847656 362.199219 413.503906 360.675781 413.121094 C 359.148438 412.742188 357.636719 412.324219 356.132812 411.867188 C 354.628906 411.410156 353.136719 410.917969 351.660156 410.386719 C 350.179688 409.859375 348.714844 409.292969 347.261719 408.691406 C 345.8125 408.089844 344.375 407.453125 342.953125 406.78125 C 341.535156 406.109375 340.132812 405.40625 338.746094 404.664062 C 337.359375 403.925781 335.992188 403.148438 334.644531 402.34375 C 333.296875 401.535156 331.972656 400.695312 330.664062 399.820312 C 329.359375 398.949219 328.074219 398.042969 326.8125 397.109375 C 325.550781 396.171875 324.3125 395.207031 323.097656 394.210938 C 321.882812 393.210938 320.695312 392.1875 319.53125 391.132812 C 318.367188 390.078125 317.230469 388.992188 316.117188 387.882812 C 315.007812 386.769531 313.921875 385.632812 312.867188 384.46875 C 311.8125 383.304688 310.789062 382.117188 309.789062 380.902344 C 308.792969 379.6875 307.828125 378.449219 306.890625 377.1875 C 305.957031 375.925781 305.050781 374.640625 304.179688 373.335938 C 303.304688 372.027344 302.464844 370.703125 301.65625 369.355469 C 300.851562 368.007812 300.074219 366.640625 299.335938 365.253906 C 298.59375 363.867188 297.890625 362.464844 297.21875 361.046875 C 296.546875 359.625 295.910156 358.1875 295.308594 356.738281 C 294.707031 355.285156 294.140625 353.820312 293.613281 352.339844 C 293.082031 350.863281 292.589844 349.371094 292.132812 347.867188 C 291.675781 346.363281 291.257812 344.851562 290.878906 343.324219 C 290.496094 341.800781 290.152344 340.269531 289.84375 338.730469 C 289.539062 337.1875 289.269531 335.640625 289.039062 334.085938 C 288.808594 332.53125 288.617188 330.972656 288.460938 329.410156 C 288.308594 327.847656 288.191406 326.28125 288.117188 324.710938 C 288.039062 323.140625 288 321.570312 288 320 C 288 318.429688 288.039062 316.859375 288.117188 315.289062 C 288.191406 313.71875 288.308594 312.152344 288.460938 310.589844 C 288.617188 309.027344 288.808594 307.46875 289.039062 305.914062 C 289.269531 304.359375 289.539062 302.8125 289.84375 301.269531 C 290.152344 299.730469 290.496094 298.199219 290.878906 296.675781 C 291.257812 295.148438 291.675781 293.636719 292.132812 292.132812 C 292.589844 290.628906 293.082031 289.136719 293.613281 287.660156 C 294.140625 286.179688 294.707031 284.714844 295.308594 283.261719 C 295.910156 281.8125 296.546875 280.375 297.21875 278.953125 C 297.890625 277.535156 298.59375 276.132812 299.335938 274.746094 C 300.074219 273.359375 300.851562 271.992188 301.65625 270.644531 C 302.464844 269.296875 303.304688 267.972656 304.179688 266.664062 C 305.050781 265.359375 305.957031 264.074219 306.890625 262.8125 C 307.828125 261.550781 308.792969 260.3125 309.789062 259.097656 C 310.789062 257.882812 311.8125 256.695312 312.867188 255.53125 C 313.921875 254.367188 315.007812 253.230469 316.117188 252.117188 C 317.230469 251.007812 318.367188 249.921875 319.53125 248.867188 C 320.695312 247.8125 321.882812 246.789062 323.097656 245.789062 C 324.3125 244.792969 325.550781 243.828125 326.8125 242.890625 C 328.074219 241.957031 329.359375 241.050781 330.664062 240.179688 C 331.972656 239.304688 333.296875 238.464844 334.644531 237.65625 C 335.992188 236.851562 337.359375 236.078125 338.746094 235.335938 C 340.132812 234.59375 341.535156 233.890625 342.953125 233.21875 C 344.375 232.546875 345.8125 231.910156 347.261719 231.308594 C 348.714844 230.707031 350.179688 230.140625 351.660156 229.613281 C 353.136719 229.082031 354.628906 228.589844 356.132812 228.132812 C 357.636719 227.675781 359.148438 227.257812 360.675781 226.878906 C 362.199219 226.496094 363.730469 226.152344 365.269531 225.84375 C 366.8125 225.539062 368.359375 225.269531 369.914062 225.039062 C 371.46875 224.808594 373.027344 224.617188 374.589844 224.460938 C 376.152344 224.308594 377.71875 224.191406 379.289062 224.117188 C 380.859375 224.039062 382.429688 224 384 224 C 385.570312 224 387.140625 224.039062 388.710938 224.117188 C 390.28125 224.191406 391.847656 224.308594 393.410156 224.460938 C 394.972656 224.617188 396.53125 224.808594 398.085938 225.039062 C 399.640625 225.269531 401.1875 225.539062 402.730469 225.84375 C 404.269531 226.152344 405.800781 226.496094 407.324219 226.878906 C 408.851562 227.257812 410.363281 227.675781 411.867188 228.132812 C 413.371094 228.589844 414.863281 229.082031 416.339844 229.613281 C 417.820312 230.140625 419.285156 230.707031 420.738281 231.308594 C 422.1875 231.910156 423.625 232.546875 425.046875 233.21875 C 426.464844 233.890625 427.867188 234.59375 429.253906 235.335938 C 430.640625 236.078125 432.007812 236.851562 433.355469 237.65625 C 434.703125 238.464844 436.027344 239.304688 437.335938 240.179688 C 438.640625 241.050781 439.925781 241.957031 441.1875 242.890625 C 442.449219 243.828125 443.6875 244.792969 444.902344 245.789062 C 446.117188 246.789062 447.304688 247.8125 448.46875 248.867188 C 449.632812 249.921875 450.769531 251.007812 451.882812 252.117188 C 452.992188 253.230469 454.078125 254.367188 455.132812 255.53125 C 456.1875 256.695312 457.210938 257.882812 458.210938 259.097656 C 459.207031 260.3125 460.171875 261.550781 461.109375 262.8125 C 462.042969 264.074219 462.949219 265.359375 463.820312 266.664062 C 464.695312 267.972656 465.535156 269.296875 466.34375 270.644531 C 467.148438 271.992188 467.921875 273.359375 468.664062 274.746094 C 469.40625 276.132812 470.109375 277.535156 470.78125 278.953125 C 471.453125 280.375 472.089844 281.8125 472.691406 283.261719 C 473.292969 284.714844 473.859375 286.179688 474.386719 287.660156 C 474.917969 289.136719 475.410156 290.628906 475.867188 292.132812 C 476.324219 293.636719 476.742188 295.148438 477.121094 296.675781 C 477.503906 298.199219 477.847656 299.730469 478.15625 301.269531 C 478.460938 302.8125 478.730469 304.359375 478.960938 305.914062 C 479.191406 307.46875 479.382812 309.027344 479.539062 310.589844 C 479.691406 312.152344 479.808594 313.71875 479.882812 315.289062 C 479.960938 316.859375 480 318.429688 480 320 C 480 321.570312 479.960938 323.140625 479.882812 324.710938 C 479.808594 326.28125 479.691406 327.847656 479.539062 329.410156 C 479.382812 330.972656 479.191406 332.53125 478.960938 334.085938 C 478.730469 335.640625 478.460938 337.1875 478.15625 338.730469 C 477.847656 340.269531 477.503906 341.800781 477.121094 343.324219 C 476.742188 344.851562 476.324219 346.363281 475.867188 347.867188 C 475.410156 349.371094 474.917969 350.863281 474.386719 352.339844 C 473.859375 353.820312 473.292969 355.285156 472.691406 356.738281 C 472.089844 358.1875 471.453125 359.625 470.78125 361.046875 C 470.109375 362.464844 469.40625 363.867188 468.664062 365.253906 C 467.921875 366.640625 467.148438 368.007812 466.34375 369.355469 C 465.535156 370.703125 464.695312 372.027344 463.820312 373.335938 C 462.949219 374.640625 462.042969 375.925781 461.109375 377.1875 C 460.171875 378.449219 459.207031 379.6875 458.210938 380.902344 C 457.210938 382.117188 456.1875 383.304688 455.132812 384.46875 C 454.078125 385.632812 452.992188 386.769531 451.882812 387.882812 C 450.769531 388.992188 449.632812 390.078125 448.46875 391.132812 C 447.304688 392.1875 446.117188 393.210938 444.902344 394.210938 C 443.6875 395.207031 442.449219 396.171875 441.1875 397.109375 C 439.925781 398.042969 438.640625 398.949219 437.335938 399.820312 C 436.027344 400.695312 434.703125 401.535156 433.355469 402.34375 C 432.007812 403.148438 430.640625 403.921875 429.253906 404.664062 C 427.867188 405.40625 426.464844 406.109375 425.046875 406.78125 C 423.625 407.453125 422.1875 408.089844 420.738281 408.691406 C 419.285156 409.292969 417.820312 409.859375 416.339844 410.386719 C 414.863281 410.917969 413.371094 411.410156 411.867188 411.867188 C 410.363281 412.324219 408.851562 412.742188 407.324219 413.121094 C 405.800781 413.503906 404.269531 413.847656 402.730469 414.15625 C 401.1875 414.460938 399.640625 414.730469 398.085938 414.960938 C 396.53125 415.191406 394.972656 415.382812 393.410156 415.539062 C 391.847656 415.691406 390.28125 415.808594 388.710938 415.882812 C 387.140625 415.960938 385.570312 416 384 416 Z M 384 416 " fill-opacity="1" fill-rule="nonzero"/><path stroke-linecap="round" transform="matrix(32.000001, 0, 0, 32.000001, 0.000003, 0.00002)" fill="none" stroke-linejoin="round" d="M 10 16.999999 L 8 20.999999 L 6 18.999999 L 3 18.999999 L 5.810058 13.420043 M 13.999999 16.999999 L 15.999999 20.999999 L 17.999999 18.999999 L 20.999999 18.999999 L 18.189941 13.420043 M 18.390014 7.930053 C 18.160034 7.22998 18.319946 6.319945 17.890014 5.72998 C 17.45996 5.140014 16.540038 4.999999 15.999999 4.560058 C 15.45996 4.119994 14.999999 3.300048 14.300048 3.069946 C 13.599975 2.839965 12.810058 3.280029 12.050048 3.280029 C 11.290039 3.280029 10.47998 2.849975 9.800048 3.069946 C 9.119995 3.290038 8.640014 4.140014 8.050048 4.560058 C 7.459961 4.97998 6.540039 5.130004 6.109985 5.71997 C 5.680053 6.310058 5.839966 7.21997 5.609985 7.920043 C 5.380005 8.619994 4.71997 9.239989 4.71997 9.999999 C 4.71997 10.760009 5.390014 11.400023 5.609985 12.079955 C 5.829956 12.760009 5.680053 13.68994 6.109985 14.280028 C 6.540039 14.869994 7.459961 15.010009 8.050048 15.43994 C 8.640014 15.869994 9.050048 16.69995 9.75 16.930053 C 10.449951 17.160033 11.23999 16.71997 12 16.71997 C 12.760009 16.71997 13.569946 17.150023 14.249999 16.930053 C 14.930053 16.70996 15.359985 15.859984 15.949951 15.43994 C 16.540038 15.020018 17.45996 14.869994 17.890014 14.280028 C 18.319946 13.68994 18.160034 12.780028 18.390014 12.079955 C 18.619994 11.380004 19.280029 10.760009 19.280029 9.999999 C 19.280029 9.239989 18.609985 8.599975 18.390014 7.920043 Z M 12 12.999999 C 11.950927 12.999999 11.901855 12.998778 11.852783 12.996337 C 11.80371 12.994018 11.75476 12.990355 11.705932 12.985595 C 11.657104 12.980712 11.608398 12.97473 11.559814 12.967528 C 11.51123 12.960326 11.46289 12.951903 11.414672 12.942382 C 11.366577 12.932738 11.318725 12.921996 11.271118 12.910033 C 11.223388 12.898192 11.176147 12.885131 11.12915 12.870849 C 11.082153 12.856566 11.035522 12.841186 10.989379 12.824584 C 10.943115 12.808104 10.897338 12.790404 10.851928 12.771605 C 10.80664 12.752807 10.761718 12.732909 10.717285 12.711913 C 10.672973 12.690917 10.62915 12.668944 10.585815 12.645751 C 10.54248 12.62268 10.499755 12.598388 10.457641 12.573241 C 10.415527 12.547973 10.374145 12.521728 10.333252 12.494384 C 10.29248 12.467162 10.252319 12.438842 10.21289 12.409667 C 10.173462 12.38037 10.134765 12.350219 10.096801 12.319091 C 10.058837 12.287841 10.021728 12.255858 9.985351 12.222899 C 9.948974 12.18994 9.913452 12.156005 9.878662 12.121337 C 9.843994 12.086547 9.810058 12.051024 9.777099 12.014647 C 9.74414 11.97827 9.712158 11.941161 9.680908 11.903197 C 9.64978 11.865233 9.619629 11.826537 9.590332 11.787108 C 9.561157 11.74768 9.532837 11.707519 9.505615 11.666747 C 9.478271 11.625854 9.452026 11.584472 9.426757 11.542357 C 9.401611 11.500243 9.377319 11.457519 9.354248 11.414184 C 9.331054 11.370849 9.309082 11.327025 9.288086 11.282714 C 9.267089 11.23828 9.247192 11.193358 9.228393 11.14807 C 9.209594 11.10266 9.191894 11.056884 9.175415 11.010619 C 9.158813 10.964477 9.143432 10.917846 9.12915 10.870849 C 9.114868 10.823852 9.101806 10.77661 9.089965 10.728881 C 9.078003 10.681273 9.06726 10.633422 9.057617 10.585326 C 9.048095 10.537108 9.039672 10.488769 9.03247 10.440185 C 9.025268 10.391601 9.019287 10.342895 9.014404 10.294066 C 9.009643 10.245238 9.005981 10.196288 9.003662 10.147216 C 9.00122 10.098144 9 10.049071 9 9.999999 C 9 9.950927 9.00122 9.901855 9.003662 9.852782 C 9.005981 9.80371 9.009643 9.75476 9.014404 9.705932 C 9.019287 9.657104 9.025268 9.608398 9.03247 9.559814 C 9.039672 9.51123 9.048095 9.46289 9.057617 9.414672 C 9.06726 9.366576 9.078003 9.318725 9.089965 9.271117 C 9.101806 9.223388 9.114868 9.176147 9.12915 9.129149 C 9.143432 9.082152 9.158813 9.035522 9.175415 8.989379 C 9.191894 8.943114 9.209594 8.897338 9.228393 8.851928 C 9.247192 8.80664 9.267089 8.761718 9.288086 8.717284 C 9.309082 8.672973 9.331054 8.62915 9.354248 8.585815 C 9.377319 8.54248 9.401611 8.499755 9.426757 8.457641 C 9.452026 8.415526 9.478271 8.374145 9.505615 8.333251 C 9.532837 8.29248 9.561157 8.252318 9.590332 8.21289 C 9.619629 8.173461 9.64978 8.134765 9.680908 8.096801 C 9.712158 8.058837 9.74414 8.021728 9.777099 7.985351 C 9.810058 7.948974 9.843994 7.913451 9.878662 7.878661 C 9.913452 7.843993 9.948974 7.810058 9.985351 7.777099 C 10.021728 7.74414 10.058837 7.712157 10.096801 7.680907 C 10.134765 7.649779 10.173462 7.619628 10.21289 7.590331 C 10.252319 7.561156 10.29248 7.532836 10.333252 7.505614 C 10.374145 7.478271 10.415527 7.452026 10.457641 7.426757 C 10.499755 7.40161 10.54248 7.377441 10.585815 7.354247 C 10.62915 7.331054 10.672973 7.309081 10.717285 7.288085 C 10.761718 7.267089 10.80664 7.247192 10.851928 7.228393 C 10.897338 7.209594 10.943115 7.191894 10.989379 7.175414 C 11.035522 7.158813 11.082153 7.143432 11.12915 7.12915 C 11.176147 7.114867 11.223388 7.101806 11.271118 7.089965 C 11.318725 7.078002 11.366577 7.06726 11.414672 7.057616 C 11.46289 7.048095 11.51123 7.039672 11.559814 7.03247 C 11.608398 7.025268 11.657104 7.019286 11.705932 7.014403 C 11.75476 7.009643 11.80371 7.005981 11.852783 7.003661 C 11.901855 7.00122 11.950927 6.999999 12 6.999999 C 12.049072 6.999999 12.098144 7.00122 12.147216 7.003661 C 12.196289 7.005981 12.245239 7.009643 12.294067 7.014403 C 12.342895 7.019286 12.391601 7.025268 12.440185 7.03247 C 12.488769 7.039672 12.537109 7.048095 12.585327 7.057616 C 12.633422 7.06726 12.681274 7.078002 12.728881 7.089965 C 12.776611 7.101806 12.823852 7.114867 12.870849 7.12915 C 12.917846 7.143432 12.964477 7.158813 13.01062 7.175414 C 13.056884 7.191894 13.102661 7.209594 13.148071 7.228393 C 13.193359 7.247192 13.238281 7.267089 13.282714 7.288085 C 13.327026 7.309081 13.370849 7.331054 13.414184 7.354247 C 13.457519 7.377441 13.500244 7.40161 13.542358 7.426757 C 13.584472 7.452026 13.625854 7.478271 13.666748 7.505614 C 13.707519 7.532836 13.74768 7.561156 13.787109 7.590331 C 13.826538 7.619628 13.865234 7.649779 13.903198 7.680907 C 13.941162 7.712157 13.978271 7.74414 14.014648 7.777099 C 14.051025 7.810058 14.086547 7.843993 14.121337 7.878661 C 14.156005 7.913451 14.189941 7.948974 14.2229 7.985351 C 14.255859 8.021728 14.287841 8.058837 14.319091 8.096801 C 14.350219 8.134765 14.380371 8.173461 14.409667 8.21289 C 14.438842 8.252318 14.467163 8.29248 14.494384 8.333251 C 14.521728 8.374145 14.547973 8.415526 14.573242 8.457641 C 14.598388 8.499755 14.622558 8.54248 14.645751 8.585815 C 14.668945 8.62915 14.690917 8.672973 14.711914 8.717284 C 14.73291 8.761718 14.752807 8.80664 14.771606 8.851928 C 14.790405 8.897338 14.808105 8.943114 14.824584 8.989379 C 14.841186 9.035522 14.856567 9.082152 14.870849 9.129149 C 14.885131 9.176147 14.898193 9.223388 14.910034 9.271117 C 14.921997 9.318725 14.932739 9.366576 14.942382 9.414672 C 14.951904 9.46289 14.960327 9.51123 14.967529 9.559814 C 14.974731 9.608398 14.980712 9.657104 14.985595 9.705932 C 14.990356 9.75476 14.994018 9.80371 14.996337 9.852782 C 14.998779 9.901855 14.999999 9.950927 14.999999 9.999999 C 14.999999 10.049071 14.998779 10.098144 14.996337 10.147216 C 14.994018 10.196288 14.990356 10.245238 14.985595 10.294066 C 14.980712 10.342895 14.974731 10.391601 14.967529 10.440185 C 14.960327 10.488769 14.951904 10.537108 14.942382 10.585326 C 14.932739 10.633422 14.921997 10.681273 14.910034 10.728881 C 14.898193 10.77661 14.885131 10.823852 14.870849 10.870849 C 14.856567 10.917846 14.841186 10.964477 14.824584 11.010619 C 14.808105 11.056884 14.790405 11.10266 14.771606 11.14807 C 14.752807 11.193358 14.73291 11.23828 14.711914 11.282714 C 14.690917 11.327025 14.668945 11.370849 14.645751 11.414184 C 14.622558 11.457519 14.598388 11.500243 14.573242 11.542357 C 14.547973 11.584472 14.521728 11.625854 14.494384 11.666747 C 14.467163 11.707519 14.438842 11.74768 14.409667 11.787108 C 14.380371 11.826537 14.350219 11.865233 14.319091 11.903197 C 14.287841 11.941161 14.255859 11.97827 14.2229 12.014647 C 14.189941 12.051024 14.156005 12.086547 14.121337 12.121337 C 14.086547 12.156005 14.051025 12.18994 14.014648 12.222899 C 13.978271 12.255858 13.941162 12.287841 13.903198 12.319091 C 13.865234 12.350219 13.826538 12.38037 13.787109 12.409667 C 13.74768 12.438842 13.707519 12.467162 13.666748 12.494384 C 13.625854 12.521728 13.584472 12.547973 13.542358 12.573241 C 13.500244 12.598388 13.457519 12.622558 13.414184 12.645751 C 13.370849 12.668944 13.327026 12.690917 13.282714 12.711913 C 13.238281 12.732909 13.193359 12.752807 13.148071 12.771605 C 13.102661 12.790404 13.056884 12.808104 13.01062 12.824584 C 12.964477 12.841186 12.917846 12.856566 12.870849 12.870849 C 12.823852 12.885131 12.776611 12.898192 12.728881 12.910033 C 12.681274 12.921996 12.633422 12.932738 12.585327 12.942382 C 12.537109 12.951903 12.488769 12.960326 12.440185 12.967528 C 12.391601 12.97473 12.342895 12.980712 12.294067 12.985595 C 12.245239 12.990355 12.196289 12.994018 12.147216 12.996337 C 12.098144 12.998778 12.049072 12.999999 12 12.999999 Z M 12 12.999999 " stroke="#000000" stroke-width="2" stroke-opacity="1" stroke-miterlimit="4"/></svg>